<?xml version="1.0" encoding="UTF-8" standalone="no"?>
<!-- Created with Inkscape (http://www.inkscape.org/) -->

<svg
   xmlns:dc="http://purl.org/dc/elements/1.1/"
   xmlns:cc="http://creativecommons.org/ns#"
   xmlns:rdf="http://www.w3.org/1999/02/22-rdf-syntax-ns#"
   xmlns:svg="http://www.w3.org/2000/svg"
   xmlns="http://www.w3.org/2000/svg"
   xmlns:sodipodi="http://sodipodi.sourceforge.net/DTD/sodipodi-0.dtd"
   xmlns:inkscape="http://www.inkscape.org/namespaces/inkscape"
   width="248.56184"
   height="485.78192"
   viewBox="0 0 65.765362 128.5298"
   version="1.1"
   id="svg3923"
   inkscape:version="0.92.3 (2405546, 2018-03-11)"
   sodipodi:docname="cat.svg">
  <defs
     id="defs3917" />
  <sodipodi:namedview
     id="base"
     pagecolor="#ffffff"
     bordercolor="#666666"
     borderopacity="1.0"
     inkscape:pageopacity="0.0"
     inkscape:pageshadow="2"
     inkscape:zoom="1.4"
     inkscape:cx="105.77816"
     inkscape:cy="243.25632"
     inkscape:document-units="mm"
     inkscape:current-layer="layer1"
     showgrid="false"
     inkscape:window-width="1920"
     inkscape:window-height="1027"
     inkscape:window-x="-8"
     inkscape:window-y="-8"
     inkscape:window-maximized="1"
     units="px"
     fit-margin-top="0"
     fit-margin-left="0"
     fit-margin-right="0"
     fit-margin-bottom="0" />
  <metadata
     id="metadata3920">
    <rdf:RDF>
      <cc:Work
         rdf:about="">
        <dc:format>image/svg+xml</dc:format>
        <dc:type
           rdf:resource="http://purl.org/dc/dcmitype/StillImage" />
        <dc:title></dc:title>
      </cc:Work>
    </rdf:RDF>
  </metadata>
  <g
     inkscape:label="Layer 1"
     inkscape:groupmode="layer"
     id="layer1"
     transform="translate(-29.709143,-170.34384)">
    <path
       style="fill:#000000;stroke-width:0.12130607"
       d="m 77.880236,170.34385 c -0.207061,0.002 -0.410522,0.12378 -0.485697,0.33809 -0.128373,-0.0565 -0.287208,-0.0618 -0.462006,0.0213 -0.216362,0.10294 -0.108361,0.0509 -0.323878,0.15566 -0.322669,0.15915 -0.644096,0.32106 -0.961919,0.48972 -0.31862,0.16995 -0.636088,0.34254 -0.942728,0.53356 -0.305838,0.19212 -0.608116,0.38974 -0.902452,0.59919 -0.29442,0.20904 -0.584648,0.42384 -0.869991,0.64515 -0.286862,0.22184 -0.573133,0.44466 -0.853644,0.67452 -0.272451,0.22601 -0.540915,0.4569 -0.801047,0.69704 -0.2494,0.22974 -0.496846,0.46162 -0.741578,0.69632 -0.236635,0.22719 -0.46993,0.45787 -0.700353,0.69135 -0.216806,0.21982 -0.434002,0.43911 -0.650836,0.6589 -0.200576,0.20181 -0.40237,0.40268 -0.599185,0.60818 -0.181879,0.1891 -0.363013,0.37867 -0.539954,0.57242 -0.167992,0.18606 -0.334214,0.37395 -0.494228,0.56696 -0.148328,0.17899 -0.296555,0.35815 -0.434759,0.54517 -0.113731,0.15655 -0.222351,0.31672 -0.318191,0.48499 -0.07403,0.12691 -0.148109,0.25401 -0.222474,0.38073 -0.05498,0.0937 -0.108585,0.18817 -0.164189,0.28147 -0.02558,0.0429 -0.05114,0.0862 -0.08269,0.1251 -0.481207,0.55587 0.304914,1.23633 0.786119,0.68045 0.07201,-0.0832 0.130927,-0.17619 0.187646,-0.27009 0.05759,-0.0963 0.112824,-0.19374 0.169639,-0.29047 0.07485,-0.12758 0.149369,-0.25535 0.223895,-0.38312 0.07828,-0.13754 0.166888,-0.2688 0.260381,-0.39637 0.125793,-0.16946 0.260556,-0.33204 0.395193,-0.49447 0.150651,-0.18166 0.307152,-0.35844 0.465322,-0.53355 0.169684,-0.1856 0.34336,-0.36726 0.517683,-0.54849 0.192906,-0.2014 0.390757,-0.39808 0.58734,-0.59587 0.217764,-0.22072 0.435942,-0.44098 0.653678,-0.66173 0.223793,-0.22672 0.450138,-0.45086 0.679978,-0.67145 0.239596,-0.22976 0.481778,-0.45674 0.725942,-0.68163 0.246913,-0.22784 0.501643,-0.44713 0.760294,-0.6615 0.271499,-0.22226 0.548616,-0.43763 0.826161,-0.65226 0.274143,-0.21253 0.552729,-0.41909 0.835637,-0.6198 0.278389,-0.19803 0.564326,-0.38514 0.853645,-0.56672 0.285968,-0.17781 0.581987,-0.33824 0.878996,-0.4966 0.308129,-0.16345 0.619728,-0.3203 0.93254,-0.47456 0.20753,-0.10087 0.103968,-0.051 0.310609,-0.14927 0.03785,-0.018 0.07179,-0.0382 0.102589,-0.0599 0.01083,0.0618 0.02304,0.12337 0.03341,0.18528 0.06657,0.39891 0.129828,0.79859 0.182907,1.19955 0.05382,0.41583 0.103926,0.83204 0.145235,1.24931 0.04253,0.4323 0.08132,0.86497 0.111119,1.29836 0.03047,0.44887 0.05648,0.89796 0.07179,1.34763 0.01641,0.46833 0.02902,0.93684 0.03388,1.40545 0.0059,0.4945 0.01175,0.98911 0.02867,1.48339 0.01707,0.50984 0.03935,1.0194 0.05971,1.52912 0.01783,0.52387 0.03211,1.04782 0.03578,1.572 0.002,0.54192 -0.0047,1.08391 -0.03009,1.62532 -0.02433,0.57367 -0.04866,1.14745 -0.06255,1.7215 -0.01516,0.59025 -0.02766,1.18061 -0.05284,1.77055 -0.0255,0.61231 -0.05474,1.22445 -0.09193,1.83617 -0.03729,0.62341 -0.07465,1.24682 -0.114672,1.87006 -0.03828,0.57603 -0.07904,1.15189 -0.135522,1.72648 -0.05164,0.55176 -0.105974,1.10317 -0.160162,1.65469 -0.0507,0.53421 -0.09454,1.06902 -0.144761,1.60328 -0.0495,0.5069 -0.105135,1.0133 -0.179354,1.51727 -0.06788,0.47817 -0.138446,0.95598 -0.21892,1.43222 -0.07893,0.46966 -0.162456,0.93842 -0.248297,1.40686 -0.08416,0.45877 -0.168866,0.91754 -0.26749,1.37346 -0.09732,0.45807 -0.19803,0.91548 -0.301133,1.37228 -0.100668,0.44327 -0.20342,0.88597 -0.303501,1.32939 -0.08888,0.39606 -0.1755,0.79258 -0.265357,1.18842 -0.07969,0.35507 -0.160072,0.71 -0.241192,1.06475 -0.0537,0.23485 -0.108887,0.46949 -0.161346,0.70461 -0.158693,0.7179 0.856534,0.94226 1.015228,0.22437 0.05194,-0.23267 0.106545,-0.46463 0.159687,-0.69703 0.08143,-0.3561 0.162139,-0.71236 0.242139,-1.06878 0.08988,-0.39583 0.176453,-0.7926 0.265357,-1.18865 0.0999,-0.44256 0.202552,-0.88436 0.303028,-1.32679 0.104181,-0.46151 0.205633,-0.9237 0.303976,-1.38649 0.100641,-0.46539 0.187494,-0.93361 0.273413,-1.40189 0.08679,-0.47353 0.171097,-0.94751 0.250904,-1.42227 0.08194,-0.48494 0.153818,-0.97137 0.222948,-1.45828 0.07635,-0.51894 0.133787,-1.04033 0.184802,-1.56229 0.05041,-0.53519 0.0942,-1.07095 0.144998,-1.60612 0.05425,-0.55196 0.108474,-1.10389 0.160162,-1.65611 0.05736,-0.58388 0.09897,-1.16908 0.137891,-1.75443 0.04019,-0.62554 0.07773,-1.25123 0.115146,-1.87693 0.03756,-0.61799 0.06711,-1.23656 0.09288,-1.85513 0.02544,-0.59547 0.03799,-1.19136 0.05331,-1.78713 0.01376,-0.56828 0.03777,-1.13607 0.06184,-1.70398 0.02609,-0.55732 0.03311,-1.11532 0.03128,-1.67317 -0.0035,-0.53472 -0.01829,-1.06911 -0.03649,-1.60351 -0.02026,-0.50953 -0.04265,-1.01899 -0.0597,-1.52865 -0.01664,-0.4868 -0.02242,-0.97386 -0.02819,-1.46088 -0.0049,-0.47661 -0.01771,-0.95305 -0.03436,-1.42938 -0.0157,-0.46104 -0.04222,-0.92154 -0.07345,-1.38175 -0.03047,-0.44386 -0.0704,-0.88712 -0.113961,-1.32986 -0.04231,-0.42785 -0.09363,-0.85471 -0.14879,-1.28106 -0.05466,-0.41357 -0.119726,-0.82555 -0.188356,-1.23699 -0.04463,-0.26659 -0.09408,-0.53239 -0.144288,-0.79797 -0.05976,-0.31606 -0.288794,-0.45675 -0.516262,-0.45466 z m -31.979077,2.52018 c -0.183757,-0.003 -0.342466,0.0979 -0.435469,0.24167 -0.141795,0.0592 -0.262335,0.18555 -0.310136,0.39424 -0.100061,0.43736 -0.1881,0.87719 -0.267726,1.31873 -0.07958,0.45256 -0.153859,0.90597 -0.218684,1.3609 -0.06543,0.46962 -0.123687,0.9404 -0.174377,1.41184 -0.0517,0.48926 -0.09932,0.97889 -0.131257,1.46989 -0.03221,0.50694 -0.05927,1.0143 -0.07582,1.52201 -0.01507,0.52094 -0.02437,1.04208 -0.0263,1.56324 -0.0017,0.51081 -0.0029,1.02168 0.0052,1.53244 0.0079,0.50297 0.0199,1.00584 0.03933,1.50851 0.01978,0.48852 0.03956,0.97708 0.06894,1.46515 0.02842,0.47814 0.05919,0.95613 0.09998,1.4334 0.0401,0.46915 0.0809,0.93831 0.136707,1.40592 0.0536,0.46044 0.111289,0.92046 0.169638,1.38033 0.05614,0.43879 0.11564,0.87706 0.167744,1.31636 0.04777,0.43681 0.09688,0.87357 0.154239,1.30925 0.06064,0.43782 0.129104,0.87444 0.20731,1.30949 0.07697,0.42818 0.157061,0.85581 0.238348,1.28319 0.0805,0.42146 0.162271,0.84264 0.245692,1.26353 0.07841,0.39814 0.156649,0.79633 0.235742,1.19434 0.07837,0.3871 0.157126,0.77401 0.239768,1.16023 0.08042,0.37676 0.162435,0.7532 0.246403,1.12918 0.07576,0.34638 0.150569,0.69299 0.220578,1.04058 0.06524,0.32623 0.131002,0.65236 0.197834,0.97827 0.06258,0.30601 0.125591,0.61193 0.188593,0.91785 0.05579,0.26884 0.111119,0.53788 0.162056,0.80768 0.04672,0.25095 0.09025,0.50247 0.131495,0.75437 0.0385,0.23422 0.07366,0.46892 0.105432,0.70415 0.02674,0.19848 0.05078,0.39735 0.07534,0.5961 0.02164,0.16769 0.04304,0.33543 0.06373,0.50324 0.01656,0.14595 0.03293,0.29193 0.05189,0.4376 0.0081,0.058 0.0184,0.11557 0.02748,0.17343 -0.09599,-0.0733 -0.194702,-0.1432 -0.293787,-0.21229 -0.210339,-0.14696 -0.425268,-0.28688 -0.641596,-0.42481 -0.237281,-0.15193 -0.480355,-0.2945 -0.724519,-0.43499 -0.251978,-0.14462 -0.507652,-0.28256 -0.764561,-0.41818 -0.260395,-0.13715 -0.52471,-0.26695 -0.790148,-0.39401 -0.277541,-0.13301 -0.561309,-0.25187 -0.849142,-0.3606 -0.30993,-0.11681 -0.628264,-0.20876 -0.947467,-0.29615 -0.331872,-0.0904 -0.669344,-0.15684 -1.00883,-0.21087 -0.356061,-0.0551 -0.715572,-0.0785 -1.07517,-0.0941 -0.377314,-0.0154 -0.755009,-0.0132 -1.132506,-0.008 -0.370802,0.005 -0.741309,0.0188 -1.111656,0.0372 -0.354437,0.0158 -0.708193,0.0419 -1.061428,0.0746 -0.347358,0.032 -0.692558,0.0821 -1.037025,0.13624 -0.331279,0.0526 -0.660959,0.11471 -0.989877,0.1803 -0.318056,0.0627 -0.63345,0.13741 -0.947704,0.21678 -0.295429,0.0752 -0.589403,0.15562 -0.881838,0.24167 -0.281724,0.0815 -0.557845,0.18064 -0.830189,0.28905 -0.248459,0.10298 -0.490604,0.22018 -0.729969,0.34259 -0.223275,0.11217 -0.434498,0.24543 -0.640409,0.38643 -0.191409,0.13133 -0.3695,0.28023 -0.544457,0.43239 -0.172245,0.14607 -0.328182,0.3087 -0.474325,0.48049 -0.146277,0.16932 -0.262676,0.35871 -0.355153,0.56175 -0.06758,0.16479 -0.113436,0.33712 -0.155423,0.50986 -0.05041,0.19187 -0.04989,0.38981 -0.03767,0.58616 0.01189,0.16927 0.03923,0.3368 0.0661,0.50417 0.02698,0.18105 0.06894,0.35867 0.119174,0.53451 0.05894,0.1957 0.137424,0.38469 0.226501,0.56838 0.09541,0.19956 0.22198,0.38028 0.35681,0.55465 0.146685,0.18118 0.318843,0.33938 0.4902,0.49659 0.180108,0.16914 0.381501,0.31271 0.582601,0.45538 0.221337,0.15036 0.451918,0.28703 0.684242,0.41959 0.242705,0.13684 0.486883,0.27086 0.731391,0.40444 0.27763,0.15122 0.564238,0.28504 0.851274,0.41722 0.301385,0.13819 0.605494,0.27002 0.912402,0.39543 0.337629,0.14203 0.685722,0.25632 1.034182,0.36818 0.359241,0.11469 0.721032,0.22088 1.083699,0.32412 0.36928,0.10496 0.739855,0.20546 1.110708,0.30469 0.380857,0.10248 0.763252,0.19848 1.146012,0.29355 0.394394,0.0968 0.789608,0.19092 1.184156,0.28715 0.395135,0.097 0.789069,0.1984 1.18226,0.30303 0.391008,0.10496 0.78015,0.21652 1.169229,0.32838 0.394297,0.11453 0.789008,0.22784 1.183445,0.34188 0.394789,0.11347 0.789529,0.2269 1.18463,0.33928 0.397372,0.1118 0.794779,0.22388 1.191738,0.33715 0.396416,0.1146 0.792815,0.22872 1.188894,0.34449 0.135069,0.0395 0.269765,0.0805 0.404668,0.12059 0.01037,0.89496 0.01856,1.78984 0.02275,2.68485 0.0056,1.0123 0.01131,2.02461 0.01682,3.03691 0.0055,1.03909 0.01001,2.07814 0.01303,3.11724 0.0037,1.0664 0.0077,2.13281 0.01089,3.19921 0.0028,1.0901 0.0038,2.18042 0.0054,3.27052 0.0012,1.11041 6.06e-4,2.22077 0,3.33118 -4.86e-4,1.13105 -9.71e-4,2.26197 -0.0014,3.39302 -3.64e-4,1.15148 -9.7e-4,2.30313 0,3.45462 0.002,1.15129 0.0048,2.30238 0.0099,3.45366 0.0049,1.14841 0.01196,2.29678 0.02346,3.44514 0.0119,1.12465 0.02607,2.24944 0.03957,3.37407 0.01351,1.11489 0.02768,2.22975 0.03814,3.34468 0.0099,1.11723 0.01969,2.23438 0.03435,3.35155 0.01496,1.11237 0.02982,2.22487 0.0526,3.33711 0.02328,1.09369 0.04847,2.18737 0.08506,3.28071 0.03636,1.05646 0.07439,2.11285 0.12178,3.16888 0.04554,1.01993 0.09287,2.0397 0.137653,3.05966 0.0425,0.99056 0.08454,1.98115 0.125571,2.97177 0.04039,0.96291 0.0816,1.92581 0.12486,2.8886 0.04175,0.92592 0.08409,1.85172 0.129362,2.77748 0.04302,0.87664 0.08712,1.75323 0.134336,2.62964 0.04388,0.81625 0.08916,1.63239 0.128652,2.44887 0.03724,0.75919 0.07075,1.51871 0.09927,2.27828 0.02688,0.69506 0.05245,1.3901 0.07842,2.08518 0.02352,0.61139 0.04712,1.22289 0.07037,1.83428 0.02038,0.52793 0.04085,1.05576 0.06279,1.58362 0.01871,0.43327 0.03735,0.86656 0.06231,1.29954 0.01968,0.34514 0.04043,0.69015 0.0661,1.03489 0.01914,0.25049 0.03915,0.50094 0.06752,0.75058 0.01564,0.14052 0.03204,0.28104 0.0481,0.4215 0.0095,0.088 0.01869,0.17628 0.0289,0.26417 0.09139,0.72928 1.122996,0.60034 1.031812,-0.12913 -0.0094,-0.0822 -0.01789,-0.16439 -0.02677,-0.24664 -0.01613,-0.14159 -0.03281,-0.28318 -0.04857,-0.4248 -0.02702,-0.23772 -0.04601,-0.47629 -0.06421,-0.71481 -0.02514,-0.33811 -0.04538,-0.6765 -0.06468,-1.01499 -0.02468,-0.42819 -0.0431,-0.85683 -0.0616,-1.28533 -0.02186,-0.52627 -0.04246,-1.05252 -0.06278,-1.57887 -0.02325,-0.61135 -0.04684,-1.22272 -0.07037,-1.83405 -0.02597,-0.69514 -0.05131,-1.3903 -0.07819,-2.08542 -0.02865,-0.76316 -0.06258,-1.52616 -0.09998,-2.28894 -0.03957,-0.8181 -0.08492,-1.63572 -0.128887,-2.45361 -0.04713,-0.8748 -0.09092,-1.74988 -0.133864,-2.6249 -0.0452,-0.92439 -0.08767,-1.84891 -0.129362,-2.77345 -0.04321,-0.96171 -0.08428,-1.92346 -0.124623,-2.88529 -0.04104,-0.99095 -0.08329,-1.98182 -0.125807,-2.97271 -0.04481,-1.02056 -0.09209,-2.04102 -0.137654,-3.06155 -0.04723,-1.05249 -0.08507,-2.10531 -0.121306,-3.15823 -0.03643,-1.08879 -0.06141,-2.17806 -0.08458,-3.26721 -0.02272,-1.10952 -0.03767,-2.21915 -0.0526,-3.32881 -0.01464,-1.11558 -0.02424,-2.23118 -0.03412,-3.34681 -0.01048,-1.11606 -0.02485,-2.23221 -0.03838,-3.34824 -0.01348,-1.12408 -0.02744,-2.24805 -0.03933,-3.37216 -0.01148,-1.14618 -0.01879,-2.29229 -0.02369,-3.43851 -0.0052,-1.15041 -0.0079,-2.30088 -0.0099,-3.4513 -9.71e-4,-1.15074 -2.43e-4,-2.30151 2.43e-4,-3.45225 3.63e-4,-1.13104 9.7e-4,-2.26221 0.0014,-3.39325 6.06e-4,-1.11092 9.7e-4,-2.22168 -2.43e-4,-3.3326 -0.0016,-1.09062 -0.0024,-2.18133 -0.0052,-3.27195 -0.0032,-1.06673 -0.0071,-2.13342 -0.01091,-3.20016 -0.003,-1.03973 -0.0077,-2.07941 -0.01327,-3.11913 -0.0055,-1.01237 -0.01123,-2.02478 -0.01682,-3.03715 -0.004,-0.8488 -0.0116,-1.69749 -0.02109,-2.54624 0.339594,-0.2058 0.371398,-0.79564 -0.151869,-0.95316 -0.333814,-0.10048 -0.667637,-0.20031 -1.002197,-0.29829 -0.398214,-0.11639 -0.796973,-0.23117 -1.195528,-0.34638 -0.397241,-0.11334 -0.794793,-0.22575 -1.192449,-0.33762 -0.393646,-0.11196 -0.78703,-0.22458 -1.180365,-0.33762 -0.394944,-0.1142 -0.79006,-0.22793 -1.184866,-0.34259 -0.395702,-0.11376 -0.791456,-0.22713 -1.189131,-0.33383 -0.400177,-0.10647 -0.801426,-0.2095 -1.203584,-0.30824 -0.393124,-0.0959 -0.786678,-0.18974 -1.179655,-0.28621 -0.376706,-0.0936 -0.753172,-0.18795 -1.128003,-0.28881 -0.365543,-0.0978 -0.730842,-0.19697 -1.094835,-0.30043 -0.351582,-0.10006 -0.702261,-0.20278 -1.05053,-0.31392 -0.323009,-0.10365 -0.645964,-0.20904 -0.958839,-0.34094 -0.292925,-0.11956 -0.583055,-0.2454 -0.870702,-0.37718 -0.265482,-0.1222 -0.530671,-0.24581 -0.787543,-0.38548 -0.238973,-0.13055 -0.477805,-0.26127 -0.715042,-0.39496 -0.202752,-0.1155 -0.403625,-0.2347 -0.597527,-0.36463 -0.165712,-0.11741 -0.333038,-0.23433 -0.481433,-0.37363 -0.12849,-0.11776 -0.258567,-0.23499 -0.371737,-0.36795 -0.09192,-0.11755 -0.17959,-0.23855 -0.244034,-0.37387 -0.06368,-0.12842 -0.117862,-0.2613 -0.16111,-0.39803 -0.03917,-0.13569 -0.07139,-0.27277 -0.09169,-0.41273 -0.02175,-0.13539 -0.04496,-0.27064 -0.05544,-0.40751 -0.0066,-0.0912 -0.01374,-0.18384 0.01066,-0.27317 0.02722,-0.11296 0.05628,-0.22576 0.09619,-0.33502 0.04587,-0.11448 0.119245,-0.21436 0.197122,-0.30919 0.111507,-0.13233 0.231485,-0.25663 0.363919,-0.36842 0.144738,-0.12615 0.291616,-0.25014 0.449921,-0.35917 0.169038,-0.11622 0.342317,-0.22643 0.525976,-0.31843 0.210396,-0.1078 0.423219,-0.21075 0.641359,-0.30208 0.242234,-0.0968 0.487796,-0.18501 0.738498,-0.25754 0.279495,-0.0823 0.560622,-0.15908 0.842983,-0.23101 0.297227,-0.0751 0.595445,-0.14608 0.89629,-0.20541 0.315051,-0.0629 0.630866,-0.12229 0.948178,-0.17272 0.322649,-0.0508 0.646035,-0.0979 0.971396,-0.12794 0.338444,-0.0314 0.677282,-0.0565 1.016886,-0.0716 0.357712,-0.0178 0.715595,-0.0312 1.073749,-0.0358 0.358057,-0.005 0.716333,-0.007 1.074222,0.007 0.320126,0.0137 0.640365,0.0337 0.957417,0.0822 0.301914,0.0475 0.601859,0.10663 0.897001,0.18669 0.288045,0.0788 0.575342,0.16106 0.855066,0.26631 0.260128,0.0977 0.516397,0.20569 0.767167,0.32554 0.25318,0.12113 0.505047,0.24477 0.753424,0.37552 0.245753,0.12969 0.490349,0.26164 0.731391,0.39993 0.230528,0.13261 0.460232,0.26715 0.684242,0.4106 0.204298,0.13022 0.407433,0.26208 0.606056,0.40088 0.138513,0.0965 0.277531,0.19279 0.403959,0.30516 0.07866,0.0701 0.157803,0.13995 0.232424,0.21441 0.399392,0.4219 0.952024,0.0637 0.918088,-0.36842 0.262049,-0.0456 0.491342,-0.27972 0.414621,-0.64799 -0.01196,-0.0575 -0.02287,-0.11533 -0.03317,-0.17319 -0.01762,-0.0953 -0.03197,-0.19119 -0.04525,-0.28716 -0.01764,-0.13713 -0.03322,-0.27438 -0.04881,-0.41177 -0.02124,-0.1731 -0.04331,-0.34615 -0.06563,-0.51911 -0.02473,-0.20065 -0.04909,-0.40142 -0.07605,-0.60179 -0.03308,-0.24519 -0.06986,-0.48986 -0.109934,-0.734 -0.04241,-0.25915 -0.08725,-0.51776 -0.135285,-0.77593 -0.05222,-0.27683 -0.108848,-0.55271 -0.166085,-0.82853 -0.06279,-0.30494 -0.125745,-0.60998 -0.188119,-0.91501 -0.06653,-0.32442 -0.131708,-0.64901 -0.196648,-0.97376 -0.07122,-0.3537 -0.147515,-0.70637 -0.224606,-1.05882 -0.08358,-0.37428 -0.16517,-0.74917 -0.245219,-1.12422 -0.08188,-0.38265 -0.159994,-0.76604 -0.237636,-1.14956 -0.07872,-0.39621 -0.156503,-0.79256 -0.234558,-1.1889 -0.08304,-0.41894 -0.164379,-0.83809 -0.244506,-1.2576 -0.08057,-0.42367 -0.160169,-0.84759 -0.236453,-1.27205 -0.07568,-0.42131 -0.142052,-0.84428 -0.200676,-1.26827 -0.05593,-0.42587 -0.103758,-0.85267 -0.150448,-1.27964 -0.05262,-0.44563 -0.113169,-0.89022 -0.170112,-1.33531 -0.05783,-0.45596 -0.115094,-0.91195 -0.168218,-1.36848 -0.05457,-0.45708 -0.0942,-0.91583 -0.133389,-1.37441 -0.04001,-0.46833 -0.07022,-0.93745 -0.09809,-1.40663 -0.02899,-0.48153 -0.04848,-0.9635 -0.068,-1.44549 -0.01907,-0.49409 -0.03087,-0.98829 -0.03862,-1.48268 -0.008,-0.50417 -0.0069,-1.00856 -0.0052,-1.51277 0.0019,-0.51227 0.01121,-1.02441 0.02606,-1.53646 0.01625,-0.49575 0.04243,-0.99101 0.07392,-1.486 0.03106,-0.47654 0.07749,-0.95194 0.127702,-1.42677 0.04954,-0.45999 0.106181,-0.91929 0.170114,-1.37749 0.06317,-0.44271 0.1355,-0.88401 0.212995,-1.32442 0.05094,-0.28157 0.106936,-0.56204 0.165849,-0.84203 0.03317,0.0209 0.06591,0.0425 0.09927,0.063 0.09675,0.0612 0.194337,0.1206 0.29284,0.17888 0.108262,0.0635 0.216438,0.12739 0.325773,0.18907 0.11728,0.0653 0.234624,0.13036 0.351362,0.19665 0.128145,0.0719 0.255033,0.14618 0.380029,0.22342 0.137295,0.0831 0.272808,0.16898 0.405854,0.25872 0.143273,0.0978 0.284177,0.19907 0.422676,0.3035 0.148798,0.11228 0.292137,0.23133 0.434284,0.35184 0.15393,0.13078 0.304481,0.26554 0.454188,0.40111 0.155443,0.14116 0.308062,0.2852 0.459399,0.43073 0.153773,0.14822 0.305175,0.29883 0.453714,0.4523 0.150275,0.1554 0.294867,0.31604 0.437602,0.47835 0.149798,0.17018 0.294224,0.34507 0.436891,0.52124 0.149369,0.18249 0.292251,0.37017 0.43547,0.55748 0.147297,0.19141 0.294547,0.38266 0.438076,0.57692 0.145986,0.19785 0.28666,0.3996 0.424808,0.60297 0.141059,0.20791 0.276566,0.41958 0.410119,0.63236 0.133272,0.21171 0.26029,0.42723 0.384767,0.6442 0.08165,0.14291 0.160562,0.28738 0.238822,0.43215 0.13981,0.25861 0.369358,0.33262 0.572887,0.28953 0.140783,0.25406 0.484283,0.39523 0.805547,0.13931 0.05766,-0.0411 0.113259,-0.085 0.168218,-0.1296 0.05787,-0.0501 0.119741,-0.0947 0.183144,-0.13741 0.08737,-0.0576 0.17837,-0.10939 0.268201,-0.16301 0.133195,-0.0806 0.264503,-0.1642 0.397324,-0.24546 0.162747,-0.10109 0.32961,-0.19517 0.496834,-0.28857 0.182534,-0.10131 0.368056,-0.19735 0.55488,-0.29047 0.201757,-0.0994 0.40615,-0.19322 0.611032,-0.28597 0.220623,-0.1009 0.443853,-0.19565 0.668606,-0.28692 0.243249,-0.0981 0.487877,-0.19309 0.733522,-0.28502 0.03103,-0.0115 0.06226,-0.0225 0.09335,-0.0339 -0.04166,0.0788 -0.08002,0.15916 -0.118462,0.23953 -0.05245,0.10977 -0.10514,0.21948 -0.155898,0.33004 -0.05696,0.12352 -0.10646,0.2503 -0.154713,0.37742 -0.05286,0.13956 -0.09718,0.28215 -0.138364,0.42552 -0.04124,0.14725 -0.07945,0.29522 -0.113724,0.44424 -0.03988,0.1748 -0.06085,0.35301 -0.07582,0.53142 -0.01264,0.1807 -0.01879,0.36172 -0.02227,0.5428 -0.0037,0.15176 -3.64e-4,0.30371 -0.0076,0.45537 -0.0073,0.11152 -0.02106,0.22243 -0.03435,0.33335 -0.0102,0.0727 -0.01796,0.14606 -0.03578,0.21727 -7.28e-4,0.002 -0.0016,0.003 -0.0024,0.005 -0.220685,0.70132 0.771324,1.01335 0.992008,0.31203 0.0059,-0.0197 0.01184,-0.0393 0.01777,-0.059 0.02834,-0.11561 0.04639,-0.23322 0.06065,-0.35137 0.01637,-0.13669 0.033,-0.27331 0.04075,-0.41083 0.0067,-0.16053 0.0059,-0.32126 0.0085,-0.4819 0.0029,-0.15906 0.0082,-0.31818 0.01872,-0.47693 0.01046,-0.12907 0.02488,-0.25799 0.05331,-0.38453 0.0097,-0.0424 0.02177,-0.0843 0.03222,-0.12652 0.102643,0.28895 0.45116,0.48846 0.809576,0.24474 0.125931,-0.0873 0.228156,-0.20159 0.329801,-0.31487 0.08898,-0.0989 0.177725,-0.19776 0.270333,-0.29332 0.105005,-0.10605 0.212692,-0.20968 0.32435,-0.30871 0.143999,-0.12679 0.297086,-0.24262 0.451107,-0.35681 0.177501,-0.13252 0.360747,-0.25675 0.546115,-0.3779 0.19832,-0.1279 0.401463,-0.24792 0.607715,-0.3625 0.128043,-0.0705 0.257941,-0.13748 0.388559,-0.20304 0.01428,0.0316 0.02765,0.0635 0.04217,0.095 0.05711,0.12456 0.113856,0.2492 0.171772,0.37339 0.06432,0.13705 0.129118,0.27392 0.195226,0.41012 0.06857,0.14402 0.142376,0.28559 0.213945,0.42813 0.0801,0.15932 0.168339,0.31437 0.255643,0.46982 0.04337,0.0768 0.08572,0.15414 0.128177,0.23148 0.353736,0.64453 1.265426,0.14415 0.91169,-0.50039 -0.04408,-0.0803 -0.08837,-0.16046 -0.133389,-0.24024 -0.07944,-0.14143 -0.159821,-0.28256 -0.232898,-0.42742 -0.06949,-0.13836 -0.141185,-0.27554 -0.207784,-0.41533 -0.06377,-0.13136 -0.12631,-0.26349 -0.188356,-0.39567 -0.05734,-0.12292 -0.113328,-0.24632 -0.169876,-0.3696 -0.0462,-0.10009 -0.09141,-0.20058 -0.133863,-0.30232 -0.02408,-0.0561 -0.04942,-0.11228 -0.06492,-0.17153 -0.01974,-0.0754 -0.03587,-0.15152 -0.0571,-0.2265 -0.164717,-0.62455 -0.960155,-0.49576 -1.023993,0.0268 -0.202046,0.099 -0.403092,0.2 -0.600134,0.30871 -0.22786,0.12681 -0.452647,0.25928 -0.671685,0.40088 -0.202478,0.13246 -0.402618,0.2682 -0.59658,0.41296 -0.178763,0.13271 -0.355994,0.26801 -0.522896,0.41557 -0.130731,0.11674 -0.257926,0.23743 -0.38074,0.3625 -0.101263,0.10503 -0.199316,0.21282 -0.29663,0.32151 -0.04564,0.0509 -0.08988,0.10341 -0.140497,0.1495 -0.02122,0.0144 -0.04063,0.0296 -0.059,0.045 0.0044,-0.0123 0.0082,-0.0248 0.01279,-0.037 0.03982,-0.10518 0.08045,-0.21006 0.127466,-0.31227 0.04847,-0.10568 0.09895,-0.21066 0.149027,-0.31558 0.03808,-0.0798 0.07362,-0.16084 0.117514,-0.23764 0.0448,-0.0772 0.09221,-0.15277 0.135996,-0.23053 0.04141,-0.0739 0.08274,-0.14808 0.12249,-0.22294 0.04599,-0.0871 0.08847,-0.17601 0.12107,-0.26915 0.168205,-0.48722 -0.264063,-0.79799 -0.620509,-0.70178 -0.123931,-0.16494 -0.343349,-0.2599 -0.617429,-0.16063 -0.179003,0.0648 -0.358441,0.12859 -0.536874,0.19499 -0.254601,0.0953 -0.508182,0.1937 -0.760296,0.29544 -0.237342,0.0964 -0.473021,0.1965 -0.706039,0.30303 -0.216752,0.0981 -0.432942,0.19749 -0.646333,0.30279 -0.201233,0.10047 -0.40116,0.20394 -0.597765,0.31322 -0.179316,0.10016 -0.358279,0.20111 -0.532846,0.30943 -0.129495,0.0793 -0.25763,0.16059 -0.387374,0.23953 -0.106459,0.0636 -0.214226,0.12514 -0.317244,0.19428 -0.08453,0.0573 -0.16721,0.11722 -0.245455,0.1829 -0.07847,-0.14501 -0.157224,-0.28994 -0.239058,-0.4331 -0.131359,-0.22884 -0.265736,-0.45594 -0.406328,-0.67926 -0.140259,-0.22339 -0.282357,-0.4456 -0.430495,-0.66387 -0.145926,-0.21472 -0.294304,-0.42773 -0.4485,-0.63662 -0.14694,-0.19876 -0.297685,-0.39483 -0.448501,-0.59066 -0.149124,-0.19502 -0.297985,-0.3902 -0.453476,-0.58023 -0.151559,-0.18708 -0.305018,-0.37272 -0.464138,-0.55346 -0.153741,-0.17474 -0.30939,-0.34777 -0.471246,-0.51507 -0.157204,-0.16226 -0.317288,-0.32163 -0.480012,-0.47836 -0.158832,-0.15272 -0.319002,-0.30393 -0.482144,-0.45205 -0.158151,-0.14321 -0.317154,-0.28549 -0.479776,-0.42363 -0.157359,-0.13331 -0.316475,-0.26484 -0.481195,-0.38903 -0.153273,-0.11539 -0.308862,-0.2275 -0.467456,-0.33548 -0.144486,-0.0971 -0.291189,-0.19094 -0.440208,-0.281 -0.135936,-0.0839 -0.27364,-0.16466 -0.412961,-0.24285 -0.117737,-0.0668 -0.236149,-0.13273 -0.354442,-0.19854 -0.103007,-0.0579 -0.204584,-0.11826 -0.306582,-0.17793 -0.0932,-0.0551 -0.185671,-0.11154 -0.277204,-0.16941 -0.07173,-0.0441 -0.143018,-0.0888 -0.213233,-0.13528 -0.03912,-0.0265 -0.07808,-0.0536 -0.114199,-0.0841 -0.05323,-0.0463 -0.107345,-0.0919 -0.164663,-0.13315 -0.11205,-0.0803 -0.224218,-0.11585 -0.328853,-0.11775 z m 20.046067,15.87901 c -0.292333,-0.009 -0.591322,0.21828 -0.530714,0.62738 0.0018,0.0158 0.0027,0.0317 0.004,0.0476 0.0022,0.0337 0.0048,0.0673 0.0076,0.10093 0.0036,0.0476 0.0092,0.0951 0.0154,0.14239 0.0062,0.0471 0.01326,0.094 0.02014,0.14097 0.007,0.0477 0.01328,0.0955 0.01943,0.14334 0.0071,0.0544 0.01325,0.10904 0.0199,0.16348 0.0075,0.059 0.01474,0.11792 0.0218,0.17698 0.0074,0.0619 0.0142,0.12383 0.02085,0.18575 0.0071,0.0668 0.01372,0.13378 0.02014,0.20068 0.0066,0.0674 0.01224,0.13476 0.01682,0.20233 0.0049,0.0717 0.0082,0.14354 0.01137,0.21537 0.0023,0.0516 0.0012,0.0257 0.0031,0.0777 0.02897,0.73465 1.068133,0.69367 1.039158,-0.041 -0.0023,-0.0536 -9.71e-4,-0.0267 -0.0033,-0.0803 -0.0034,-0.0808 -0.0072,-0.16165 -0.01279,-0.24237 -0.0053,-0.0773 -0.01154,-0.15442 -0.01919,-0.23148 -0.0068,-0.0708 -0.01376,-0.14156 -0.02132,-0.21228 -0.0071,-0.0659 -0.01419,-0.13182 -0.02203,-0.1976 -0.0072,-0.0604 -0.01481,-0.12071 -0.02251,-0.18101 -0.007,-0.0563 -0.013,-0.11266 -0.02038,-0.16893 -0.0069,-0.0536 -0.014,-0.10716 -0.0218,-0.16063 -0.0062,-0.0428 -0.01284,-0.0855 -0.01848,-0.12842 -0.0041,-0.0299 -0.0074,-0.0599 -0.0097,-0.09 -0.0028,-0.0311 -0.005,-0.062 -0.0069,-0.0931 -0.0031,-0.041 -0.0067,-0.082 -0.01279,-0.12273 -0.04714,-0.31819 -0.270411,-0.46807 -0.497781,-0.47504 z m -10.813537,0.77949 c -0.163321,0.0156 -0.324438,0.11233 -0.425993,0.31843 -0.01865,0.0384 -0.03535,0.0776 -0.05165,0.11704 -0.01676,0.0407 -0.03261,0.0817 -0.04786,0.12296 -0.01879,0.0513 -0.035,0.10343 -0.05094,0.15567 -0.01705,0.056 -0.03216,0.11247 -0.04668,0.16916 -0.01587,0.0627 -0.03003,0.12603 -0.04359,0.1893 -0.01443,0.0673 -0.02743,0.13493 -0.04004,0.20258 -0.01385,0.0738 -0.02641,0.14776 -0.03791,0.22199 -0.01269,0.0807 -0.02314,0.1619 -0.03246,0.24309 -0.01006,0.0868 -0.01729,0.17373 -0.02369,0.26086 -0.0052,0.0729 -0.01019,0.14577 -0.01445,0.21868 -0.04277,0.73398 0.995209,0.7944 1.037972,0.0604 0.0039,-0.0677 0.0087,-0.13534 0.01351,-0.20304 0.0053,-0.0731 0.01121,-0.14632 0.01966,-0.21916 0.0076,-0.0675 0.01649,-0.13474 0.02701,-0.20186 0.0098,-0.0637 0.02082,-0.12736 0.03269,-0.19072 0.01089,-0.0585 0.02212,-0.11691 0.03459,-0.17509 0.01069,-0.05 0.02168,-0.0999 0.03412,-0.1495 0.01057,-0.0414 0.02147,-0.0827 0.03388,-0.12368 0.01017,-0.0334 0.02036,-0.0669 0.03222,-0.0997 0.01057,-0.029 0.02175,-0.0577 0.03341,-0.0862 0.0073,-0.0179 0.01499,-0.0355 0.02298,-0.0531 0.223421,-0.45341 -0.147478,-0.81232 -0.506784,-0.77806 z m 0.375291,9.35834 c -0.133768,0.007 -0.272396,0.0706 -0.390928,0.2111 -0.03553,0.0419 -0.06707,0.087 -0.09714,0.13291 -0.0311,0.0477 -0.05851,0.0978 -0.08506,0.14808 -0.03262,0.0618 -0.06051,0.12586 -0.08695,0.19049 -0.03212,0.0791 -0.05718,0.16071 -0.08008,0.24285 -0.02468,0.0902 -0.04305,0.18185 -0.05947,0.27389 -0.01782,0.10284 -0.02853,0.20678 -0.03862,0.31061 -0.01197,0.1174 -0.0159,0.23531 -0.01588,0.35325 7.28e-4,0.12918 0.01136,0.25805 0.02488,0.38643 0.01373,0.12797 0.03351,0.25518 0.05568,0.38192 0.02368,0.13833 0.05864,0.27405 0.09856,0.40846 0.04051,0.13312 0.0902,0.26323 0.143577,0.39164 0.05504,0.13254 0.121687,0.25947 0.192621,0.38406 0.06784,0.11762 0.141703,0.23172 0.217972,0.34402 0.07867,0.11644 0.166733,0.22586 0.258723,0.33193 0.09198,0.1051 0.192646,0.2021 0.296157,0.29568 0.09777,0.0875 0.200402,0.16917 0.305161,0.24806 0.112676,0.086 0.233584,0.1597 0.358231,0.22674 0.126225,0.0663 0.259552,0.117 0.394245,0.16301 0.13637,0.0474 0.27738,0.0771 0.419833,0.0988 0.128162,0.0179 0.257501,0.026 0.386663,0.0325 0.141606,0.009 0.282869,6.1e-4 0.423387,-0.0171 0.154196,-0.0195 0.301891,-0.066 0.445657,-0.12343 0.138995,-0.0571 0.268968,-0.13238 0.393535,-0.21584 0.124943,-0.0862 0.2388,-0.1866 0.346859,-0.29284 0.108655,-0.10925 0.203213,-0.23105 0.293078,-0.35587 0.08633,-0.12128 0.16095,-0.25015 0.230766,-0.38145 0.06869,-0.13168 0.127507,-0.2682 0.181248,-0.40656 0.05228,-0.13627 0.09281,-0.27642 0.129835,-0.41747 0.0036,-0.0139 0.0065,-0.028 0.0099,-0.0419 0.01802,0.0136 0.03595,0.0272 0.05402,0.0408 0.114845,0.0852 0.232316,0.16658 0.349939,0.24783 0.123611,0.0866 0.249465,0.16987 0.376949,0.25066 0.137483,0.0867 0.278909,0.16676 0.42078,0.24593 0.142207,0.0794 0.286289,0.15528 0.431442,0.22911 0.157277,0.0807 0.31961,0.15115 0.483566,0.21702 0.168299,0.0669 0.340158,0.12392 0.513656,0.17557 0.188151,0.0568 0.381081,0.0934 0.575257,0.12178 0.196994,0.0279 0.395677,0.039 0.594447,0.0417 0.197242,9.7e-4 0.393756,-0.0143 0.589471,-0.0374 0.199901,-0.0248 0.395276,-0.0741 0.586865,-0.13505 0.196638,-0.0634 0.379301,-0.15888 0.553459,-0.26867 0.169033,-0.1078 0.318497,-0.24044 0.458452,-0.38311 0.1414,-0.14695 0.2569,-0.31462 0.357284,-0.49139 0.09594,-0.1715 0.164381,-0.35482 0.217262,-0.5435 0.05115,-0.18702 0.06474,-0.38043 0.06658,-0.57336 -3.1e-5,-0.18128 -0.02794,-0.36047 -0.06278,-0.53783 -0.03344,-0.16674 -0.08601,-0.32833 -0.142867,-0.4883 -0.009,-0.0244 -0.01798,-0.0488 -0.02701,-0.0732 -0.255497,-0.68941 -1.230443,-0.32809 -0.97495,0.36131 l 0.02251,0.0609 c 0.04008,0.11215 0.07833,0.225 0.102352,0.34189 0.02187,0.10836 0.04105,0.21776 0.04288,0.32861 0,0.10216 -0.0038,0.20498 -0.02938,0.30445 -0.02864,0.10831 -0.06787,0.21289 -0.122017,0.31132 -0.05375,0.0989 -0.11814,0.1913 -0.19499,0.27389 -0.08286,0.0862 -0.171449,0.1663 -0.272228,0.23148 -0.09833,0.0639 -0.201694,0.11897 -0.313453,0.15589 -0.127668,0.042 -0.258485,0.0746 -0.391875,0.0924 -0.150469,0.0184 -0.301789,0.03 -0.453476,0.0301 -0.153054,-10e-4 -0.305766,-0.0103 -0.457504,-0.0313 -0.144733,-0.0207 -0.288647,-0.047 -0.428837,-0.0893 -0.142656,-0.0421 -0.2838,-0.0895 -0.422201,-0.14405 -0.135436,-0.0542 -0.269393,-0.11195 -0.399221,-0.17865 -0.13327,-0.0677 -0.265587,-0.13732 -0.39614,-0.21015 -0.125055,-0.0697 -0.249772,-0.14031 -0.371026,-0.21655 -0.115858,-0.0733 -0.230085,-0.149 -0.342357,-0.22768 -0.106958,-0.0739 -0.21391,-0.14779 -0.318429,-0.22508 -0.08968,-0.067 -0.178522,-0.13517 -0.268437,-0.20187 -0.08527,-0.0628 -0.171232,-0.12518 -0.263936,-0.17674 -0.153534,-0.0806 -0.313607,-0.1325 -0.489963,-0.10591 -0.217085,0.0546 -0.393589,0.17121 -0.486408,0.38193 -0.04563,0.10901 -0.07987,0.2217 -0.104484,0.33738 -0.026,0.11209 -0.05096,0.22439 -0.07913,0.33596 -0.02692,0.10331 -0.0559,0.2062 -0.09382,0.30611 -0.03842,0.10026 -0.08101,0.19894 -0.130073,0.2945 -0.04752,0.0902 -0.09813,0.17879 -0.156845,0.26227 -0.0555,0.0779 -0.113507,0.15426 -0.180063,0.22319 -0.06159,0.062 -0.127452,0.11986 -0.198544,0.17082 -0.06334,0.0441 -0.130437,0.0824 -0.201388,0.11302 -0.06091,0.0257 -0.12288,0.0471 -0.18883,0.0557 -0.07863,0.0112 -0.158034,0.0148 -0.237399,0.01 -0.0952,-0.005 -0.190451,-0.0102 -0.285022,-0.0225 -0.08105,-0.0116 -0.161113,-0.0277 -0.238585,-0.055 -0.08149,-0.0274 -0.162498,-0.057 -0.239294,-0.096 -0.07789,-0.0409 -0.152653,-0.0869 -0.222711,-0.14026 -0.08023,-0.0601 -0.158887,-0.12268 -0.233846,-0.1893 -0.07269,-0.0652 -0.143306,-0.13285 -0.208021,-0.20613 -0.06536,-0.0746 -0.127668,-0.15191 -0.183381,-0.23408 -0.06115,-0.0896 -0.120083,-0.18076 -0.174614,-0.2746 -0.05003,-0.0872 -0.09728,-0.17623 -0.135995,-0.26915 -0.03976,-0.0948 -0.07643,-0.1906 -0.106854,-0.28881 -0.02884,-0.0954 -0.0537,-0.19212 -0.0706,-0.29047 -0.01826,-0.1036 -0.03484,-0.20766 -0.0462,-0.31227 -0.01,-0.0925 -0.01776,-0.18509 -0.01872,-0.27815 -3.64e-4,-0.0838 0.0024,-0.1675 0.01089,-0.25091 0.0074,-0.0768 0.01475,-0.15371 0.02748,-0.22981 0.01041,-0.0595 0.02213,-0.11878 0.03767,-0.17722 0.012,-0.0436 0.02452,-0.0873 0.04123,-0.12936 0.01326,-0.0331 0.02738,-0.066 0.04383,-0.0976 0.01197,-0.0228 0.02388,-0.0456 0.03791,-0.0673 0.006,-0.009 0.01195,-0.0189 0.01895,-0.0275 0.355595,-0.42144 -0.0024,-0.90374 -0.403722,-0.8816 z m 29.594891,5.26212 c -0.18878,7.3e-4 -0.37736,0.004 -0.566016,0.0118 -0.359595,0.0156 -0.719347,0.039 -1.075407,0.0941 -0.339486,0.054 -0.676955,0.12019 -1.008831,0.21063 -0.319197,0.0874 -0.637302,0.17958 -0.947229,0.29639 -0.287834,0.10874 -0.571602,0.22759 -0.849143,0.3606 -0.265437,0.12706 -0.529754,0.25686 -0.790147,0.39401 -0.25691,0.13562 -0.512585,0.27356 -0.764561,0.41818 -0.244167,0.14049 -0.487238,0.28306 -0.724519,0.43499 -0.21633,0.13793 -0.431495,0.27784 -0.641833,0.42481 -0.172442,0.12023 -0.34405,0.2419 -0.501098,0.38216 -0.10054,0.0897 -0.201645,0.17899 -0.295683,0.27555 -0.505451,0.53392 0.249637,1.24873 0.755083,0.7148 0.07462,-0.0745 0.153767,-0.14429 0.232424,-0.21441 0.12643,-0.11237 0.265447,-0.20864 0.403958,-0.30517 0.198623,-0.13879 0.401759,-0.27065 0.606057,-0.40088 0.224009,-0.14344 0.453478,-0.27798 0.684005,-0.41059 0.241042,-0.13829 0.485641,-0.27024 0.731391,-0.39993 0.248381,-0.13075 0.500485,-0.2544 0.753661,-0.37553 0.25077,-0.11984 0.506801,-0.22804 0.766929,-0.32577 0.279723,-0.10524 0.567022,-0.18755 0.855066,-0.2663 0.295146,-0.0801 0.595325,-0.13918 0.897239,-0.1867 0.317052,-0.0486 0.637056,-0.0683 0.957184,-0.082 0.35788,-0.0145 0.716157,-0.0123 1.074214,-0.008 0.35815,0.005 0.71605,0.0183 1.07376,0.036 0.3396,0.0151 0.67868,0.0399 1.01712,0.0713 0.32537,0.03 0.64852,0.0774 0.97117,0.12817 0.31731,0.0504 0.63313,0.10986 0.94818,0.17272 0.30085,0.0593 0.59907,0.13028 0.8963,0.20542 0.28236,0.0719 0.56349,0.14842 0.84298,0.23076 0.25071,0.0725 0.49651,0.16075 0.73875,0.25754 0.21814,0.0913 0.43097,0.19452 0.64136,0.30232 0.18366,0.092 0.35694,0.20198 0.52598,0.31819 0.1583,0.10905 0.30518,0.23327 0.44992,0.35942 0.13244,0.11178 0.25241,0.23585 0.36392,0.36818 0.0779,0.0948 0.15101,0.19495 0.19689,0.30943 0.0399,0.10926 0.0692,0.22181 0.0964,0.33477 0.0244,0.0893 0.0172,0.18198 0.0107,0.27318 -0.0105,0.13686 -0.0337,0.27235 -0.0554,0.40775 -0.0203,0.13995 -0.0528,0.27679 -0.0919,0.41249 -0.0432,0.13672 -0.0974,0.26985 -0.16111,0.39827 -0.0644,0.13531 -0.15212,0.25632 -0.24404,0.37387 -0.11317,0.13295 -0.243,0.25018 -0.3715,0.36794 -0.14839,0.13931 -0.31572,0.25622 -0.48144,0.37364 -0.1939,0.12993 -0.39501,0.24888 -0.59776,0.36439 -0.23724,0.13369 -0.47608,0.26464 -0.71505,0.39519 -0.25687,0.13967 -0.52182,0.26304 -0.78731,0.38524 -0.28765,0.13178 -0.57802,0.25787 -0.87094,0.37742 -0.31288,0.13191 -0.6356,0.23706 -0.95861,0.3407 -0.34827,0.11115 -0.69919,0.21387 -1.05077,0.31393 -0.364,0.10345 -0.72906,0.20262 -1.09461,0.30042 -0.37483,0.10087 -0.7513,0.1955 -1.12801,0.28905 -0.392977,0.0965 -0.786764,0.19011 -1.179884,0.28597 -0.40216,0.0987 -0.803172,0.20178 -1.203351,0.30824 -0.397672,0.10671 -0.793427,0.22031 -1.189131,0.33407 -0.394806,0.11467 -0.789923,0.22816 -1.184866,0.34236 -0.393335,0.11304 -0.78672,0.2259 -1.180366,0.33785 -0.397658,0.11187 -0.795207,0.22404 -1.192448,0.33739 -0.398551,0.11521 -0.797316,0.22999 -1.195528,0.34638 -0.334558,0.098 -0.668624,0.19804 -1.002434,0.29853 -0.27236,0.082 -0.39307,0.28134 -0.399694,0.48262 -0.189903,0.0668 -0.343736,0.24145 -0.340225,0.52574 0.01215,0.98396 0.02029,1.96807 0.02488,2.95209 0.0056,1.01231 0.01109,2.02461 0.01659,3.03692 0.0055,1.03909 0.01006,2.07813 0.01327,3.11723 0.0038,1.0664 0.0077,2.13281 0.01089,3.19921 0.0027,1.09011 0.0036,2.18019 0.0054,3.27029 0.0014,1.11041 4.85e-4,2.22077 0,3.33118 l -0.0014,3.39325 c -3.64e-4,1.15148 -9.71e-4,2.3029 0,3.45438 0.002,1.1513 0.0048,2.30263 0.0099,3.45391 0.0049,1.14841 0.01195,2.29678 0.02346,3.44514 0.01192,1.12464 0.02585,2.2492 0.03933,3.37383 0.01353,1.11489 0.02793,2.22998 0.03838,3.34492 0.0099,1.11722 0.01945,2.23437 0.03412,3.35155 0.01497,1.11236 0.03005,2.22463 0.05283,3.33686 0.02328,1.0937 0.04847,2.18738 0.08506,3.28072 0.03636,1.05645 0.07439,2.11285 0.121781,3.16888 0.04554,1.01993 0.09286,2.03994 0.137654,3.0599 0.0425,0.99055 0.08454,1.98114 0.12557,2.97176 0.04039,0.96291 0.08134,1.92581 0.124624,2.8886 0.04175,0.92593 0.08435,1.85173 0.129598,2.77749 0.04302,0.87663 0.08712,1.75322 0.134337,2.62964 0.04389,0.81625 0.08894,1.6324 0.128414,2.44887 0.03724,0.75918 0.07099,1.51872 0.09951,2.27827 0.02688,0.69506 0.05247,1.39011 0.07842,2.0852 0.02352,0.61138 0.04712,1.22264 0.07037,1.83403 0.02038,0.52793 0.04087,1.056 0.06278,1.58386 0.0187,0.43327 0.03737,0.86655 0.06231,1.29954 0.01968,0.34513 0.04043,0.69014 0.0661,1.03489 0.01914,0.25048 0.03914,0.50093 0.06752,0.75058 0.01565,0.14051 0.03205,0.28103 0.0481,0.42149 0.0095,0.088 0.01868,0.17598 0.0289,0.26394 0.09119,0.72954 1.123009,0.60066 1.031812,-0.12889 -0.0094,-0.0822 -0.01811,-0.16463 -0.02701,-0.24688 -0.01611,-0.14159 -0.03256,-0.28295 -0.04833,-0.42457 -0.02703,-0.23772 -0.04624,-0.47628 -0.06444,-0.7148 -0.02514,-0.3381 -0.04514,-0.6765 -0.06444,-1.01499 -0.02467,-0.42819 -0.04331,-0.85682 -0.06184,-1.28533 -0.02184,-0.52627 -0.04224,-1.05253 -0.06255,-1.57888 -0.02325,-0.61135 -0.04685,-1.2227 -0.07037,-1.83404 -0.02597,-0.69515 -0.05132,-1.3903 -0.07818,-2.08542 -0.02866,-0.76316 -0.06257,-1.52616 -0.09998,-2.28894 -0.03957,-0.81811 -0.08492,-1.63597 -0.128888,-2.45385 -0.04713,-0.8748 -0.09114,-1.74965 -0.1341,-2.62466 -0.0452,-0.92439 -0.08769,-1.84891 -0.129361,-2.77346 -0.04322,-0.9617 -0.08404,-1.92346 -0.124386,-2.88528 -0.04104,-0.99095 -0.08331,-1.98183 -0.125808,-2.97271 -0.0448,-1.02057 -0.09208,-2.04102 -0.137654,-3.06156 -0.04723,-1.05249 -0.08509,-2.10555 -0.121306,-3.15846 -0.03643,-1.0888 -0.06138,-2.17782 -0.08458,-3.26697 -0.02271,-1.10953 -0.03789,-2.21916 -0.05284,-3.32881 -0.01467,-1.11558 -0.02426,-2.23118 -0.03412,-3.34681 -0.01049,-1.11607 -0.02462,-2.23221 -0.03815,-3.34824 -0.01348,-1.12409 -0.02769,-2.24806 -0.03957,-3.37217 -0.01146,-1.14617 -0.01855,-2.29252 -0.02345,-3.43874 -0.0052,-1.15041 -0.0081,-2.30065 -0.0099,-3.45106 -8.5e-4,-1.15075 -2.43e-4,-2.30151 2.42e-4,-3.45225 l 0.0012,-3.39326 c 4.85e-4,-1.11091 0.0014,-2.22168 0,-3.3326 -0.0017,-1.09061 -0.0027,-2.18133 -0.0054,-3.27194 -0.0032,-1.06674 -0.007,-2.13343 -0.01066,-3.20016 -0.003,-1.03973 -0.0077,-2.07941 -0.01327,-3.11913 -0.0055,-1.01237 -0.01123,-2.02478 -0.01682,-3.03715 -0.0046,-0.98639 -0.01273,-1.97289 -0.02488,-2.95921 0.331143,-0.0997 0.662494,-0.19872 0.994379,-0.29592 0.396076,-0.11576 0.792716,-0.23012 1.189131,-0.34473 0.39696,-0.11326 0.794127,-0.22534 1.191501,-0.33714 0.3951,-0.11238 0.790078,-0.22558 1.184866,-0.33904 0.394439,-0.11405 0.788911,-0.22736 1.183208,-0.34189 0.389079,-0.11185 0.778224,-0.22365 1.16923,-0.32861 0.393192,-0.10463 0.78736,-0.20575 1.182499,-0.3028 0.394537,-0.0962 0.789524,-0.19029 1.183914,-0.28715 0.38276,-0.0951 0.7654,-0.19107 1.14626,-0.29355 0.37085,-0.0992 0.74143,-0.19996 1.11071,-0.30492 0.36267,-0.10324 0.72447,-0.20919 1.08371,-0.32388 0.34846,-0.11187 0.69655,-0.22616 1.03419,-0.36818 0.30691,-0.12542 0.61102,-0.25724 0.9124,-0.39543 0.28704,-0.13218 0.57341,-0.26624 0.85105,-0.41747 0.2445,-0.13358 0.48892,-0.26735 0.73163,-0.40419 0.23232,-0.13257 0.46266,-0.26923 0.68401,-0.4196 0.2011,-0.14267 0.40273,-0.28624 0.58284,-0.45537 0.17135,-0.15722 0.34328,-0.31542 0.48996,-0.4966 0.13484,-0.17437 0.2614,-0.35508 0.35681,-0.55464 0.0891,-0.18369 0.1678,-0.37269 0.22674,-0.56839 0.0502,-0.17584 0.092,-0.35345 0.11894,-0.5345 0.0269,-0.16737 0.0544,-0.3349 0.0663,-0.50418 0.0122,-0.19635 0.0127,-0.39428 -0.0377,-0.58615 -0.042,-0.17275 -0.0878,-0.34531 -0.15542,-0.51011 -0.0925,-0.20303 -0.20888,-0.39242 -0.35516,-0.56175 -0.14614,-0.17178 -0.30208,-0.33418 -0.47433,-0.48025 -0.17495,-0.15216 -0.35304,-0.30129 -0.54446,-0.43262 -0.20591,-0.141 -0.41713,-0.27426 -0.64041,-0.38643 -0.23937,-0.12242 -0.48175,-0.23937 -0.73021,-0.34236 -0.27234,-0.10841 -0.54823,-0.20778 -0.82996,-0.28928 -0.29243,-0.0861 -0.58641,-0.16628 -0.88184,-0.24143 -0.31425,-0.0794 -0.62965,-0.15429 -0.94771,-0.21703 -0.32892,-0.0656 -0.6586,-0.12747 -0.98988,-0.18006 -0.34447,-0.0542 -0.68967,-0.10448 -1.03703,-0.13647 -0.35324,-0.0327 -0.707,-0.0588 -1.06143,-0.0746 -0.37036,-0.0183 -0.74086,-0.0323 -1.11167,-0.037 -0.188747,-0.002 -0.377707,-0.004 -0.566484,-0.004 z"
       id="path3929"
       inkscape:connector-curvature="0" />
    <path
       style="fill:#000000;stroke-width:0.12130607"
       id="path4040"
       d="m 69.670198,196.95682 c 0.054,-0.0318 0.107403,-0.0646 0.160912,-0.0972 0.09963,-0.0617 0.202607,-0.11768 0.30554,-0.1736 0.136604,-0.0743 0.274102,-0.1469 0.412504,-0.21777 0.172406,-0.088 0.345803,-0.1741 0.51965,-0.25925 0.214009,-0.10412 0.429737,-0.20463 0.646231,-0.30345 0.247153,-0.11328 0.497973,-0.21824 0.74851,-0.32374 0.285912,-0.12047 0.575868,-0.23088 0.866402,-0.3396 0.327259,-0.12333 0.658391,-0.23585 0.990601,-0.345 0.357728,-0.11813 0.718291,-0.22713 1.080659,-0.33004 0.393499,-0.11024 0.79069,-0.20642 1.189003,-0.29747 0.431076,-0.0973 0.864615,-0.18325 1.29973,-0.26032 0.505955,-0.0886 1.01755,-0.13814 1.528791,-0.18414 0.351705,-0.0281 0.175827,-0.0149 0.527628,-0.0397 0.733402,-0.0517 0.806516,0.9855 0.07311,1.0372 v 0 c -0.338707,0.0238 -0.169496,0.0111 -0.507643,0.0381 -0.481743,0.0433 -0.963907,0.0893 -1.440726,0.17241 -0.418253,0.0739 -0.834915,0.15672 -1.249279,0.2501 -0.380772,0.087 -0.760476,0.17882 -1.136668,0.28407 -0.348797,0.099 -0.695811,0.20395 -1.040125,0.31764 -0.318831,0.1047 -0.636645,0.21261 -0.950708,0.33099 -0.277398,0.10378 -0.554288,0.20906 -0.827281,0.32405 -0.241064,0.1015 -0.482449,0.20238 -0.720271,0.31135 -0.207921,0.0949 -0.415098,0.1914 -0.620644,0.29135 -0.168354,0.0824 -0.336272,0.16578 -0.503232,0.25103 -0.130845,0.0669 -0.260774,0.13566 -0.389909,0.20585 -0.0878,0.0477 -0.175823,0.0951 -0.260765,0.14782 -0.0566,0.0345 -0.113116,0.0691 -0.170202,0.10277 -0.631771,0.37606 -1.163594,-0.51741 -0.531822,-0.89346 z"
       inkscape:connector-curvature="0" />
    <path
       style="fill:#000000;stroke-width:0.12130607"
       id="path4042"
       d="m 71.556218,199.22098 c 0.06309,-0.0431 0.130873,-0.0781 0.199796,-0.11069 0.09391,-0.043 0.191626,-0.0769 0.289278,-0.11019 0.115101,-0.039 0.232495,-0.0706 0.350072,-0.10106 0.142807,-0.0364 0.287348,-0.0654 0.432301,-0.0918 0.180535,-0.0327 0.362652,-0.0551 0.545008,-0.0747 0.223844,-0.0238 0.448746,-0.0337 0.673649,-0.0402 0.24713,-0.006 0.494365,-0.005 0.741522,-0.001 0.26314,0.005 0.526151,0.0141 0.789057,0.0259 0.22835,0.01 0.456279,0.0269 0.684024,0.0459 0.732669,0.0613 0.646007,1.09742 -0.08666,1.03615 v 0 c -0.214389,-0.018 -0.428949,-0.034 -0.643916,-0.0433 -0.252897,-0.0113 -0.505891,-0.0205 -0.759008,-0.025 -0.23178,-0.004 -0.463633,-0.005 -0.695395,7.3e-4 -0.197838,0.006 -0.395691,0.014 -0.592621,0.0347 -0.157364,0.0168 -0.31455,0.0358 -0.470359,0.064 -0.119686,0.0216 -0.239015,0.0455 -0.356973,0.0752 -0.09241,0.0239 -0.184762,0.0483 -0.275294,0.0787 -0.06195,0.0211 -0.124133,0.042 -0.184267,0.0679 -0.0248,0.0112 -0.04916,0.0228 -0.0712,0.0391 -0.615358,0.40235 -1.184372,-0.4679 -0.56901,-0.87025 z"
       inkscape:connector-curvature="0" />
    <path
       style="fill:#000000;stroke-width:0.12130607"
       id="path4044"
       d="m 71.512043,202.28653 c 0.05996,-0.0184 0.121241,-0.0316 0.182847,-0.0431 0.09094,-0.0162 0.182988,-0.0248 0.274973,-0.0324 0.132432,-0.0106 0.265267,-0.0141 0.398056,-0.0163 0.184318,-0.004 0.36832,0.008 0.551978,0.0222 0.221656,0.0168 0.442364,0.0432 0.662563,0.0732 0.242728,0.0343 0.484108,0.0773 0.725181,0.12151 0.258423,0.0468 0.514607,0.10441 0.769724,0.16648 0.266124,0.0661 0.530928,0.13729 0.795306,0.20998 0.280654,0.0765 0.558162,0.16372 0.834172,0.25541 0.143618,0.0481 0.285623,0.10079 0.427628,0.15341 0.689384,0.25556 0.327969,1.23049 -0.36141,0.97494 v 0 c -0.13091,-0.0486 -0.261797,-0.0972 -0.394178,-0.14166 -0.258693,-0.086 -0.518811,-0.16781 -0.781887,-0.23955 -0.254516,-0.07 -0.509444,-0.1386 -0.765619,-0.20228 -0.23581,-0.0575 -0.472601,-0.11084 -0.711492,-0.15405 -0.22548,-0.0414 -0.451222,-0.0817 -0.678225,-0.114 -0.199612,-0.0273 -0.399693,-0.0514 -0.60064,-0.0667 -0.151592,-0.0116 -0.303454,-0.0226 -0.455619,-0.0194 -0.110521,0.002 -0.221092,0.004 -0.331334,0.0131 -0.05811,0.005 -0.116302,0.01 -0.173846,0.0191 -0.02008,0.003 -0.03993,0.008 -0.05957,0.0129 -0.702093,0.21822 -1.010705,-0.7747 -0.308608,-0.99292 z"
       inkscape:connector-curvature="0" />
    <path
       style="fill:#000000;stroke-width:0.12130607"
       id="path4056"
       d="m 52.241806,203.22301 c -0.03724,0.002 -0.07452,0.003 -0.111797,0.004 -0.04046,0.001 -0.08093,0.002 -0.121407,0.003 -0.05006,0.001 -0.100135,0.002 -0.150191,0.003 -0.05262,0.002 -0.105039,0.006 -0.157345,0.0122 -0.07528,0.009 -0.150187,0.0201 -0.224967,0.0323 -0.09326,0.0154 -0.186421,0.0314 -0.279509,0.0478 -0.100297,0.0183 -0.200555,0.0368 -0.300749,0.0557 -0.101937,0.0194 -0.203674,0.0398 -0.305143,0.0614 -0.11199,0.024 -0.223574,0.0497 -0.334696,0.0774 -0.124748,0.0311 -0.248644,0.0655 -0.372446,0.10012 -0.134961,0.0386 -0.269692,0.078 -0.404212,0.11819 -0.138192,0.0417 -0.27606,0.0845 -0.41358,0.12843 -0.139704,0.0448 -0.278604,0.092 -0.417202,0.14009 -0.141764,0.0484 -0.282544,0.0996 -0.42282,0.15221 -0.142368,0.0537 -0.283958,0.10951 -0.425203,0.16613 -0.14274,0.0569 -0.284664,0.11578 -0.42654,0.17478 -0.140631,0.0587 -0.28064,0.1189 -0.420268,0.17995 -0.138722,0.061 -0.276489,0.12416 -0.41376,0.18836 -0.139446,0.0654 -0.277896,0.13293 -0.416016,0.2011 -0.14099,0.0693 -0.280493,0.1416 -0.41986,0.21412 -0.0237,0.0124 -0.0474,0.0248 -0.0711,0.0372 -0.651326,0.34108 -1.133678,-0.58004 -0.482351,-0.92111 v 0 c 0.02451,-0.0128 0.04902,-0.0257 0.07353,-0.0385 0.145931,-0.0759 0.292026,-0.15156 0.439652,-0.22416 0.144655,-0.0714 0.289658,-0.14206 0.435705,-0.21055 0.14521,-0.0679 0.290935,-0.13469 0.437689,-0.19919 0.145369,-0.0635 0.291127,-0.12621 0.437542,-0.18731 0.146008,-0.0607 0.292074,-0.12131 0.43897,-0.17986 0.148543,-0.0595 0.29744,-0.11818 0.447173,-0.17465 0.14829,-0.0555 0.297104,-0.10968 0.446949,-0.16091 0.14676,-0.0509 0.293838,-0.10089 0.441772,-0.14827 0.143811,-0.0459 0.287976,-0.0907 0.432496,-0.13427 0.140195,-0.0418 0.280599,-0.0829 0.421267,-0.12312 0.133469,-0.0373 0.267058,-0.0743 0.401552,-0.10781 0.122365,-0.0304 0.245188,-0.0589 0.3685,-0.0852 0.109716,-0.0234 0.219705,-0.0455 0.329928,-0.0664 0.104199,-0.0196 0.208462,-0.0389 0.312778,-0.0579 0.0978,-0.0172 0.195671,-0.0341 0.293652,-0.0502 0.09284,-0.015 0.185842,-0.0291 0.279318,-0.0396 0.08018,-0.009 0.160554,-0.0156 0.241202,-0.0179 0.05161,-0.001 0.103229,-0.002 0.154841,-0.003 0.03726,-8.7e-4 0.07451,-0.002 0.111764,-0.003 0.02907,-9.6e-4 0.05815,-0.002 0.0872,-0.003 0.734094,-0.0408 0.791769,0.99738 0.05768,1.03816 z"
       inkscape:connector-curvature="0" />
    <path
       style="fill:#000000;stroke-width:0.12130607"
       id="path4058"
       d="m 49.971693,200.18065 c -0.03038,-0.005 -0.06071,-0.009 -0.09119,-0.0132 -0.04064,-0.004 -0.08146,-0.005 -0.122245,-0.007 -0.07282,-0.002 -0.14566,-0.004 -0.218497,-0.005 -0.07918,-0.002 -0.158384,-0.003 -0.237592,-0.003 -0.08384,2.5e-4 -0.167686,0.002 -0.251506,0.003 -0.09025,0.002 -0.18049,0.005 -0.270736,0.007 -0.09348,0.002 -0.186943,0.005 -0.280395,0.008 -0.09656,0.003 -0.193141,0.006 -0.28966,0.0109 -0.10003,0.004 -0.199841,0.0121 -0.299604,0.0204 -0.109806,0.009 -0.219427,0.0205 -0.329009,0.032 -0.110741,0.0118 -0.22111,0.0267 -0.331426,0.0419 -0.112956,0.0159 -0.225632,0.0337 -0.338194,0.0522 -0.117606,0.019 -0.234815,0.0403 -0.352031,0.0616 -0.122382,0.0224 -0.244623,0.0455 -0.366653,0.0697 -0.124499,0.0249 -0.248638,0.0514 -0.372357,0.0798 -0.128539,0.0298 -0.256365,0.0626 -0.383893,0.0965 -0.130443,0.0353 -0.259883,0.0742 -0.389094,0.11369 -0.134064,0.0406 -0.267318,0.0837 -0.400219,0.12792 -0.134443,0.0448 -0.267956,0.0924 -0.401231,0.14059 -0.110821,0.0401 -0.220825,0.0823 -0.330643,0.12507 -0.685204,0.26656 -1.06217,-0.70247 -0.376965,-0.96902 v 0 c 0.117625,-0.0457 0.235457,-0.091 0.354156,-0.13389 0.141688,-0.0512 0.283632,-0.10174 0.426564,-0.14938 0.140875,-0.0468 0.28212,-0.0926 0.424215,-0.13558 0.141602,-0.0433 0.283468,-0.0858 0.426449,-0.12437 0.138739,-0.0368 0.277803,-0.0724 0.417647,-0.10483 0.133926,-0.0308 0.268282,-0.0596 0.403048,-0.0864 0.127678,-0.0253 0.255562,-0.0496 0.383605,-0.073 0.122956,-0.0223 0.245911,-0.0446 0.369273,-0.0645 0.121362,-0.0199 0.242843,-0.0391 0.364636,-0.0561 0.121123,-0.0167 0.242319,-0.0329 0.363912,-0.0458 0.117397,-0.0124 0.23484,-0.0244 0.352477,-0.0343 0.112042,-0.009 0.224147,-0.0179 0.336485,-0.0228 0.100659,-0.005 0.201374,-0.008 0.302079,-0.0114 0.09622,-0.003 0.192458,-0.006 0.288717,-0.009 0.09174,-0.002 0.183469,-0.005 0.275209,-0.007 0.09122,-0.002 0.182453,-0.004 0.273692,-0.004 0.08732,-1.1e-4 0.174632,6e-4 0.261923,0.003 0.07682,0.002 0.153645,0.003 0.230451,0.006 0.06874,0.002 0.137535,0.005 0.205947,0.0127 0.04307,0.005 0.08595,0.0115 0.128807,0.0182 0.726888,0.11042 0.57074,1.13839 -0.156147,1.02798 z"
       inkscape:connector-curvature="0" />
    <path
       style="fill:#000000;stroke-width:0.12130607"
       id="path4060"
       d="m 49.89326,197.51857 c -0.03422,-0.0181 -0.06763,-0.0376 -0.101918,-0.0555 -0.03034,-0.014 -0.06156,-0.0258 -0.09309,-0.0367 -0.06495,-0.0214 -0.131027,-0.039 -0.197043,-0.0567 -0.08526,-0.0232 -0.17066,-0.0458 -0.256249,-0.0677 -0.09109,-0.0231 -0.182558,-0.0448 -0.273913,-0.0668 -0.100932,-0.0244 -0.201989,-0.0482 -0.302939,-0.0725 -0.107647,-0.0257 -0.214985,-0.0527 -0.322346,-0.0796 -0.112818,-0.028 -0.22612,-0.054 -0.339444,-0.0799 -0.121631,-0.0276 -0.243547,-0.054 -0.365613,-0.0797 -0.127919,-0.0268 -0.256145,-0.0522 -0.384475,-0.077 -0.134168,-0.0259 -0.268613,-0.0503 -0.403121,-0.0744 -0.139038,-0.0249 -0.27828,-0.0486 -0.417615,-0.0718 -0.146313,-0.0242 -0.292879,-0.0468 -0.43951,-0.069 -0.152337,-0.0229 -0.30478,-0.0451 -0.457272,-0.067 -0.153176,-0.0223 -0.306639,-0.0425 -0.460124,-0.0625 -0.153825,-0.0207 -0.307985,-0.0387 -0.462337,-0.055 -0.158763,-0.0162 -0.31779,-0.0296 -0.476941,-0.0414 -0.164918,-0.012 -0.330008,-0.0214 -0.495124,-0.0302 -0.166843,-0.009 -0.333813,-0.0143 -0.500803,-0.0191 -0.168505,-0.005 -0.337067,-0.007 -0.505636,-0.008 -0.164455,-0.001 -0.328875,0.002 -0.493195,0.009 -0.110337,0.005 -0.05488,0.002 -0.166388,0.008 -0.734369,0.0355 -0.784553,-1.00307 -0.05019,-1.03856 v 0 c 0.1175,-0.006 0.05841,-0.003 0.177271,-0.008 0.179803,-0.007 0.359711,-0.011 0.539658,-0.009 0.176032,0.001 0.352057,0.003 0.528023,0.009 0.17556,0.005 0.351098,0.0111 0.526503,0.0201 0.172253,0.009 0.344478,0.019 0.516524,0.0316 0.169979,0.0126 0.339832,0.0269 0.509394,0.0443 0.162844,0.0172 0.325495,0.0361 0.487788,0.058 0.157826,0.0206 0.315628,0.0414 0.473138,0.0643 0.155138,0.0222 0.310222,0.0448 0.4652,0.0682 0.151679,0.0229 0.30329,0.0464 0.45464,0.0714 0.143527,0.0239 0.286958,0.0483 0.43018,0.074 0.139186,0.0249 0.278306,0.0502 0.417139,0.077 0.133872,0.0259 0.267637,0.0523 0.401078,0.0803 0.127984,0.0269 0.255809,0.0545 0.383335,0.0835 0.12034,0.0275 0.240652,0.0552 0.360447,0.0849 0.10431,0.0261 0.208592,0.0523 0.313181,0.0773 0.10123,0.0244 0.202576,0.0483 0.303788,0.0727 0.0959,0.0232 0.191922,0.0459 0.287537,0.0703 0.08945,0.0229 0.178727,0.0465 0.267835,0.0707 0.09247,0.0248 0.184958,0.05 0.275531,0.0812 0.07857,0.0282 0.156479,0.0586 0.230677,0.0971 0.03589,0.019 0.07133,0.0389 0.107051,0.0583 0.648224,0.34694 0.157582,1.26366 -0.49064,0.91673 z"
       inkscape:connector-curvature="0" />
    <path
       style="fill:#000000;stroke-width:0.12130607"
       id="path4064"
       d="m 58.645902,199.43305 c -0.0045,-0.006 -0.01641,-0.019 -0.02639,-0.0303 -0.02153,-0.0245 -0.04435,-0.0478 -0.06677,-0.0715 -0.05148,-0.0501 -0.0957,-0.106 -0.137404,-0.16431 -0.101973,-0.15196 -0.123539,-0.32212 -0.104064,-0.50024 0.01989,-0.1145 0.06867,-0.21929 0.125181,-0.31968 0.04064,-0.0701 0.08701,-0.13665 0.135216,-0.20171 0.04767,-0.0636 0.09933,-0.124 0.152639,-0.1829 0.055,-0.0601 0.114485,-0.11581 0.174833,-0.17044 0.05776,-0.0521 0.117894,-0.10138 0.17878,-0.14971 0.0647,-0.0515 0.132323,-0.0992 0.200637,-0.1457 0.06933,-0.0473 0.140738,-0.0914 0.212636,-0.13458 0.07625,-0.0457 0.15491,-0.0872 0.23426,-0.12721 0.0771,-0.0391 0.156039,-0.0742 0.235769,-0.10751 0.09014,-0.0386 0.183561,-0.0677 0.278853,-0.0903 0.114654,-0.0264 0.231203,-0.0252 0.347006,-0.009 0.09842,0.0153 0.190165,0.0526 0.277615,0.0989 0.105012,0.056 0.185762,0.14017 0.254428,0.23565 0.0565,0.0851 0.08818,0.18124 0.109215,0.28028 0.01971,0.0971 0.01683,0.19565 0.0053,0.29342 -0.01229,0.0891 -0.03874,0.1752 -0.06877,0.25972 -0.02284,0.0622 -0.0483,0.12348 -0.07345,0.18482 -0.02224,0.0545 -0.04241,0.10979 -0.0625,0.1651 -0.02274,0.0628 -0.0441,0.12602 -0.06502,0.18942 -0.02409,0.0735 -0.04855,0.14691 -0.0729,0.22034 -0.02524,0.0762 -0.0505,0.15247 -0.07504,0.22893 -0.02481,0.0776 -0.04793,0.15576 -0.0706,0.23402 -0.02399,0.0832 -0.04691,0.16672 -0.06919,0.2504 -0.02327,0.0878 -0.04536,0.17589 -0.06708,0.26408 -0.02256,0.0923 -0.04398,0.18485 -0.06603,0.27726 -0.0204,0.0856 -0.04144,0.17104 -0.06413,0.25606 -0.01484,0.056 -0.03117,0.11154 -0.05008,0.16629 -0.02873,0.0943 -0.08483,0.17149 -0.147867,0.24584 -0.144021,0.13626 -0.319551,0.17823 -0.51042,0.1474 -0.0087,-0.002 -0.01732,-0.004 -0.02598,-0.006 -0.713113,-0.17896 -0.460026,-1.18745 0.253087,-1.00849 v 0 c -0.0042,-9.6e-4 -0.0084,-0.002 -0.01253,-0.003 -0.166864,-0.0248 -0.319235,0.019 -0.44295,0.13835 -0.02567,0.0311 -0.09022,0.11426 -0.09427,0.141 0.01022,-0.0296 0.01818,-0.0598 0.02651,-0.09 0.02035,-0.076 0.03897,-0.15242 0.05727,-0.22893 0.02265,-0.0949 0.04462,-0.18991 0.06783,-0.28465 0.02329,-0.0945 0.04698,-0.18894 0.07194,-0.28304 0.02423,-0.0909 0.04911,-0.18161 0.0752,-0.27199 0.02545,-0.0878 0.05145,-0.17549 0.07932,-0.26259 0.02558,-0.0796 0.05186,-0.15905 0.07815,-0.23845 0.0242,-0.0729 0.04849,-0.14585 0.07242,-0.21888 0.02419,-0.0733 0.04891,-0.14632 0.07522,-0.21884 0.02491,-0.0684 0.05002,-0.13685 0.07765,-0.20427 0.01928,-0.047 0.03885,-0.0939 0.05677,-0.14143 0.0042,-0.0114 0.01466,-0.0428 0.01646,-0.0433 8.71e-4,0.0146 0.0019,0.0294 0.0058,0.0436 0.01038,0.0336 0.02473,0.0655 0.04555,0.0942 0.03034,0.0393 0.06444,0.0765 0.109739,0.0987 0.01964,0.009 0.0403,0.0151 0.06186,0.0171 0.01358,9.7e-4 0.03476,0.002 0.04359,-0.003 -0.0374,0.008 -0.07318,0.0215 -0.108526,0.0361 -0.05672,0.0235 -0.112793,0.0485 -0.167592,0.0762 -0.05637,0.0283 -0.112302,0.0575 -0.166486,0.0899 -0.0551,0.0331 -0.109907,0.0667 -0.16304,0.10283 -0.04752,0.0323 -0.09469,0.0651 -0.139677,0.10089 -0.04345,0.0344 -0.08639,0.0694 -0.127641,0.10641 -0.03506,0.0316 -0.06989,0.0636 -0.102203,0.098 -0.03098,0.0339 -0.06097,0.0688 -0.08878,0.10536 -0.02353,0.0311 -0.04591,0.0632 -0.06625,0.0965 -0.02165,0.0352 8.71e-4,-0.014 -0.0016,-0.0285 0.0052,-0.088 -0.0055,-0.17474 -0.059,-0.2477 -0.04164,-0.0521 0.01839,0.0227 0.02932,0.0293 0.03141,0.0332 0.06324,0.066 0.09325,0.1005 0.03313,0.0378 0.06598,0.0759 0.09481,0.11717 0.423604,0.60093 -0.426237,1.2 -0.849843,0.59907 z"
       inkscape:connector-curvature="0" />
  </g>
</svg>
