<?xml version="1.0" encoding="UTF-8" standalone="no"?>
<!-- Created with Inkscape (http://www.inkscape.org/) -->

<svg
   xmlns:dc="http://purl.org/dc/elements/1.1/"
   xmlns:cc="http://creativecommons.org/ns#"
   xmlns:rdf="http://www.w3.org/1999/02/22-rdf-syntax-ns#"
   xmlns:svg="http://www.w3.org/2000/svg"
   xmlns="http://www.w3.org/2000/svg"
   xmlns:sodipodi="http://sodipodi.sourceforge.net/DTD/sodipodi-0.dtd"
   xmlns:inkscape="http://www.inkscape.org/namespaces/inkscape"
   width="600"
   height="800"
   viewBox="0 0 158.75 211.66667"
   version="1.1"
   id="svg4072"
   inkscape:version="0.92.3 (2405546, 2018-03-11)"
   sodipodi:docname="default-debris.svg">
  <defs
     id="defs4066" />
  <sodipodi:namedview
     id="base"
     pagecolor="#ffffff"
     bordercolor="#666666"
     borderopacity="1.0"
     inkscape:pageopacity="0.0"
     inkscape:pageshadow="2"
     inkscape:zoom="0.7"
     inkscape:cx="143.02551"
     inkscape:cy="510.02937"
     inkscape:document-units="mm"
     inkscape:current-layer="layer1"
     showgrid="false"
     units="px"
     inkscape:window-width="1920"
     inkscape:window-height="1027"
     inkscape:window-x="-8"
     inkscape:window-y="-8"
     inkscape:window-maximized="1" />
  <metadata
     id="metadata4069">
    <rdf:RDF>
      <cc:Work
         rdf:about="">
        <dc:format>image/svg+xml</dc:format>
        <dc:type
           rdf:resource="http://purl.org/dc/dcmitype/StillImage" />
        <dc:title></dc:title>
      </cc:Work>
    </rdf:RDF>
  </metadata>
  <g
     inkscape:label="Layer 1"
     inkscape:groupmode="layer"
     id="layer1"
     transform="translate(0,-85.333317)">
    <path
       style="fill:#000000;stroke-width:0.26458332"
       id="path4074"
       d="m 78.14067,146.18748 c -0.110609,0.002 -0.222133,-0.005 -0.332211,0.005 0.112845,-0.0149 0.01582,0.0179 -0.024,0.0366 -0.193707,0.0917 -0.380339,0.19737 -0.56596,0.30425 -0.178475,0.0968 -0.344861,0.20972 -0.496374,0.34444 -0.126537,0.1146 -0.238961,0.24223 -0.338987,0.38023 -0.06787,0.0927 -0.120618,0.19427 -0.167375,0.29878 -0.102251,0.23885 -0.199393,0.47977 -0.302861,0.71812 -0.211672,0.47699 -0.480891,0.92481 -0.760193,1.36449 -0.329867,0.4961 -0.683281,0.97624 -1.039685,1.45348 -0.398963,0.53143 -0.81029,1.0534 -1.236462,1.56325 -0.478684,0.56922 -1.003099,1.09679 -1.537671,1.61295 -0.525391,0.51496 -1.082114,0.99474 -1.675675,1.42906 -0.495697,0.3619 -1.044413,0.63273 -1.613448,0.85657 -0.437509,0.1624 -0.89209,0.2699 -1.340828,0.3954 -0.294426,0.0825 -0.584595,0.17863 -0.869837,0.2886 -0.05641,-0.007 -0.463401,0.23893 -0.228978,0.10577 -0.05834,0.1448 -0.2339,0.40103 -0.330245,0.57155 -0.318516,0.577 -0.58184,1.18184 -0.839092,1.7879 -0.255333,0.62491 -0.505438,1.25535 -0.657307,1.9144 -0.08006,0.40412 -0.05285,0.81511 -0.01339,1.22176 0.08875,0.64349 0.156761,1.28856 0.196028,1.93694 0.0445,0.86694 -0.04466,1.73137 -0.151837,2.59029 -0.103888,0.76356 -0.248491,1.52077 -0.324903,2.28788 -0.04835,0.61403 -0.03421,1.23056 -0.01873,1.84559 0.03417,0.76823 0.05615,1.53611 0.04568,2.30509 -0.02352,0.92136 -0.110064,1.83952 -0.192551,2.75702 -0.08139,0.89498 -0.164793,1.78977 -0.239382,2.68535 -0.07163,0.77914 -0.09452,1.56146 -0.05955,2.34296 0.01691,0.47092 0.139062,0.91234 0.345617,1.33238 0.202649,0.38664 0.478327,0.72634 0.769133,1.04924 0.306213,0.31078 0.649523,0.5818 0.989962,0.85355 0.37175,0.29753 0.751719,0.58402 1.146691,0.84997 0.378706,0.25251 0.809533,0.39954 1.240118,0.53544 0.696529,0.19826 1.406708,0.34317 2.114243,0.49566 0.921809,0.19039 1.832253,0.42943 2.736215,0.69061 0.990785,0.29405 1.95593,0.66539 2.912912,1.05363 0.938937,0.38351 1.855695,0.81742 2.766414,1.26293 0.90863,0.4556 1.817608,0.91044 2.730106,1.35826 0.956217,0.44902 1.895676,0.92782 2.786454,1.49645 0.7425,0.48356 1.410586,1.06195 2.023803,1.69888 0.572969,0.60409 0.989931,1.31471 1.317514,2.07461 0.230418,0.56397 0.364085,1.15869 0.494853,1.75153 0.104055,0.39847 0.02939,0.0577 -0.0467,-0.0661 -0.124725,-0.20282 -0.163359,-0.21488 -0.339725,-0.37545 -0.278522,-0.16546 0.568446,-0.0145 0.645178,-0.009 0.48441,0.0382 0.969595,0.0344 1.453528,-0.005 0.371465,-0.022 0.728409,-0.10084 1.074262,-0.23443 0.324929,-0.14225 0.613735,-0.34683 0.883044,-0.57495 0.359733,-0.32255 0.692772,-0.67348 1.006239,-1.04077 0.219824,-0.2593 0.393087,-0.55071 0.550207,-0.85071 0.220681,-0.47013 0.468482,-0.92361 0.746762,-1.36199 0.418587,-0.63477 0.916361,-1.21099 1.410002,-1.78741 0.513842,-0.59426 1.023234,-1.19232 1.547775,-1.7772 0.573543,-0.63839 1.19619,-1.22963 1.833446,-1.80347 0.694976,-0.62705 1.453883,-1.17396 2.242901,-1.67502 0.82262,-0.50503 1.69528,-0.91957 2.57186,-1.32058 0.7961,-0.36355 1.60607,-0.69537 2.40548,-1.05137 0.56059,-0.25015 1.09076,-0.5603 1.58166,-0.92811 0.27095,-0.19444 0.50343,-0.42033 0.67183,-0.7069 0.003,-0.12762 -0.0375,0.0857 -0.0527,-0.058 -0.0212,-0.26288 -0.074,-0.52096 -0.14709,-0.77391 -0.0681,-0.24411 -0.21019,-0.4529 -0.34841,-0.66162 -0.2877,-0.39432 -0.57206,-0.79045 -0.84238,-1.19697 -0.19016,-0.30545 -0.37394,-0.61013 -0.62901,-0.86494 -0.29988,-0.28033 -0.63592,-0.51852 -0.96757,-0.75918 -0.72116,-0.45834 -1.30412,-1.04741 -1.8041,-1.73503 -0.62017,-0.94182 -0.79704,-2.02767 -0.86223,-3.12941 -0.0353,-0.93248 0.0704,-1.86135 0.18377,-2.78509 0.1037,-0.80797 0.22201,-1.61398 0.34785,-2.41877 0.13297,-0.97671 0.41686,-1.91524 0.77988,-2.82836 0.43762,-0.98966 0.99672,-1.91852 1.55053,-2.846 0.46469,-0.74906 0.89578,-1.51673 1.28636,-2.30678 0.30233,-0.60509 0.54845,-1.23531 0.74681,-1.88145 0.12753,-0.38408 0.14343,-0.77866 0.13382,-1.17846 -0.0197,-0.46613 -0.0801,-0.9292 -0.144,-1.39094 -0.069,-0.27517 -0.0535,-0.60783 -0.20878,-0.85658 0.0199,0.13995 0.15517,0.226 0.2763,0.31504 0.35218,0.2104 0.74507,0.23277 1.13524,0.13752 -0.17005,0.12646 -0.3464,0.25221 -0.51638,0.38151 -0.44381,0.37216 -0.93791,0.65533 -1.4699,0.8795 -0.86859,0.32146 -1.73581,0.22143 -2.58422,-0.0938 -0.57207,-0.23728 -1.06998,-0.60687 -1.55571,-0.9838 -0.40524,-0.31805 -0.80318,-0.64519 -1.19678,-0.97749 -0.44301,-0.37669 -0.875143,-0.76587 -1.305456,-1.15692 -0.40332,-0.37031 -0.80481,-0.74278 -1.222674,-1.09673 -0.320794,-0.27264 -0.703427,-0.44935 -1.080789,-0.62771 -0.629753,-0.27448 -1.257929,-0.54508 -1.858367,-0.87996 -0.597739,-0.35844 -1.128101,-0.81222 -1.648664,-1.27211 -0.368514,-0.32052 -0.708025,-0.6747 -1.096306,-0.9719 -0.242033,-0.13378 -0.515146,-0.18292 -0.783955,-0.23199 -0.611015,-0.0907 -1.230651,-0.0956 -1.847011,-0.10875 -0.820838,0.002 -1.637919,-0.0488 -2.449772,-0.16826 -0.741516,-0.12543 -1.457359,-0.35806 -2.161487,-0.61653 -0.547211,-0.20781 -1.081786,-0.4468 -1.630479,-0.65069 -0.475144,-0.18015 -0.973428,-0.27511 -1.473388,-0.35402 -0.416954,-0.0599 -0.836104,-0.102 -1.255368,-0.1416 -3.192854,-0.30337 -2.763827,-4.81875 0.429027,-4.51538 v 0 c 0.517165,0.0494 1.034216,0.10196 1.548143,0.17907 0.795494,0.13006 1.585833,0.29648 2.341531,0.58402 0.541271,0.20363 1.072872,0.43061 1.610577,0.64329 0.41616,0.15466 0.837332,0.29956 1.273423,0.38769 0.617041,0.0994 1.241042,0.11329 1.865215,0.11774 0.883658,0.0191 1.77174,0.0376 2.643804,0.19673 0.966478,0.20243 1.903497,0.50888 2.698469,1.11726 0.448818,0.35868 0.870821,0.74648 1.292823,1.13609 0.288081,0.25526 0.577083,0.51135 0.893742,0.73122 0.48905,0.29948 1.048369,0.4624 1.557692,0.72276 0.732144,0.35029 1.4514,0.73392 2.06947,1.26776 0.45458,0.38768 0.89632,0.78979 1.33493,1.19542 0.38972,0.35422 0.78083,0.70703 1.18179,1.04855 0.347,0.2933 0.69805,0.58175 1.05517,0.86267 0.15162,0.11842 0.31123,0.23148 0.45827,0.35361 -0.25575,-0.0374 -0.50858,-0.0413 -0.7472,0.0763 -0.18223,0.11303 0.35592,-0.21247 0.37184,-0.26539 0.42747,-0.32373 0.8618,-0.64352 1.34495,-0.8807 0.96181,-0.41487 1.95488,-0.50704 2.91931,-0.0233 0.77234,0.47066 1.39903,1.06979 1.76033,1.91809 0.25912,0.64465 0.44054,1.31139 0.52392,2.00282 0.0887,0.6466 0.16867,1.29562 0.18602,1.94878 0.007,0.8774 -0.0687,1.75025 -0.33934,2.59077 -0.27504,0.87214 -0.60172,1.72711 -1.01297,2.54513 -0.44479,0.89493 -0.92899,1.76828 -1.45597,2.61773 -0.43442,0.72709 -0.87401,1.45364 -1.23895,2.21892 -0.24422,0.58842 -0.42,1.19737 -0.50427,1.83072 -0.11834,0.75585 -0.22941,1.51286 -0.32729,2.27165 -0.0814,0.65877 -0.1655,1.32049 -0.15647,1.98559 0.0123,0.27003 0.0146,0.55157 0.0756,0.81231 0.10693,0.29705 0.51305,0.42106 0.72738,0.62794 0.55355,0.40247 1.10704,0.81067 1.587,1.30148 0.42636,0.45578 0.80572,0.94541 1.12293,1.48405 0.27851,0.4206 0.58219,0.82277 0.86904,1.23761 0.38853,0.60549 0.7342,1.23883 0.91957,1.93938 0.16617,0.62709 0.29053,1.26564 0.3057,1.91648 -0.004,0.91209 -0.17841,1.78816 -0.67491,2.5696 -0.48777,0.73451 -1.07405,1.38327 -1.79508,1.8985 -0.75921,0.55139 -1.56198,1.0386 -2.42292,1.41646 -0.78569,0.34913 -1.58062,0.67702 -2.36354,1.03246 -0.6925,0.31611 -1.38387,0.63889 -2.0372,1.03146 -0.57552,0.35946 -1.12471,0.75889 -1.63078,1.21211 -0.51792,0.46449 -1.0241,0.94321 -1.490384,1.4602 -0.501677,0.55816 -0.986668,1.1309 -1.478254,1.69792 -0.361254,0.42162 -0.730041,0.83946 -1.044789,1.29784 -0.219403,0.32453 -0.372128,0.68514 -0.552659,1.03171 -0.318746,0.59388 -0.676182,1.16667 -1.116941,1.6792 -0.489273,0.56515 -1.004634,1.10927 -1.574559,1.59449 -0.674114,0.54185 -1.39614,1.02169 -2.21089,1.32773 -0.736563,0.259 -1.492192,0.44358 -2.274515,0.49144 -0.713176,0.0515 -1.428107,0.0622 -2.141598,0.004 -0.911244,-0.0716 -1.83292,-0.17081 -2.643947,-0.6317 -0.914082,-0.64704 -1.488368,-1.34094 -1.696873,-2.46359 -0.07208,-0.32693 -0.137174,-0.65692 -0.248076,-0.97354 -0.09972,-0.25943 -0.23105,-0.4976 -0.42173,-0.70368 -0.357124,-0.38516 -0.760286,-0.72068 -1.196563,-1.01362 -0.735359,-0.48344 -1.535779,-0.8508 -2.325348,-1.23567 -0.910924,-0.4471 -1.81855,-0.90076 -2.725439,-1.35598 -0.816515,-0.39974 -1.637924,-0.79017 -2.479619,-1.13469 -0.81111,-0.32992 -1.628611,-0.64709 -2.467811,-0.89924 -0.802503,-0.23309 -1.611323,-0.44455 -2.430037,-0.61338 -0.855038,-0.1843 -1.713243,-0.36089 -2.551567,-0.61304 -0.836467,-0.27355 -1.659025,-0.5966 -2.390214,-1.09622 -0.492567,-0.33481 -0.971003,-0.689 -1.435145,-1.06237 -0.542867,-0.4342 -1.083853,-0.87513 -1.553922,-1.38966 -0.584256,-0.66577 -1.122955,-1.37374 -1.502693,-2.1793 -0.424453,-0.96216 -0.714507,-1.96566 -0.748525,-3.02452 -0.03695,-0.96894 -0.01945,-1.93867 0.07144,-2.90466 0.0755,-0.90543 0.159538,-1.8101 0.241943,-2.71492 0.07238,-0.80474 0.149831,-1.60991 0.174818,-2.41785 0.01154,-0.70906 -0.01614,-1.4169 -0.04478,-2.12534 -0.01984,-0.80758 -0.03215,-1.61714 0.04117,-2.42271 0.08426,-0.80053 0.217461,-1.59337 0.336489,-2.38923 0.07401,-0.58325 0.14505,-1.1699 0.12418,-1.7591 -0.03357,-0.60133 -0.111361,-1.19745 -0.185457,-1.79488 -0.07804,-0.90449 -0.08447,-1.8151 0.124523,-2.70519 0.224706,-0.89432 0.526862,-1.76476 0.889379,-2.61297 0.329038,-0.77296 0.669514,-1.54266 1.081973,-2.27558 0.389364,-0.66983 0.807866,-1.33294 1.409005,-1.83577 0.450479,-0.33979 0.927404,-0.62743 1.462301,-0.81618 0.416859,-0.15846 0.839491,-0.30094 1.269318,-0.42039 0.311515,-0.0868 0.62575,-0.16442 0.934445,-0.26097 0.207425,-0.0732 0.404352,-0.17061 0.583636,-0.29915 0.426693,-0.29945 0.806069,-0.65886 1.18318,-1.01726 0.419446,-0.40383 0.832424,-0.81522 1.208783,-1.26018 0.373462,-0.44482 0.731078,-0.9026 1.080653,-1.3664 0.289878,-0.38749 0.576506,-0.7778 0.849056,-1.17772 0.153316,-0.23866 0.303803,-0.48036 0.425874,-0.73685 0.122996,-0.28055 0.231722,-0.56717 0.360574,-0.84518 0.184467,-0.38431 0.393165,-0.75671 0.651256,-1.09724 0.305631,-0.3985 0.639138,-0.7748 1.021715,-1.10191 0.366985,-0.3068 0.752951,-0.5885 1.172927,-0.81946 0.379182,-0.21702 0.762934,-0.4285 1.168387,-0.59315 0.437501,-0.16574 0.88661,-0.30261 1.355971,-0.33776 0.218172,-0.0137 0.436377,-0.0193 0.654991,-0.0161 3.207235,0 3.207235,4.53571 0,4.53571 z"
       inkscape:connector-curvature="0" />
    <path
       style="fill:#000000;stroke-width:0.26458332"
       id="path4076"
       d="m 72.796759,171.46171 c 0.06253,-0.0863 0.0029,0.0176 -0.01545,0.054 -0.0645,0.12427 -0.12015,0.25275 -0.174442,0.38171 -0.06119,0.14749 -0.119899,0.29602 -0.170445,0.44751 -0.04336,0.14483 -0.08059,0.29154 -0.11467,0.43882 -0.03909,0.16577 -0.06883,0.33345 -0.09116,0.50225 -0.01638,0.11547 -0.02387,0.23146 -0.015,0.34776 0.0092,0.12596 0.02564,0.25127 0.04385,0.37621 0.449353,3.1756 -4.041624,3.81108 -4.490976,0.63548 v 0 c -0.03881,-0.27856 -0.0731,-0.55803 -0.08531,-0.83924 -0.01167,-0.38137 -0.0013,-0.76287 0.05441,-1.14101 0.04355,-0.30908 0.09663,-0.6168 0.169111,-0.92057 0.06882,-0.28988 0.142357,-0.57904 0.236223,-0.86199 0.08719,-0.25375 0.181943,-0.50477 0.286485,-0.75193 0.09439,-0.22258 0.192323,-0.44373 0.302827,-0.65888 0.135051,-0.26502 0.279087,-0.52644 0.460163,-0.76347 1.946921,-2.5487 5.551321,0.20466 3.6044,2.75336 z"
       inkscape:connector-curvature="0" />
    <path
       style="fill:#000000;stroke-width:0.26458332"
       id="path4078"
       d="m 96.764159,187.41561 c 7.94e-4,0.0137 0.0013,0.0274 0.0024,0.0411 0.0069,0.0805 -0.01384,-0.16176 -0.0346,-0.23981 -0.0917,-0.34476 -0.10324,-0.31366 -0.287284,-0.65789 -0.455372,-0.65614 -1.082519,-0.84055 -1.848049,-0.85506 -0.369385,0.0424 -0.698849,0.17572 -0.982562,0.41401 0.110374,-0.13352 0.214609,-0.2717 0.317474,-0.41106 0.156707,-0.21606 0.307406,-0.43637 0.460584,-0.65492 1.841087,-2.62616 5.555046,-0.0225 3.713959,2.60369 v 0 c -0.1753,0.24998 -0.347523,0.50215 -0.527966,0.74848 -0.22063,0.29783 -0.446275,0.59288 -0.700246,0.86346 -0.490527,0.48894 -1.051364,0.84381 -1.750904,0.94094 -0.985171,0.006 -1.807824,-0.24177 -2.41223,-1.06879 -0.278762,-0.49385 -0.493276,-0.99426 -0.483764,-1.57135 -0.108048,-3.20541 4.42509,-3.35821 4.533138,-0.1528 z"
       inkscape:connector-curvature="0" />
    <path
       style="fill:#000000;stroke-width:0.26458332"
       id="path4080"
       d="m 94.661716,156.38472 c 0.204484,0.0174 0.407525,-0.0169 0.600141,-0.0841 0.0011,0.0156 -0.202771,0.16425 -0.275087,0.2203 -0.07502,0.0605 -0.15417,0.11835 -0.215484,0.19268 0.286443,-0.32528 0.34817,-0.75348 0.332605,-1.16886 -0.06188,-0.31207 -0.05725,-0.27747 0.05806,-0.0268 0.272693,0.56286 0.357685,1.17164 0.370078,1.78979 -0.01423,0.58192 -0.137533,1.15204 -0.272243,1.71582 -0.137692,0.57561 -0.332301,1.13435 -0.549513,1.6841 -0.219678,0.54584 -0.490829,1.06833 -0.77212,1.58435 -0.226545,0.42297 -0.482677,0.82795 -0.752872,1.22404 -1.813338,2.6454 -5.554504,0.081 -3.741164,-2.56445 v 0 c 0.185632,-0.26873 0.359286,-0.54473 0.513067,-0.8332 0.194387,-0.35529 0.385043,-0.71347 0.539102,-1.08853 0.14024,-0.34786 0.264692,-0.70197 0.353512,-1.06684 0.05345,-0.2202 0.100688,-0.44682 0.146529,-0.66595 0.0085,0.0284 0.07704,0.22592 0.0444,0.11512 -0.182626,-0.39766 -0.366781,-0.79723 -0.428341,-1.23578 -0.06894,-0.83399 0.07241,-1.62448 0.61441,-2.2929 0.292108,-0.35592 0.617709,-0.67827 0.988345,-0.95299 0.347554,-0.26762 0.701435,-0.53104 1.096809,-0.72512 0.506709,-0.22702 1.035352,-0.38556 1.597933,-0.34961 3.202429,0.17547 2.954271,4.70439 -0.248161,4.52892 z"
       inkscape:connector-curvature="0" />
    <path
       style="fill:#000000;stroke-width:0.26458332"
       id="path4082"
       d="m 83.259365,162.86783 c 0.118605,0.19287 0.224629,0.39299 0.329293,0.59364 0.01304,0.053 0.107235,0.17357 0.108677,0.17539 0.113372,0.085 0.316357,0.28374 0.446189,0.40693 0.461102,0.41932 0.803976,0.93086 1.084902,1.48243 0.216236,0.45243 0.342067,0.93782 0.468929,1.4205 0.05841,0.21941 0.180719,0.41445 0.279101,0.61789 0.320964,0.6806 0.430403,1.42326 0.509805,2.16348 0.0088,0.10215 0.01762,0.2043 0.02643,0.30644 0.270732,3.19579 -4.248793,3.57866 -4.519526,0.38288 v 0 c -0.0059,-0.0713 -0.01177,-0.14259 -0.01765,-0.21389 -0.02331,-0.22705 -0.04202,-0.45657 -0.0899,-0.67986 -0.217874,-0.46412 -0.462701,-0.91875 -0.575109,-1.42437 -0.05143,-0.19581 -0.100097,-0.39252 -0.159417,-0.58607 -0.0013,-0.0306 -0.05605,-0.13296 -0.13366,-0.18304 -0.298193,-0.28473 -0.614669,-0.55258 -0.874082,-0.87516 -0.217374,-0.28322 -0.41855,-0.57752 -0.57744,-0.89824 -0.05968,-0.11483 -0.118806,-0.23017 -0.186862,-0.34034 -1.660716,-2.74379 2.219589,-5.0924 3.880302,-2.34861 z"
       inkscape:connector-curvature="0" />
  </g>
</svg>
