<?xml version="1.0" encoding="UTF-8" standalone="no"?>
<!-- Created with Inkscape (http://www.inkscape.org/) -->

<svg
   xmlns:dc="http://purl.org/dc/elements/1.1/"
   xmlns:cc="http://creativecommons.org/ns#"
   xmlns:rdf="http://www.w3.org/1999/02/22-rdf-syntax-ns#"
   xmlns:svg="http://www.w3.org/2000/svg"
   xmlns="http://www.w3.org/2000/svg"
   xmlns:sodipodi="http://sodipodi.sourceforge.net/DTD/sodipodi-0.dtd"
   xmlns:inkscape="http://www.inkscape.org/namespaces/inkscape"
   width="96.67495"
   height="99.02903"
   viewBox="0 0 25.578582 26.201432"
   version="1.1"
   id="svg4072"
   inkscape:version="0.92.3 (2405546, 2018-03-11)"
   sodipodi:docname="default-debris.svg">
  <defs
     id="defs4066" />
  <sodipodi:namedview
     id="base"
     pagecolor="#ffffff"
     bordercolor="#666666"
     borderopacity="1.0"
     inkscape:pageopacity="0.0"
     inkscape:pageshadow="2"
     inkscape:zoom="3.959798"
     inkscape:cx="82.972401"
     inkscape:cy="65.346969"
     inkscape:document-units="mm"
     inkscape:current-layer="layer1"
     showgrid="false"
     units="px"
     inkscape:window-width="1920"
     inkscape:window-height="1027"
     inkscape:window-x="-8"
     inkscape:window-y="-8"
     inkscape:window-maximized="1"
     fit-margin-top="0"
     fit-margin-left="0"
     fit-margin-right="0"
     fit-margin-bottom="0" />
  <metadata
     id="metadata4069">
    <rdf:RDF>
      <cc:Work
         rdf:about="">
        <dc:format>image/svg+xml</dc:format>
        <dc:type
           rdf:resource="http://purl.org/dc/dcmitype/StillImage" />
        <dc:title></dc:title>
      </cc:Work>
    </rdf:RDF>
  </metadata>
  <g
     inkscape:label="Layer 1"
     inkscape:groupmode="layer"
     id="layer1"
     transform="translate(-4.8764495,-88.903741)">
    <path
       style="fill:#000000;stroke-width:0.4845202"
       id="path4086"
       d="m 12.408232,89.386322 c -0.01117,0.0077 -0.02235,0.01557 -0.0335,0.02327 -0.01049,0.0071 -0.02088,0.01428 -0.03112,0.02168 -0.01417,0.01007 -0.02819,0.02053 -0.04224,0.03087 -0.02029,0.0152 -0.04065,0.03047 -0.06119,0.04543 -0.03004,0.02174 -0.0601,0.04344 -0.09038,0.06483 -0.03558,0.02502 -0.07143,0.04965 -0.107314,0.07422 -0.03767,0.0254 -0.07484,0.05148 -0.11162,0.07814 -0.04068,0.03011 -0.08042,0.06148 -0.119882,0.09316 -0.04009,0.03214 -0.07677,0.06832 -0.113395,0.10429 -0.04131,0.03946 -0.07989,0.08151 -0.117517,0.124452 -0.04081,0.04692 -0.08049,0.09479 -0.119567,0.143168 -0.03955,0.04816 -0.07612,0.09858 -0.111963,0.149522 -0.0404,0.05831 -0.08034,0.116926 -0.120167,0.175636 -0.04167,0.06149 -0.08322,0.123097 -0.124894,0.184596 -0.04626,0.06968 -0.09472,0.137857 -0.143577,0.205735 -0.05722,0.08078 -0.117943,0.158971 -0.178499,0.237248 -0.06743,0.08752 -0.134273,0.17549 -0.200913,0.263626 -0.06583,0.08693 -0.130573,0.174629 -0.192541,0.264357 -0.06196,0.08982 -0.120949,0.181588 -0.17775,0.274747 -0.05399,0.0873 -0.09765,0.180471 -0.139294,0.274129 -0.04204,0.08669 -0.06365,0.179976 -0.082654,0.27376 -0.02372,0.0968 -0.025354,0.195443 -0.023371,0.294405 0.00489,0.11993 0.012562,0.239721 0.01912,0.359566 0.007,0.123537 0.011335,0.247185 0.014485,0.37087 0.00278,0.124086 0.0014,0.24821 -0.00205,0.372262 -4.714e-4,0.136813 -0.019258,0.271846 -0.046054,0.405685 -0.027119,0.133664 -0.063091,0.265179 -0.1018308,0.395871 -0.038363,0.127254 -0.078323,0.254017 -0.1178615,0.380907 -0.038764,0.124141 -0.076739,0.248533 -0.1144609,0.372996 -0.036918,0.121687 -0.072098,0.24389 -0.1064694,0.366319 -0.03243,0.118391 -0.059726,0.238095 -0.085315,0.358128 -0.025683,0.120515 -0.048409,0.241605 -0.069927,0.362915 -0.020618,0.118647 -0.038682,0.237723 -0.055306,0.356991 -0.01639,0.119435 -0.031097,0.239089 -0.046373,0.358668 -0.015181,0.120808 -0.032668,0.241281 -0.051286,0.361593 -0.017965,0.118629 -0.038352,0.236851 -0.060763,0.354711 -0.022993,0.12187 -0.051361,0.2425 -0.084967,0.361844 -0.035644,0.121906 -0.074474,0.242914 -0.1208136,0.36118 -0.053539,0.138608 -0.1303379,0.265459 -0.2096834,0.390382 -0.079273,0.125533 -0.1646154,0.246998 -0.2509403,0.367735 -0.087593,0.121083 -0.1758685,0.241655 -0.2631621,0.36295 -0.084258,0.117127 -0.1673422,0.235094 -0.2490576,0.354014 -0.07766,0.11266 -0.151879,0.22763 -0.2253951,0.34302 -0.069273,0.10817 -0.1348812,0.21858 -0.1989487,0.32988 -0.059948,0.10437 -0.116717,0.21049 -0.1714423,0.31766 -0.047541,0.0896 -0.087345,0.18282 -0.1178817,0.27946 -0.028084,0.0851 -0.040744,0.17366 -0.053077,0.26203 -0.01216,0.0916 -0.020398,0.18361 -0.027117,0.27574 -0.00681,0.0858 -0.010017,0.1717 -0.00883,0.25773 0.00214,0.0876 0.00624,0.17512 0.00857,0.26272 0.00308,0.093 1.39e-4,0.18594 -0.00663,0.27871 -0.00289,0.11733 -0.043348,0.22466 -0.096104,0.3277 -0.047977,0.0913 -0.11128,0.17269 -0.1792856,0.24974 -0.073785,0.0828 -0.1601599,0.15161 -0.251883,0.21322 -0.1182205,0.0703 -0.2491674,0.11406 -0.3782866,0.15943 -0.1098443,0.0382 -0.2192683,0.0774 -0.3279701,0.11871 -0.097656,0.037 -0.1939113,0.0774 -0.2893517,0.11971 -0.068046,0.0333 -0.1412779,0.0583 -0.2002927,0.10663 -0.0059,0.005 -0.034728,0.0305 -0.039202,0.0367 -0.00244,0.003 0.00641,-0.006 0.010511,-0.007 0.00179,-2.4e-4 -1.073e-4,0.004 -6.591e-4,0.005 -0.00388,0.0121 -0.00895,0.0237 -0.013167,0.0357 -0.00797,0.0174 9.689e-4,0.0625 0.00798,0.10772 0.014687,0.0852 0.035569,0.16924 0.054013,0.25369 0.020825,0.0949 0.039346,0.19023 0.056285,0.28588 0.01628,0.0938 0.030452,0.18798 0.043254,0.28234 0.013698,0.0959 0.020924,0.19241 0.026304,0.28906 0.00487,0.091 0.00835,0.182 0.011848,0.27304 0.00331,0.0898 0.00667,0.17956 0.010676,0.26932 0.00333,0.0882 0.00914,0.17627 0.016152,0.26427 0.00701,0.0895 0.016536,0.17886 0.02973,0.26769 0.014961,0.0958 0.033855,0.19093 0.053209,0.28593 0.017067,0.0972 0.04662,0.19117 0.078433,0.28434 0.038129,0.1096 0.080399,0.21769 0.1235257,0.32541 0.043441,0.11074 0.091167,0.21933 0.1459036,0.32491 0.065418,0.12236 0.1328156,0.24369 0.2031597,0.36329 0.077345,0.12993 0.156404,0.25882 0.2349736,0.388 0.079074,0.12949 0.156708,0.25984 0.23354,0.39067 0.073879,0.12671 0.1465483,0.25412 0.2198218,0.38118 0.070408,0.12201 0.1426202,0.24295 0.2156725,0.36341 0.071377,0.11848 0.1446566,0.23563 0.2186564,0.35239 0.07236,0.11281 0.1435523,0.22631 0.2209652,0.33567 0.081097,0.11207 0.1668312,0.22057 0.2529996,0.32871 0.087796,0.11006 0.1790567,0.21741 0.2710202,0.32406 0.092473,0.10695 0.1873719,0.21182 0.2838264,0.31523 0.097359,0.1042 0.1974634,0.20574 0.2986368,0.30623 0.1020047,0.10108 0.2065425,0.1996 0.3120431,0.29704 0.1061287,0.098 0.2148794,0.19304 0.3243752,0.2872 0.1100604,0.095 0.2260867,0.18276 0.3416964,0.27073 0.1164185,0.0883 0.2337353,0.17544 0.350919,0.26273 0.109914,0.0822 0.21988,0.16427 0.329335,0.24702 0.100948,0.0762 0.201317,0.15309 0.301069,0.23079 0.09192,0.07 0.179167,0.14559 0.265457,0.22215 0.07519,0.0674 0.148828,0.13643 0.221823,0.20624 0.06658,0.0641 0.131626,0.12965 0.197763,0.19422 0.06288,0.0613 0.127195,0.12123 0.191881,0.18075 0.06377,0.059 0.129607,0.11555 0.196527,0.17067 0.06523,0.0515 0.128679,0.10603 0.199577,0.14962 0.07939,0.0476 0.1623,0.089 0.245735,0.1291 0.08983,0.0429 0.181866,0.0806 0.274554,0.11665 0.08964,0.0359 0.180401,0.067 0.274784,0.0874 0.102458,0.0245 0.20766,0.0284 0.312422,0.0326 0.114227,0.007 0.227986,0.002 0.34182,-0.007 0.121828,-0.011 0.243212,-0.0258 0.364443,-0.0418 0.119665,-0.0165 0.23891,-0.035 0.357982,-0.0549 0.11472,-0.0194 0.228974,-0.0412 0.342732,-0.0656 0.110498,-0.024 0.220324,-0.0509 0.330026,-0.0782 0.104454,-0.0262 0.208486,-0.054 0.312443,-0.082 0.0977,-0.0264 0.195093,-0.0537 0.292575,-0.0808 0.09262,-0.026 0.185579,-0.0507 0.27862,-0.0753 0.08929,-0.0233 0.17917,-0.0445 0.269356,-0.0641 0.0853,-0.0187 0.171241,-0.0341 0.257387,-0.0482 0.08424,-0.0147 0.169135,-0.0233 0.254233,-0.03 0.08457,-0.007 0.169355,-0.009 0.254128,-0.007 0.08451,0.004 0.168256,0.0165 0.251525,0.0304 0.07843,0.0147 0.156041,0.0319 0.233414,0.0507 0.08376,0.0207 0.165619,0.0483 0.247406,0.0758 0.08001,0.0269 0.159723,0.0548 0.239358,0.083 0.08006,0.0282 0.160181,0.0562 0.24036,0.0841 0.08169,0.0286 0.16366,0.0564 0.245777,0.0837 0.08232,0.0299 0.167578,0.0496 0.252756,0.0692 0.09629,0.0222 0.193413,0.0403 0.290699,0.0573 0.09501,0.0165 0.191509,0.0267 0.287901,0.0273 0.10852,-0.002 0.21727,-0.007 0.325096,-0.0194 0.111084,-0.0147 0.2218,-0.0341 0.330947,-0.0599 0.110022,-0.0275 0.218551,-0.0604 0.326399,-0.0952 0.105133,-0.0346 0.208722,-0.0734 0.311287,-0.11501 0.09387,-0.0375 0.185429,-0.0795 0.272663,-0.13057 0.08731,-0.0518 0.170655,-0.10987 0.252686,-0.16957 0.08118,-0.0595 0.158898,-0.12361 0.235324,-0.18906 0.07484,-0.0643 0.146372,-0.1324 0.216579,-0.2016 0.06895,-0.0687 0.135092,-0.13991 0.200519,-0.21186 0.06331,-0.0683 0.122475,-0.13991 0.180837,-0.21235 0.05876,-0.0734 0.118738,-0.14577 0.179939,-0.21717 0.05811,-0.0683 0.120277,-0.13295 0.183985,-0.19602 0.05973,-0.0595 0.123628,-0.11445 0.189295,-0.16738 0.06402,-0.0513 0.132528,-0.0963 0.203176,-0.13789 0.08006,-0.05 0.16767,-0.0806 0.259314,-0.10109 0.10092,-0.0223 0.204383,-0.011 0.305788,0.001 0.0844,0.011 0.168311,0.0242 0.252137,0.0383 0.08569,0.0147 0.17104,0.031 0.256453,0.0469 0.09087,0.0165 0.181935,0.0333 0.273244,0.048 0.08823,0.0183 0.177943,0.0194 0.267556,0.0201 0.100005,7.3e-4 0.198796,-0.0229 0.296,-0.0443 0.116908,-0.0262 0.231878,-0.0599 0.34591,-0.0963 0.10874,-0.0406 0.224884,-0.0692 0.325486,-0.12855 0.117677,-0.0731 0.226823,-0.15877 0.33521,-0.24471 0.119453,-0.0952 0.234218,-0.19593 0.34745,-0.29835 0.113263,-0.10292 0.222335,-0.21032 0.328975,-0.32005 0.105773,-0.10475 0.196411,-0.22255 0.285912,-0.34098 0.09127,-0.1216 0.177943,-0.24664 0.262697,-0.37288 0.08193,-0.1161 0.151922,-0.23916 0.217155,-0.36523 0.06406,-0.12306 0.122071,-0.24901 0.177668,-0.37607 0.05347,-0.12342 0.105224,-0.24751 0.156811,-0.3717 0.04988,-0.12087 0.100701,-0.24138 0.153056,-0.36121 0.05109,-0.11703 0.105133,-0.23274 0.160455,-0.34783 0.05446,-0.1132 0.112604,-0.22457 0.172212,-0.33514 0.05942,-0.11059 0.123243,-0.2187 0.189201,-0.32549 0.06688,-0.10812 0.138517,-0.21315 0.211897,-0.31694 0.07591,-0.1081 0.157452,-0.21195 0.240746,-0.3144 0.08686,-0.10674 0.177724,-0.2101 0.26932,-0.31278 0.104674,-0.11742 0.215306,-0.22925 0.323109,-0.34374 0.119892,-0.12385 0.231064,-0.25553 0.340755,-0.38837 0.108575,-0.13136 0.211955,-0.2668 0.313194,-0.40384 0.0923,-0.11131 0.16018,-0.2318 0.211166,-0.36607 0.0068,-0.0205 0.03688,-0.10799 0.04069,-0.1291 0.0057,-0.0318 -0.01855,-0.14974 -0.02434,-0.18324 -0.02468,-0.12815 -0.09484,-0.24301 -0.157561,-0.35598 -0.07417,-0.13634 -0.164575,-0.26251 -0.254492,-0.38866 -0.09343,-0.12892 -0.186426,-0.25814 -0.277668,-0.38862 -0.08874,-0.12729 -0.176259,-0.25557 -0.250525,-0.39191 -0.06538,-0.12978 -0.108191,-0.26867 -0.143223,-0.40918 -0.03139,-0.12878 -0.04393,-0.26066 -0.04717,-0.39282 -0.0024,-0.13008 0.0163,-0.25863 0.04289,-0.38552 0.02963,-0.1363 0.0777,-0.26657 0.141959,-0.39 0.07347,-0.12381 0.160931,-0.23848 0.248538,-0.35247 0.08343,-0.10779 0.169685,-0.21336 0.256243,-0.31864 0.08263,-0.0995 0.163275,-0.20056 0.242656,-0.30263 0.07178,-0.0924 0.138553,-0.18861 0.202695,-0.28647 0.05616,-0.0864 0.106487,-0.17644 0.151243,-0.26928 0.03787,-0.0774 0.0651,-0.15888 0.08548,-0.2424 0.0022,-0.0119 0.01154,-0.0469 0.0068,-0.0357 -0.0057,0.0132 -0.0082,0.0278 -0.0095,0.0422 -0.0011,0.013 0.01044,0.0283 0.0027,0.0388 -0.0049,0.007 -0.01209,-0.0117 -0.01795,-0.0179 -0.06499,-0.0668 -0.0012,-0.004 -0.0764,-0.077 -0.103521,-0.098 -0.214316,-0.18775 -0.326303,-0.27577 -0.123701,-0.0964 -0.251464,-0.187349 -0.37996,-0.277172 -0.133975,-0.09314 -0.269876,-0.183417 -0.406351,-0.272817 -0.138369,-0.09089 -0.278078,-0.17972 -0.417651,-0.268737 -0.139871,-0.08858 -0.279543,-0.177431 -0.418144,-0.267974 -0.135733,-0.0888 -0.269678,-0.180287 -0.402864,-0.272844 -0.130733,-0.09176 -0.261507,-0.183637 -0.385816,-0.284006 -0.118318,-0.09978 -0.230455,-0.206553 -0.341059,-0.314724 -0.104235,-0.102275 -0.204856,-0.208097 -0.303683,-0.315564 -0.09612,-0.105022 -0.19026,-0.211867 -0.279818,-0.322554 -0.08614,-0.108832 -0.169062,-0.220165 -0.252065,-0.331395 -0.07946,-0.106689 -0.159869,-0.21267 -0.24077,-0.31826 -0.07862,-0.103246 -0.160547,-0.203914 -0.243389,-0.303785 -0.08263,-0.09936 -0.168293,-0.196112 -0.255215,-0.29172 -0.08724,-0.09588 -0.178182,-0.188297 -0.270396,-0.279378 -0.09316,-0.09217 -0.190493,-0.179866 -0.289529,-0.265626 -0.101324,-0.08737 -0.206423,-0.17016 -0.312994,-0.250976 -0.107018,-0.08429 -0.221538,-0.157286 -0.338383,-0.22692 -0.129928,-0.077 -0.26554,-0.143918 -0.400304,-0.211952 -0.138992,-0.06975 -0.278589,-0.138333 -0.417843,-0.207574 -0.134836,-0.06706 -0.268944,-0.135568 -0.402141,-0.205821 -0.127016,-0.06726 -0.252519,-0.137308 -0.376219,-0.210485 -0.118207,-0.06884 -0.228015,-0.150767 -0.336772,-0.233406 -0.103685,-0.07354 -0.194609,-0.161902 -0.283226,-0.252487 -0.07092,-0.07338 -0.142123,-0.146445 -0.21457,-0.218317 -0.06512,-0.06386 -0.131136,-0.126833 -0.199741,-0.18694 -0.06309,-0.05488 -0.12914,-0.106231 -0.196255,-0.15606 -0.06296,-0.04679 -0.129049,-0.08905 -0.196081,-0.129708 -0.06001,-0.02906 -0.115717,-0.076 -0.18069,-0.09372 -0.06325,-0.02247 -0.129067,-0.03069 -0.195371,-0.03761 -0.0864,-0.0079 -0.173091,-0.01117 -0.259786,-0.01319 -0.09063,-0.0018 -0.181276,-0.0031 -0.271923,-0.0046 -0.0866,-0.0013 -0.173164,-0.0042 -0.259706,-0.0075 -0.07946,-0.0031 -0.158843,-0.0073 -0.238208,-0.01209 -0.0757,-0.0044 -0.151243,-0.0099 -0.226299,-0.02084 -0.06175,-0.0093 -0.122859,-0.02214 -0.183586,-0.03657 -0.05422,-0.013 -0.107586,-0.02913 -0.160454,-0.04673 -0.04814,-0.01611 -0.09526,-0.03512 -0.141813,-0.05538 -0.04776,-0.02069 -0.09398,-0.04448 -0.138718,-0.07102 -0.04219,-0.02653 -0.08164,-0.05706 -0.121211,-0.08728 -0.03452,-0.02675 -0.06919,-0.05331 -0.104015,-0.07964 -0.03472,-0.02635 -0.07021,-0.05164 -0.10603,-0.07647 -0.03617,-0.02452 -0.07675,-0.04221 -0.116138,-0.06102 -0.05342,-0.02566 -0.108118,-0.04847 -0.16322,-0.07021 -0.0601,-0.02364 -0.121028,-0.04505 -0.182412,-0.06508 -0.06591,-0.02172 -0.132748,-0.04032 -0.199744,-0.05834 -0.07037,-0.01861 -0.141318,-0.03496 -0.212585,-0.04966 -0.07695,-0.01593 -0.154357,-0.02926 -0.231891,-0.04195 -0.08186,-0.013 -0.163971,-0.02458 -0.24613,-0.03554 -0.08547,-0.01135 -0.171094,-0.02148 -0.256731,-0.03146 -0.08808,-0.01007 -0.176277,-0.01912 -0.264426,-0.02855 -0.09607,-0.01044 -0.192021,-0.02157 -0.287764,-0.03452 -0.09653,-0.01337 -0.192736,-0.02903 -0.28855,-0.04683 -0.09365,-0.01758 -0.18659,-0.03858 -0.27921,-0.06091 -0.09634,-0.02119 -0.189729,-0.05274 -0.28185,-0.08761 -0.08982,-0.03234 -0.174208,-0.07673 -0.257514,-0.122877 -0.07391,-0.04118 -0.145493,-0.08636 -0.216388,-0.132491 -0.06827,-0.04498 -0.135788,-0.0911 -0.200635,-0.140897 -0.06276,-0.04968 -0.122822,-0.102569 -0.180873,-0.157635 -0.05173,-0.04996 -0.101964,-0.101415 -0.152983,-0.152086 -0.04642,-0.04635 -0.0944,-0.0911 -0.142824,-0.135348 -0.04873,-0.04444 -0.09882,-0.08733 -0.148108,-0.131137 -0.05202,-0.04655 -0.10223,-0.09506 -0.151376,-0.144614 -0.04933,-0.04941 -0.0945,-0.102642 -0.139076,-0.156279 -0.03475,-0.04307 -0.07101,-0.08481 -0.10892,-0.125112 -0.03622,-0.03866 -0.07441,-0.07536 -0.113263,-0.11134 -0.03789,-0.03536 -0.07779,-0.06845 -0.118206,-0.100866 -0.03759,-0.03139 -0.0778,-0.05891 -0.119154,-0.08499 -0.04401,-0.02679 -0.08825,-0.05356 -0.1349,-0.07556 -0.05505,-0.02542 -0.111166,-0.04844 -0.167322,-0.07127 -0.05796,-0.02342 -0.116523,-0.04532 -0.175293,-0.06664 -0.05466,-0.02002 -0.110343,-0.03701 -0.166052,-0.0538 -0.05376,-0.01593 -0.107804,-0.03095 -0.161949,-0.04554 -0.04992,-0.01318 -0.100069,-0.02556 -0.1503,-0.03754 -0.04628,-0.01117 -0.09277,-0.02132 -0.139302,-0.03128 -0.03887,-0.0084 -0.07813,-0.01483 -0.117422,-0.02082 -0.0358,-0.0055 -0.07171,-0.01026 -0.107757,-0.01392 -0.02278,-0.0022 -0.04569,-0.0033 -0.06853,-0.0017 -0.01595,0.0012 -0.03153,0.0046 -0.04706,0.0082 -0.015,0.0035 -0.0295,0.0088 -0.04374,0.01447 -0.0017,0.01081 0.04037,-0.0221 0.04477,-0.02489 -0.0098,0.01245 -0.01225,0.01947 -0.0195,0.03337 -0.01588,0.03122 -0.03301,0.06177 -0.05128,0.09164 -0.01835,0.02967 -0.0389,0.05787 -0.06056,0.08517 -0.01183,0.01483 -0.02491,0.02842 -0.03804,0.04201 -0.256674,0.262423 -0.627796,-0.100573 -0.371122,-0.362992 v 0 c 0.0016,-0.0015 0.0032,-0.0029 0.0048,-0.0046 0.0083,-0.01044 0.01626,-0.02121 0.02335,-0.03256 0.01225,-0.01915 0.02244,-0.03956 0.03305,-0.05964 0.02196,-0.04179 0.04585,-0.08257 0.07591,-0.11916 0.04633,-0.05556 0.09907,-0.105718 0.168503,-0.131447 0.03834,-0.01483 0.07731,-0.02829 0.117495,-0.03738 0.04502,-0.01026 0.09053,-0.01837 0.136722,-0.02084 0.04914,-0.0022 0.09835,-0.0016 0.147308,0.0037 0.04509,0.0046 0.09008,0.01026 0.134869,0.0174 0.04921,0.0077 0.09837,0.01575 0.147055,0.02628 0.05044,0.0108 0.100826,0.02188 0.150984,0.03393 0.05515,0.01319 0.110208,0.02672 0.165003,0.04128 0.05907,0.01593 0.11804,0.03229 0.176678,0.04976 0.06482,0.01956 0.129571,0.0395 0.19317,0.06279 0.06501,0.02361 0.129798,0.04785 0.193914,0.0738 0.06666,0.02714 0.133253,0.05454 0.198417,0.08514 0.06371,0.03137 0.125666,0.06609 0.185786,0.103905 0.05763,0.03657 0.113721,0.07534 0.166452,0.118775 0.05,0.04016 0.09928,0.08125 0.146193,0.12502 0.04764,0.04419 0.09441,0.08931 0.138842,0.136759 0.04503,0.04803 0.08842,0.09751 0.129794,0.148753 0.03489,0.04205 0.06998,0.084 0.108611,0.122694 0.04131,0.04183 0.08371,0.08261 0.127418,0.121907 0.05104,0.0454 0.102954,0.08977 0.153368,0.135879 0.05375,0.04913 0.106964,0.09885 0.158514,0.150291 0.04831,0.048 0.09592,0.09667 0.144779,0.14412 0.04531,0.04318 0.09233,0.08446 0.141208,0.123574 0.05303,0.04181 0.110004,0.07836 0.165894,0.116175 0.0606,0.0395 0.121724,0.07823 0.184884,0.113538 0.0616,0.03423 0.1235,0.0681 0.190196,0.09162 0.07155,0.02736 0.144047,0.0521 0.219082,0.0682 0.08378,0.02022 0.167854,0.0393 0.252591,0.05523 0.08739,0.0163 0.175178,0.03045 0.263216,0.04276 0.0909,0.01227 0.182045,0.02287 0.273244,0.03276 0.08977,0.0095 0.179591,0.01888 0.269297,0.0291 0.08852,0.01026 0.177028,0.02073 0.265371,0.03254 0.08724,0.01172 0.174428,0.02388 0.261337,0.03782 0.08468,0.01392 0.169245,0.02855 0.253294,0.04593 0.08116,0.01685 0.161975,0.0354 0.242096,0.0567 0.07592,0.02044 0.151647,0.04166 0.226347,0.06627 0.07124,0.02335 0.141996,0.04818 0.211756,0.07569 0.06626,0.02622 0.132015,0.05373 0.196261,0.0846 0.0645,0.03086 0.129635,0.06162 0.18827,0.102916 0.04162,0.0289 0.08286,0.05833 0.123244,0.08896 0.03542,0.02679 0.07071,0.05378 0.10581,0.081 0.02549,0.01947 0.05076,0.03924 0.07735,0.05721 0.02415,0.0141 0.04948,0.02659 0.07517,0.03789 0.03238,0.0141 0.06514,0.02747 0.09863,0.03879 0.03838,0.01282 0.07711,0.02467 0.116468,0.03417 0.04595,0.01099 0.09219,0.02084 0.138919,0.02796 0.06049,0.0092 0.121577,0.01227 0.182595,0.0163 0.07554,0.0048 0.151133,0.0086 0.226779,0.01154 0.08239,0.0033 0.164813,0.006 0.24726,0.0071 0.09197,0.0014 0.183924,0.0027 0.275879,0.0046 0.10103,0.0024 0.202032,0.0064 0.302672,0.01593 0.110059,0.0119 0.219275,0.02965 0.323653,0.06812 0.0929,0.03725 0.181331,0.08371 0.266906,0.135733 0.08081,0.04913 0.160399,0.100298 0.236318,0.156792 0.0784,0.05834 0.155547,0.118409 0.229189,0.182705 0.07633,0.06723 0.15031,0.137051 0.222754,0.208432 0.07429,0.07374 0.147416,0.148624 0.22013,0.223917 0.07083,0.07252 0.142527,0.144065 0.226172,0.202104 0.09281,0.07059 0.186163,0.141154 0.287047,0.199954 0.116358,0.06893 0.234518,0.134725 0.354021,0.198067 0.129506,0.06834 0.259934,0.134908 0.391037,0.200132 0.140183,0.06972 0.280725,0.138736 0.420649,0.20898 0.14564,0.07353 0.292024,0.146097 0.432309,0.229548 0.133297,0.07959 0.263855,0.163348 0.386236,0.259203 0.115461,0.08766 0.229356,0.177413 0.339112,0.272162 0.10755,0.09323 0.213265,0.188546 0.314455,0.288688 0.09881,0.09764 0.196224,0.196716 0.289703,0.299506 0.09217,0.101434 0.183016,0.204065 0.270636,0.309481 0.08709,0.105023 0.1732,0.210895 0.25588,0.319452 0.08224,0.107348 0.163989,0.215081 0.24476,0.323534 0.07907,0.105956 0.158038,0.21203 0.23997,0.315813 0.08228,0.102257 0.169666,0.200251 0.258033,0.297273 0.09259,0.100756 0.186904,0.199942 0.284554,0.295829 0.09914,0.09706 0.199631,0.192868 0.305311,0.282839 0.113593,0.09301 0.235281,0.175563 0.354802,0.260684 0.129104,0.08973 0.258938,0.178437 0.390512,0.264517 0.137015,0.08951 0.275112,0.177321 0.413374,0.264896 0.141354,0.09015 0.282828,0.18014 0.422965,0.272174 0.140842,0.09228 0.281091,0.185462 0.419329,0.281601 0.136465,0.09543 0.272108,0.192136 0.403431,0.294584 0.127035,0.09997 0.252577,0.202116 0.36955,0.313857 0.149229,0.14786 0.296982,0.31717 0.234025,0.54519 -0.02987,0.11808 -0.06821,0.2337 -0.122053,0.34326 -0.05492,0.11279 -0.115699,0.2226 -0.184378,0.32767 -0.07188,0.1094 -0.146556,0.21699 -0.226942,0.32036 -0.08228,0.10574 -0.165802,0.2105 -0.251408,0.31357 -0.08298,0.10092 -0.165692,0.20208 -0.245698,0.30538 -0.07124,0.0926 -0.142399,0.18558 -0.2044,0.28473 -0.04686,0.0751 -0.0662,0.16506 -0.0899,0.24935 -0.01901,0.0877 -0.03273,0.17648 -0.03163,0.26651 0.0015,0.0939 0.01044,0.1876 0.03212,0.27918 0.02417,0.0988 0.05311,0.19669 0.09697,0.28883 0.06201,0.11949 0.143626,0.22772 0.218279,0.3394 0.09034,0.12922 0.182485,0.25714 0.274983,0.38482 0.101269,0.14213 0.202281,0.2848 0.285827,0.43836 0.09127,0.16503 0.184389,0.33383 0.21553,0.52224 0.03234,0.19906 0.04036,0.39505 -0.0439,0.58405 -0.06871,0.17695 -0.158055,0.34026 -0.278175,0.4882 -0.106817,0.14452 -0.215916,0.28737 -0.330445,0.42592 -0.116889,0.14148 -0.235479,0.2816 -0.363067,0.41366 -0.10462,0.1111 -0.211972,0.21965 -0.313683,0.33346 -0.08634,0.0968 -0.172065,0.19414 -0.253954,0.29474 -0.076,0.0934 -0.150456,0.18803 -0.219657,0.28662 -0.06723,0.095 -0.132876,0.19112 -0.194134,0.2901 -0.06065,0.0981 -0.119269,0.19737 -0.173859,0.29895 -0.05584,0.1035 -0.110278,0.20774 -0.161297,0.31371 -0.05265,0.10945 -0.104052,0.21949 -0.152654,0.3308 -0.05111,0.11683 -0.100628,0.23447 -0.149302,0.35239 -0.05283,0.12727 -0.105865,0.25436 -0.160675,0.38075 -0.06018,0.13735 -0.123024,0.27361 -0.192297,0.40673 -0.07437,0.14338 -0.154338,0.28333 -0.247093,0.41578 -0.09019,0.13423 -0.182448,0.26722 -0.279609,0.3966 -0.102514,0.13551 -0.207101,0.26976 -0.327836,0.38982 -0.114471,0.11756 -0.231417,0.23286 -0.352974,0.34319 -0.121578,0.10988 -0.244825,0.218 -0.373101,0.32005 -0.132125,0.10475 -0.265538,0.20878 -0.41096,0.29467 -0.132491,0.0689 -0.272148,0.12068 -0.414307,0.16628 -0.129342,0.0412 -0.259729,0.0793 -0.392329,0.10878 -0.135494,0.0297 -0.272952,0.0588 -0.412377,0.0564 -0.115479,-0.001 -0.231106,-0.006 -0.344901,-0.0267 -0.09576,-0.0147 -0.191265,-0.032 -0.28654,-0.0502 -0.08233,-0.0147 -0.164594,-0.0311 -0.247172,-0.0452 -0.07527,-0.0128 -0.150603,-0.0253 -0.22638,-0.0346 -0.04562,-0.005 -0.0948,-0.0147 -0.135843,-0.009 -0.03859,0.007 -0.07292,0.0185 -0.106378,0.0416 -0.049,0.0286 -0.09642,0.0595 -0.140769,0.095 -0.05177,0.0414 -0.102019,0.0846 -0.149027,0.13148 -0.05371,0.0531 -0.106195,0.1075 -0.155108,0.165 -0.05779,0.0672 -0.114289,0.13569 -0.169739,0.20492 -0.06485,0.0804 -0.130752,0.16005 -0.200953,0.23581 -0.07175,0.0789 -0.14434,0.15694 -0.220002,0.23215 -0.07893,0.0778 -0.159338,0.15419 -0.243491,0.22636 -0.08691,0.0744 -0.175325,0.14705 -0.267662,0.21458 -0.09645,0.0701 -0.194537,0.13808 -0.2973,0.19859 -0.108776,0.0628 -0.221968,0.11665 -0.338821,0.16298 -0.114069,0.0461 -0.229255,0.0894 -0.346181,0.12764 -0.121595,0.0392 -0.243969,0.0764 -0.368102,0.10676 -0.128756,0.0297 -0.258951,0.0531 -0.390009,0.0701 -0.130184,0.0147 -0.261155,0.0214 -0.392138,0.0227 -0.123793,-0.002 -0.247588,-0.0128 -0.369584,-0.035 -0.10614,-0.0187 -0.212093,-0.0385 -0.31715,-0.0626 -0.101287,-0.0233 -0.202488,-0.0476 -0.300508,-0.0826 -0.08426,-0.028 -0.168347,-0.0566 -0.252162,-0.0859 -0.08094,-0.0282 -0.161828,-0.0564 -0.242658,-0.0848 -0.077,-0.0271 -0.154101,-0.054 -0.23146,-0.0802 -0.06805,-0.0227 -0.136081,-0.0461 -0.2057,-0.0637 -0.06602,-0.0165 -0.132217,-0.0315 -0.199135,-0.0436 -0.06063,-0.011 -0.121558,-0.02 -0.183089,-0.0231 -0.06411,-0.004 -0.128407,0.002 -0.192392,0.005 -0.07085,0.005 -0.141538,0.0128 -0.211684,0.0249 -0.07733,0.0128 -0.154503,0.0264 -0.231079,0.043 -0.0829,0.0183 -0.165472,0.0374 -0.247551,0.0588 -0.09072,0.0238 -0.18135,0.048 -0.271653,0.0734 -0.09869,0.0275 -0.197275,0.0551 -0.296178,0.0817 -0.107238,0.0289 -0.214557,0.0577 -0.32231,0.0846 -0.115315,0.0288 -0.230746,0.057 -0.346901,0.082 -0.121394,0.026 -0.243284,0.0493 -0.365699,0.07 -0.124926,0.0209 -0.250037,0.0407 -0.375589,0.0575 -0.129621,0.0165 -0.259416,0.0331 -0.389683,0.0445 -0.135283,0.011 -0.270661,0.0165 -0.406368,0.009 -0.134821,-0.005 -0.269997,-0.0128 -0.40184,-0.0443 -0.12059,-0.0267 -0.2376,-0.0645 -0.352162,-0.11079 -0.104931,-0.041 -0.209096,-0.0839 -0.310772,-0.1324 -0.102159,-0.0491 -0.203576,-0.1 -0.300282,-0.15932 -0.08763,-0.057 -0.170457,-0.12068 -0.251034,-0.18715 -0.0739,-0.0612 -0.146662,-0.12361 -0.217121,-0.18873 -0.06846,-0.063 -0.136519,-0.12636 -0.203066,-0.19131 -0.06484,-0.0634 -0.128675,-0.12764 -0.193894,-0.19049 -0.06845,-0.0654 -0.137491,-0.1302 -0.207967,-0.19347 -0.07792,-0.0692 -0.156558,-0.13771 -0.239699,-0.20071 -0.09778,-0.0762 -0.196186,-0.15163 -0.295143,-0.22623 -0.1084526,-0.082 -0.217426,-0.16335 -0.326332,-0.24477 -0.118638,-0.0885 -0.2374102,-0.17653 -0.3552681,-0.26601 -0.1238077,-0.0943 -0.2479133,-0.18845 -0.3657342,-0.2902 -0.1141386,-0.0982 -0.227488,-0.19729 -0.3381159,-0.29944 -0.110086,-0.10164 -0.219172,-0.20452 -0.3256089,-0.31005 -0.105854,-0.10512 -0.2106025,-0.21144 -0.3124638,-0.32049 -0.1010323,-0.10841 -0.2004746,-0.21818 -0.2973402,-0.3303 -0.096335,-0.11171 -0.1918969,-0.22417 -0.2838618,-0.33956 -0.092473,-0.1161 -0.1844211,-0.23262 -0.2712411,-0.35303 -0.081973,-0.11665 -0.1586143,-0.23678 -0.2352131,-0.35696 -0.075816,-0.11958 -0.1508919,-0.23977 -0.2240318,-0.36107 -0.075028,-0.1238 -0.1491926,-0.24795 -0.2215073,-0.37327 -0.072591,-0.12581 -0.1445906,-0.2521 -0.2177631,-0.37764 -0.075475,-0.12854 -0.1517453,-0.25659 -0.2294307,-0.3838 -0.079934,-0.13143 -0.1603724,-0.26256 -0.2390205,-0.39477 -0.07497,-0.12771 -0.1470829,-0.25709 -0.2166855,-0.3878 -0.062206,-0.12054 -0.1172683,-0.24415 -0.1667452,-0.37047 -0.046488,-0.11616 -0.091984,-0.23275 -0.1329896,-0.35098 -0.038757,-0.11407 -0.074193,-0.22933 -0.095701,-0.34809 -0.021237,-0.1043 -0.041881,-0.20879 -0.058131,-0.31402 -0.014632,-0.10028 -0.025865,-0.20098 -0.033615,-0.30203 -0.00747,-0.094 -0.013661,-0.18804 -0.017269,-0.28226 -0.00405,-0.0908 -0.00745,-0.1817 -0.010804,-0.27257 -0.00339,-0.0881 -0.00676,-0.17621 -0.011445,-0.26424 -0.00458,-0.0829 -0.010511,-0.16579 -0.022396,-0.24806 -0.01183,-0.0874 -0.024984,-0.17471 -0.040024,-0.26166 -0.015694,-0.0889 -0.032946,-0.17741 -0.052275,-0.26556 -0.020959,-0.096 -0.044816,-0.19157 -0.060406,-0.28869 -0.017452,-0.12225 -0.025438,-0.24765 0.019492,-0.36566 0.045384,-0.11795 0.1076999,-0.22512 0.2123682,-0.30062 0.094317,-0.0707 0.1980197,-0.12339 0.3063098,-0.16959 0.1040246,-0.046 0.2089077,-0.0902 0.3153288,-0.13039 0.1127451,-0.0428 0.2261984,-0.0836 0.3401223,-0.12315 0.088649,-0.0311 0.1780092,-0.0611 0.2628383,-0.10189 0.055284,-0.0362 0.1071304,-0.0769 0.151597,-0.1261 0.040128,-0.0445 0.077827,-0.0914 0.1065627,-0.14421 0.023068,-0.043 0.040711,-0.0754 0.038929,-0.12643 0.0057,-0.0755 0.00795,-0.15108 0.0054,-0.22677 -0.00234,-0.0899 -0.00674,-0.17972 -0.0087,-0.26964 -0.00123,-0.1009 0.00216,-0.20169 0.010163,-0.30231 0.0076,-0.10356 0.016939,-0.207 0.030761,-0.30993 0.016628,-0.1181 0.035656,-0.23613 0.073248,-0.34973 0.040211,-0.12249 0.088673,-0.24202 0.1495204,-0.35587 0.058719,-0.11487 0.1195463,-0.22865 0.1838494,-0.34051 0.067969,-0.11803 0.1375659,-0.2351 0.2110206,-0.34981 0.076763,-0.12046 0.1542908,-0.240466 0.2353714,-0.35809 0.083855,-0.121998 0.1690818,-0.243057 0.2555422,-0.363232 0.086985,-0.120863 0.1749218,-0.241026 0.2622308,-0.361651 0.080859,-0.11308 0.1609254,-0.226735 0.2351499,-0.344331 0.061906,-0.09724 0.1234634,-0.195035 0.1651465,-0.303105 0.040881,-0.101415 0.07219,-0.206439 0.1038433,-0.311031 0.029705,-0.104767 0.05428,-0.210785 0.074573,-0.31779 0.021334,-0.111981 0.040645,-0.224343 0.057719,-0.337064 0.017928,-0.115773 0.03475,-0.231717 0.049361,-0.347961 0.015529,-0.121559 0.030478,-0.243204 0.047168,-0.364617 0.017544,-0.125605 0.036548,-0.251006 0.058311,-0.375955 0.022581,-0.127217 0.046432,-0.254202 0.073377,-0.380575 0.027938,-0.130752 0.057734,-0.261156 0.093209,-0.390106 0.03534,-0.125844 0.071505,-0.251466 0.109458,-0.376558 0.038112,-0.125752 0.076482,-0.251426 0.1156475,-0.376854 0.038839,-0.124654 0.078092,-0.24917 0.1158106,-0.374165 0.034419,-0.115845 0.066528,-0.232355 0.090634,-0.350852 0.021345,-0.104785 0.036336,-0.210327 0.036004,-0.317591 0.00326,-0.114802 0.00452,-0.229657 0.00201,-0.344482 -0.003,-0.118647 -0.00718,-0.237248 -0.013881,-0.355744 -0.00689,-0.126137 -0.015108,-0.252224 -0.019807,-0.378471 -0.00229,-0.136887 0.00262,-0.273724 0.033787,-0.407717 0.026852,-0.13066 0.059792,-0.260159 0.1171601,-0.381302 0.050903,-0.113868 0.1045154,-0.226926 0.1702777,-0.33311 0.061986,-0.101506 0.1262542,-0.201603 0.1938375,-0.2995 0.066227,-0.09576 0.1351828,-0.189528 0.2055228,-0.282307 0.06779,-0.08964 0.13578,-0.179133 0.204376,-0.268154 0.05691,-0.07356 0.114054,-0.146959 0.167784,-0.222894 0.046,-0.06389 0.09164,-0.128041 0.13515,-0.193674 0.04173,-0.06158 0.08332,-0.123243 0.125053,-0.184832 0.04152,-0.0612 0.08315,-0.12231 0.125307,-0.183071 0.04248,-0.06028 0.08593,-0.119892 0.132691,-0.176973 0.04349,-0.05376 0.08762,-0.107018 0.133049,-0.159173 0.04623,-0.05265 0.0937,-0.104143 0.144246,-0.152708 0.04896,-0.04798 0.09832,-0.09579 0.151993,-0.138553 0.0461,-0.03697 0.09252,-0.07358 0.140127,-0.108612 0.04053,-0.02937 0.08147,-0.05812 0.122953,-0.08612 0.03392,-0.02322 0.0678,-0.0465 0.101433,-0.07014 0.02828,-0.01992 0.05628,-0.04023 0.08433,-0.06049 0.01976,-0.01428 0.03925,-0.02904 0.0588,-0.04368 0.01527,-0.01117 0.0305,-0.02249 0.0459,-0.03355 0.01265,-0.0092 0.02539,-0.01813 0.03837,-0.02683 0.01027,-0.0071 0.02058,-0.01428 0.03088,-0.02144 0.299892,-0.211689 0.599265,0.212423 0.299373,0.424112 z"
       inkscape:connector-curvature="0" />
    <path
       style="fill:#000000;stroke-width:0.4845202"
       id="path4088"
       d="m 10.556796,96.238137 c -0.03388,-0.01373 -0.06427,-0.03373 -0.09275,-0.05631 -0.0309,-0.02443 -0.05493,-0.05523 -0.07697,-0.0875 -0.03144,-0.0471 -0.04481,-0.10136 -0.05137,-0.156737 -0.0099,-0.08537 0.02252,-0.159063 0.06279,-0.231158 0.05318,-0.08069 0.129029,-0.141318 0.205498,-0.198613 0.09039,-0.06389 0.184845,-0.121705 0.279221,-0.179445 0.09683,-0.05953 0.195363,-0.116156 0.294232,-0.172211 0.09498,-0.05369 0.190233,-0.106927 0.285644,-0.159851 0.08611,-0.04787 0.172565,-0.09512 0.259237,-0.141959 0.06785,-0.0369 0.137176,-0.07071 0.208933,-0.09927 0.04831,-0.01925 0.09799,-0.03459 0.148189,-0.048 0.07147,-0.02067 0.142783,-0.02179 0.215788,-0.0084 0.06285,0.01648 0.114716,0.05285 0.165674,0.09105 0.02702,0.02152 0.05565,0.0408 0.08447,0.05979 0.0378,0.02494 0.07699,0.04765 0.116311,0.07006 0.05432,0.02773 0.111578,0.04912 0.168382,0.07111 0.07777,0.03012 0.156041,0.05893 0.234468,0.0873 0.08055,0.02919 0.160834,0.05913 0.240783,0.08993 0.07692,0.02913 0.152452,0.0617 0.227225,0.09594 0.07193,0.03251 0.139822,0.07301 0.206216,0.115479 0.06007,0.03835 0.117367,0.08052 0.171677,0.126613 0.05082,0.04373 0.0964,0.09299 0.141561,0.142399 0.03873,0.04272 0.07734,0.08557 0.116146,0.128224 0.03897,0.04283 0.07815,0.08548 0.118076,0.127419 0.03893,0.04228 0.07999,0.0823 0.124598,0.118556 0.06393,0.04996 0.130331,0.09662 0.197055,0.142728 0.07693,0.05428 0.157579,0.102733 0.238832,0.150163 0.09865,0.05779 0.200272,0.110297 0.30168,0.163055 0.1146,0.05867 0.227878,0.119838 0.340713,0.181826 0.10982,0.06018 0.217244,0.124489 0.322993,0.191536 0.09969,0.06598 0.19081,0.143498 0.279582,0.223253 0.07829,0.07058 0.150126,0.147691 0.218438,0.227834 0.06437,0.0771 0.118739,0.16159 0.168842,0.248404 0.06049,0.09532 0.08655,0.203929 0.107055,0.313387 0.01575,0.08944 0.0274,0.179537 0.03827,0.269688 0.01081,0.09462 0.01884,0.189511 0.02943,0.284145 0.01099,0.09781 0.02417,0.195336 0.03756,0.292834 0.01465,0.101562 0.02738,0.203396 0.03871,0.30539 0.01135,0.100463 0.01928,0.20123 0.02525,0.30213 0.0077,0.108447 0.0068,0.216469 -0.0071,0.324279 -0.01538,0.129177 -0.08003,0.241849 -0.149413,0.348917 -0.07761,0.131718 -0.201403,0.214348 -0.330119,0.289878 -0.153514,0.0812 -0.316875,0.14075 -0.479615,0.20023 -0.172486,0.0619 -0.345899,0.12121 -0.51911,0.18106 -0.172358,0.0595 -0.344216,0.12033 -0.515851,0.18182 -0.163385,0.0586 -0.326332,0.11839 -0.489154,0.17851 -0.152898,0.0565 -0.305446,0.11385 -0.457738,0.17192 -0.131323,0.0503 -0.262064,0.10206 -0.393443,0.1522 -0.111802,0.0445 -0.225293,0.0839 -0.340808,0.11758 -0.09403,0.0269 -0.189563,0.048 -0.285575,0.0664 -0.08497,0.0161 -0.170794,0.0268 -0.256917,0.0343 -0.07968,0.007 -0.159636,0.007 -0.239415,0.002 -0.07376,-0.004 -0.146475,-0.017 -0.218324,-0.0337 -0.06886,-0.0159 -0.134813,-0.0413 -0.198892,-0.0708 -0.06214,-0.029 -0.118876,-0.0674 -0.173129,-0.10904 -0.05187,-0.0406 -0.09756,-0.0881 -0.140465,-0.13785 -0.0591,-0.0637 -0.09236,-0.14354 -0.121656,-0.22397 -0.02296,-0.0649 -0.04295,-0.13077 -0.06258,-0.19672 -0.02006,-0.068 -0.03869,-0.13632 -0.05692,-0.20478 -0.01824,-0.07 -0.0362,-0.14007 -0.05475,-0.21 -0.01908,-0.0721 -0.03941,-0.14379 -0.06021,-0.21538 -0.02169,-0.0745 -0.04599,-0.1483 -0.07093,-0.221814 -0.02599,-0.07662 -0.05477,-0.152232 -0.08447,-0.227478 -0.03032,-0.07794 -0.0645,-0.154247 -0.09937,-0.230239 -0.03637,-0.07889 -0.07529,-0.156536 -0.114829,-0.233866 -0.0402,-0.07843 -0.08213,-0.15595 -0.124819,-0.233048 -0.04352,-0.07807 -0.08831,-0.1554 -0.131799,-0.233491 -0.04294,-0.07746 -0.08367,-0.156096 -0.12346,-0.235216 -0.03763,-0.07451 -0.07232,-0.150437 -0.105821,-0.226876 -0.03835,-0.08089 -0.06125,-0.167065 -0.07955,-0.254286 -0.01505,-0.07495 -0.02343,-0.150988 -0.02926,-0.227131 -0.0053,-0.07358 -0.0041,-0.147343 5.2e-5,-0.220925 0.0035,-0.07651 0.02199,-0.151006 0.03984,-0.225118 0.01372,-0.05492 0.02684,-0.109986 0.0395,-0.16518 0.01057,-0.04657 0.01985,-0.09339 0.0286,-0.140329 0.0075,-0.04029 0.01355,-0.08081 0.01922,-0.121394 0.0045,-0.03269 0.0075,-0.0655 0.01018,-0.09838 0.0021,-0.02827 0.0037,-0.05659 0.0048,-0.0849 0.0011,-0.02267 7.75e-4,-0.04536 6.15e-4,-0.06803 3.78e-4,-0.01117 -4.71e-4,-0.0223 -0.0015,-0.03344 -6.15e-4,-0.007 -0.0015,-0.01392 -0.0024,-0.02075 -0.0012,-0.0093 -6.68e-4,-0.0051 -0.0015,-0.01245 -0.04282,-0.364574 0.472764,-0.425132 0.515585,-0.06056 v 0 c 8.5e-5,8.24e-4 3.09e-4,0.0016 2.55e-4,0.0024 0.002,0.01483 0.0038,0.0297 0.0051,0.04463 0.0023,0.02545 0.0038,0.05096 0.0036,0.07653 2.15e-4,0.03086 4.04e-4,0.06173 -10e-4,0.09257 -0.0014,0.03542 -0.0033,0.07083 -0.0061,0.106176 -0.0035,0.04287 -0.0077,0.08567 -0.0135,0.12828 -0.0068,0.04833 -0.01401,0.0966 -0.02301,0.144559 -0.01007,0.05391 -0.02079,0.107697 -0.03294,0.161169 -0.01307,0.05703 -0.02662,0.113941 -0.04081,0.170728 -0.0106,0.04401 -0.02343,0.0881 -0.02626,0.133444 -0.003,0.05069 -0.0041,0.10147 -6.39e-4,0.152178 0.0039,0.05376 0.0097,0.107458 0.01988,0.160436 0.01066,0.05219 0.02263,0.103613 0.0468,0.151573 0.02976,0.06803 0.06062,0.135605 0.09409,0.201909 0.03649,0.07259 0.07383,0.144761 0.113196,0.215834 0.04369,0.07849 0.08877,0.15617 0.132447,0.234657 0.04543,0.0821 0.09006,0.164631 0.132842,0.248125 0.04288,0.08389 0.08503,0.168146 0.124452,0.253717 0.03878,0.08453 0.07666,0.169501 0.110428,0.256191 0.03278,0.08312 0.0645,0.166663 0.0932,0.251307 0.02736,0.08074 0.054,0.161755 0.0778,0.243638 0.02194,0.0755 0.04337,0.15115 0.06349,0.22717 0.01851,0.0698 0.03646,0.13969 0.05463,0.20956 0.01692,0.0636 0.03422,0.12714 0.05283,0.19028 0.01674,0.0563 0.03372,0.11257 0.05313,0.16804 0.02246,0.0626 -3.94e-4,0.0236 0.02804,0.0632 0.01956,0.0232 0.04018,0.0455 0.06372,0.0648 0.02348,0.0185 0.04789,0.036 0.07491,0.0491 0.03146,0.0152 0.06432,0.0276 0.09834,0.0359 0.04276,0.0103 0.08602,0.0181 0.13,0.0208 0.05481,0.004 0.109785,0.003 0.16456,-0.001 0.06829,-0.006 0.136313,-0.0143 0.203689,-0.0269 0.08008,-0.0152 0.159748,-0.0327 0.238194,-0.055 0.10199,-0.0295 0.201887,-0.0648 0.300545,-0.10407 0.131417,-0.0501 0.262171,-0.10197 0.39354,-0.15223 0.153996,-0.0587 0.308251,-0.11675 0.462857,-0.17384 0.164398,-0.0607 0.328923,-0.12109 0.493892,-0.18024 0.173493,-0.0622 0.347199,-0.12368 0.521405,-0.18378 0.170325,-0.0589 0.340861,-0.11715 0.510494,-0.178001 0.13392,-0.04891 0.268296,-0.09752 0.396189,-0.161023 0.06217,-0.03598 0.121266,-0.06105 0.15725,-0.125606 0.02793,-0.04208 0.06195,-0.08543 0.0695,-0.134744 0.01099,-0.07428 0.0075,-0.148954 0.0033,-0.223801 -0.0053,-0.09197 -0.01264,-0.183796 -0.02298,-0.27535 -0.0108,-0.09755 -0.02298,-0.194935 -0.03706,-0.292075 -0.01392,-0.101854 -0.02773,-0.203753 -0.03919,-0.305928 -0.01044,-0.0931 -0.01857,-0.186431 -0.0289,-0.279541 -0.0095,-0.07927 -0.01958,-0.158514 -0.03331,-0.237201 -0.0099,-0.05426 -0.01502,-0.10321 -0.04679,-0.149449 -0.03395,-0.05953 -0.07076,-0.117548 -0.114197,-0.17071 -0.05312,-0.0627 -0.109125,-0.12295 -0.170124,-0.178144 -0.06715,-0.06052 -0.135714,-0.119746 -0.210474,-0.17082 -0.09651,-0.06127 -0.194604,-0.119948 -0.294861,-0.174904 -0.1094,-0.0601 -0.219226,-0.119398 -0.330345,-0.176276 -0.108905,-0.05666 -0.217943,-0.11319 -0.323869,-0.175288 -0.09266,-0.05413 -0.184466,-0.109693 -0.2723,-0.171461 -0.07887,-0.05455 -0.157367,-0.109821 -0.232453,-0.16952 -0.06007,-0.05008 -0.117268,-0.103246 -0.170109,-0.161004 -0.04254,-0.04476 -0.0844,-0.09015 -0.125918,-0.135861 -0.03857,-0.04239 -0.07695,-0.08497 -0.115431,-0.127437 -0.03069,-0.03362 -0.06126,-0.06757 -0.09541,-0.09777 -0.03614,-0.0312 -0.07503,-0.05873 -0.115156,-0.08462 -0.04564,-0.02952 -0.09237,-0.05779 -0.141919,-0.08032 -0.06499,-0.02985 -0.130682,-0.05812 -0.197579,-0.08343 -0.0766,-0.02952 -0.153524,-0.05818 -0.230696,-0.08616 -0.08209,-0.0297 -0.16401,-0.05986 -0.245417,-0.0914 -0.0808,-0.03133 -0.162024,-0.0625 -0.238145,-0.104308 -0.04908,-0.02802 -0.0979,-0.05655 -0.145063,-0.08774 -0.03763,-0.02489 -0.07497,-0.05023 -0.110464,-0.07812 -0.0421,-0.03183 -0.02305,-0.01337 0.0238,-0.0015 0.02614,0.0035 0.105583,-0.0031 0.03952,0.0059 -0.03063,0.0079 -0.06089,0.0174 -0.09032,0.02901 -0.05272,0.02047 -0.102847,0.0465 -0.152716,0.0731 -0.085,0.04593 -0.169772,0.09226 -0.254214,0.139212 -0.09402,0.05215 -0.187869,0.104602 -0.281468,0.157507 -0.09386,0.05322 -0.187437,0.106908 -0.279352,0.163439 -0.08164,0.04994 -0.163373,0.09984 -0.242025,0.154412 -0.02733,0.0195 -0.05495,0.04025 -0.07783,0.06294 0.01372,-0.03034 0.02403,-0.06129 0.01863,-0.09594 -0.0042,-0.02736 -0.0124,-0.05428 -0.02811,-0.07746 -0.0094,-0.013 -0.01908,-0.02562 -0.03212,-0.03525 -0.0093,-0.007 -0.02775,-0.01837 -0.03311,-0.01969 0.337926,0.143369 0.135181,0.621263 -0.202746,0.477901 z"
       inkscape:connector-curvature="0" />
    <path
       style="fill:#000000;stroke-width:0.4845202"
       id="path4090"
       d="m 17.321714,103.46866 c -0.01685,0.0254 -0.03747,0.0478 -0.0592,0.069 -0.02313,0.0226 -0.04966,0.0411 -0.07636,0.0592 -0.02783,0.0191 -0.05688,0.0364 -0.08589,0.0536 -0.03538,0.0204 -0.07041,0.0415 -0.105426,0.0625 -0.03558,0.0213 -0.07058,0.0436 -0.105004,0.0668 -0.03174,0.0213 -0.06241,0.044 -0.09261,0.0674 -0.02829,0.022 -0.05576,0.0451 -0.08285,0.0686 -0.02432,0.0211 -0.04747,0.0435 -0.07026,0.0663 -0.02525,0.0259 -0.05052,0.0517 -0.07554,0.0778 -0.02525,0.0264 -0.04987,0.0535 -0.074,0.0809 -0.02247,0.0251 -0.04344,0.0515 -0.06345,0.0786 -0.01846,0.0257 -0.03584,0.0522 -0.05193,0.0794 -0.0152,0.0259 -0.02827,0.0529 -0.04076,0.0802 -0.01337,0.0287 -0.02474,0.0583 -0.03564,0.088 -0.0093,0.0247 -0.0163,0.0503 -0.02157,0.0762 -0.0059,0.0305 -0.0099,0.0614 -0.01355,0.0922 -0.0037,0.0314 -0.0049,0.0631 -0.0059,0.0947 -0.0013,0.0286 1.91e-4,0.0571 0.0027,0.0856 0.0027,0.0324 0.0073,0.0646 0.01245,0.0966 0.0044,0.0274 0.01025,0.0545 0.01721,0.0813 0.0048,0.0174 0.01044,0.0344 0.01831,0.0506 0.0068,0.0135 0.02049,0.0384 0.004,0.007 -0.0026,-8.3e-4 -0.0055,-0.008 -0.0029,-0.008 0.02738,0.009 0.05549,0.0146 0.08365,0.0201 0.02106,0.004 0.04278,0.005 0.06415,0.003 0.01866,-0.005 0.03778,-0.01 0.05633,-0.0157 0.01465,-0.002 0.07523,-0.0345 0.02143,-0.005 -0.05221,0.0342 -0.07602,0.0964 -0.08065,0.15672 -0.004,0.0159 0.01861,0.0713 0.0066,0.0509 -0.01538,-0.0257 -0.03124,-0.0509 -0.04639,-0.0766 -0.02163,-0.0362 -0.0397,-0.0743 -0.05642,-0.1129 -0.02095,-0.0468 -0.0341,-0.0962 -0.04355,-0.14642 -0.009,-0.0532 -0.0082,-0.10711 -0.0035,-0.16066 0.0055,-0.0547 0.02058,-0.10742 0.03906,-0.15894 0.01965,-0.0528 0.0476,-0.10176 0.07781,-0.14913 0.03098,-0.0481 0.06781,-0.092 0.105993,-0.13447 0.04062,-0.0449 0.0855,-0.0855 0.131119,-0.12515 0.0506,-0.0451 0.105535,-0.0847 0.161205,-0.12323 0.05519,-0.038 0.111359,-0.0746 0.167157,-0.11163 0.05027,-0.0334 0.09968,-0.0681 0.148698,-0.1033 0.04413,-0.0318 0.08739,-0.0647 0.13013,-0.0982 0.03496,-0.0271 0.06805,-0.0563 0.100298,-0.0865 0.02571,-0.0242 0.0501,-0.0497 0.07297,-0.0766 0.01831,-0.0211 0.03454,-0.0436 0.04972,-0.067 0.0108,-0.0172 0.02011,-0.0352 0.0282,-0.0538 0.0066,-0.0152 0.0119,-0.031 0.01611,-0.0471 0.0022,-0.009 0.0038,-0.0176 0.0048,-0.0264 0.0012,-0.031 0.004,-0.0618 0.0081,-0.0924 0.0049,-0.0382 0.0141,-0.0756 0.02496,-0.1125 0.013,-0.0427 0.03282,-0.0828 0.05461,-0.12161 0.02018,-0.0365 0.04695,-0.0686 0.07327,-0.1007 0.0108,-0.0135 0.02079,-0.0277 0.03034,-0.0421 0.0053,-0.008 0.0095,-0.0156 0.01319,-0.0238 0.0012,-0.003 0.002,-0.006 0.0029,-0.009 0.002,-0.009 0.004,-0.0176 0.0062,-0.0263 0.08569,-0.35694 0.590478,-0.23575 0.504784,0.12119 v 0 c -0.0027,0.0115 -0.0053,0.023 -0.0082,0.0345 -0.0092,0.0339 -0.02036,0.0672 -0.03538,0.0991 -0.01538,0.0322 -0.03228,0.0637 -0.05241,0.0932 -0.0189,0.0281 -0.03849,0.0557 -0.05994,0.0819 -0.0093,0.0115 -0.02115,0.025 -0.02384,0.0288 -0.0026,0.004 -0.0057,0.0106 -0.0084,0.0139 -0.0029,0.0101 -0.006,0.0201 -0.0073,0.0305 -0.0026,0.0187 -0.0038,0.0376 -0.0046,0.0565 -0.0031,0.0452 -0.01026,0.0899 -0.02265,0.13359 -0.01172,0.0413 -0.02512,0.0821 -0.04283,0.12128 -0.01974,0.0434 -0.04161,0.0858 -0.06768,0.12581 -0.02758,0.0418 -0.05701,0.0824 -0.0898,0.12026 -0.03553,0.0412 -0.07281,0.0808 -0.112585,0.1179 -0.04316,0.0402 -0.08744,0.0793 -0.134103,0.11546 -0.04856,0.0381 -0.0977,0.0755 -0.147838,0.11152 -0.05415,0.0389 -0.10874,0.0772 -0.164264,0.11405 -0.05311,0.0353 -0.106542,0.0701 -0.159099,0.10618 -0.04009,0.0277 -0.08003,0.0556 -0.116248,0.0883 -0.02983,0.0258 -0.0595,0.052 -0.0862,0.0811 -0.01941,0.0213 -0.03846,0.043 -0.05444,0.0671 -0.0099,0.0152 -0.01965,0.0304 -0.02705,0.0469 -0.004,0.0103 -0.0079,0.0207 -0.0099,0.0317 -0.0012,0.008 -0.0018,0.0152 -0.0013,0.0228 2.6e-5,2.8e-4 0.004,0.0215 0.0086,0.0281 0.0081,0.0189 0.01648,0.0376 0.02721,0.0552 0.0163,0.0279 0.03399,0.0549 0.05003,0.083 0.03401,0.0605 0.06054,0.12525 0.06104,0.1958 -0.0031,0.11191 -0.0471,0.21106 -0.139139,0.2773 -0.05204,0.0324 -0.105755,0.0596 -0.164996,0.0766 -0.05917,0.0183 -0.119471,0.0337 -0.181423,0.0388 -0.06514,0.003 -0.130642,0.002 -0.194778,-0.0115 -0.05336,-0.0106 -0.106506,-0.0227 -0.158001,-0.0405 -0.07124,-0.0264 -0.138351,-0.0618 -0.192221,-0.11665 -0.04368,-0.0457 -0.08122,-0.0961 -0.106213,-0.15458 -0.02022,-0.0447 -0.03729,-0.0907 -0.04941,-0.13833 -0.0108,-0.0426 -0.02038,-0.0856 -0.0272,-0.12914 -0.007,-0.044 -0.01319,-0.0881 -0.01685,-0.13246 -0.0042,-0.0488 -0.0064,-0.0977 -0.0046,-0.14668 0.0015,-0.0466 0.0037,-0.0933 0.0092,-0.13967 0.0057,-0.0472 0.01209,-0.0944 0.02163,-0.14105 0.01099,-0.0494 0.02371,-0.0984 0.04175,-0.14573 0.01575,-0.0426 0.03219,-0.0849 0.05135,-0.12608 0.02036,-0.0441 0.04194,-0.0877 0.06673,-0.12947 0.02513,-0.0418 0.05159,-0.0828 0.08043,-0.12209 0.02879,-0.0388 0.0588,-0.0765 0.09094,-0.1126 0.02897,-0.0329 0.05847,-0.0653 0.08876,-0.097 0.02778,-0.029 0.05584,-0.0577 0.08394,-0.0864 0.03131,-0.0312 0.06318,-0.0618 0.0966,-0.0908 0.03446,-0.0299 0.06944,-0.0592 0.10548,-0.0871 0.03943,-0.0304 0.07949,-0.0601 0.120882,-0.0878 0.04166,-0.0279 0.08387,-0.0549 0.126906,-0.0807 0.03564,-0.0214 0.07124,-0.0428 0.107238,-0.0636 0.02035,-0.0121 0.04084,-0.024 0.06034,-0.0374 0.01685,-0.0114 0.01154,-0.008 0.0066,-0.003 0.0086,-0.008 -0.0092,0.01 -0.01007,0.0134 0.205678,-0.30404 0.635662,-0.0132 0.429985,0.29087 z"
       inkscape:connector-curvature="0" />
    <path
       style="fill:#000000;stroke-width:0.4845202"
       id="path4092"
       d="m 27.15447,99.652948 c -0.0066,0.0075 -0.0024,0.0027 -0.01117,0.01337 -0.0095,0.01154 -0.01901,0.023 -0.02853,0.0345 -0.01447,0.0174 -0.02934,0.03448 -0.04417,0.05159 -0.01813,0.02073 -0.03653,0.04111 -0.05541,0.06113 -0.02256,0.02406 -0.04615,0.0471 -0.06966,0.07023 -0.02578,0.02527 -0.05182,0.05027 -0.07852,0.07457 -0.02976,0.02619 -0.05915,0.05276 -0.08845,0.07948 -0.02979,0.0271 -0.059,0.0548 -0.08772,0.083 -0.02712,0.0264 -0.05208,0.0549 -0.0768,0.0836 -0.02556,0.0296 -0.04921,0.0608 -0.07254,0.0922 -0.02322,0.0313 -0.04477,0.0638 -0.06563,0.0968 -0.0213,0.0329 -0.04009,0.0673 -0.0584,0.10197 -0.02113,0.0403 -0.0412,0.0812 -0.06148,0.12196 -0.02318,0.0464 -0.04695,0.0925 -0.07131,0.13822 -0.02652,0.0496 -0.0549,0.0981 -0.08393,0.14624 -0.03331,0.0572 -0.07191,0.11089 -0.112165,0.16337 -0.04111,0.0529 -0.08369,0.10471 -0.126851,0.15599 -0.04377,0.0516 -0.08836,0.10246 -0.133169,0.15315 -0.04507,0.0509 -0.09035,0.10161 -0.134341,0.15344 -0.04364,0.0517 -0.08583,0.10456 -0.127584,0.15776 -0.03831,0.0481 -0.07422,0.098 -0.108044,0.1493 -0.03018,0.0463 -0.05752,0.0944 -0.08254,0.14361 -0.02326,0.046 -0.04307,0.0935 -0.06127,0.14168 -0.01026,0.0406 -0.0341,0.0806 -0.03699,0.1229 -0.006,0.0456 -0.0088,0.0915 -0.01209,0.13731 -0.004,0.0612 -0.01154,0.12218 -0.01996,0.18296 -0.0086,0.0623 -0.02031,0.12405 -0.03392,0.18542 -0.01392,0.0634 -0.0323,0.12555 -0.05241,0.18718 -0.02368,0.0769 -0.06016,0.14801 -0.100811,0.21704 -0.04439,0.0704 -0.09664,0.13536 -0.147856,0.20085 -0.04183,0.0532 -0.08274,0.10717 -0.121943,0.16236 -0.0358,0.0506 -0.06964,0.10253 -0.102734,0.15495 -0.02992,0.0472 -0.05767,0.0956 -0.08404,0.14483 -0.02291,0.0432 -0.0434,0.0877 -0.06234,0.13277 -0.01611,0.0393 -0.02952,0.0797 -0.04129,0.12055 -0.01026,0.0365 -0.01776,0.0737 -0.02348,0.11123 -0.0048,0.0329 -0.0071,0.066 -0.0071,0.0992 4.12e-4,0.0315 0.004,0.0629 0.0086,0.0941 0.0035,0.003 0.0163,0.0405 0.02203,0.0548 0.01044,0.0263 0.02276,0.0518 0.03578,0.077 0.01062,0.0195 0.02225,0.0383 0.03457,0.0566 0.0079,0.0119 0.01666,0.0232 0.02621,0.0338 0.0053,0.004 0.0012,2.7e-4 -0.0017,-0.003 -0.01903,-0.0147 -0.04157,-0.0211 -0.06453,-0.0264 -0.05265,-0.01 -0.101892,0.003 -0.148277,0.0282 -0.03575,0.0216 -0.06226,0.0522 -0.08048,0.0893 -0.0024,0.006 -0.0046,0.0123 -0.0073,0.0181 0.0013,-0.0136 0.0012,-0.0274 10e-4,-0.041 -3.63e-4,-0.0226 -0.0018,-0.0452 -0.0035,-0.0678 -0.0022,-0.0297 -0.0057,-0.0594 -0.0088,-0.089 -0.0037,-0.034 -0.0079,-0.068 -0.01209,-0.10192 -0.0044,-0.0377 -0.0093,-0.0753 -0.0141,-0.11299 -0.0055,-0.0443 -0.01044,-0.0888 -0.0152,-0.13315 -0.0051,-0.0474 -0.0093,-0.0948 -0.01319,-0.14235 -0.0042,-0.0518 -0.0068,-0.10368 -0.0077,-0.15565 -0.0011,-0.0555 0.0015,-0.11094 0.0051,-0.16632 0.0037,-0.0543 0.0095,-0.10832 0.0163,-0.16225 0.007,-0.0535 0.01538,-0.10689 0.025,-0.16001 0.01007,-0.0534 0.02188,-0.10645 0.03437,-0.15934 0.0141,-0.0648 0.038,-0.12671 0.0614,-0.18853 0.02174,-0.057 0.04428,-0.11369 0.0669,-0.17036 0.02329,-0.0584 0.04725,-0.11647 0.07195,-0.17427 0.02628,-0.0618 0.05516,-0.12249 0.08578,-0.18228 0.03098,-0.0598 0.06475,-0.11806 0.09955,-0.17569 0.03364,-0.0555 0.06946,-0.10966 0.105902,-0.16335 0.03602,-0.0529 0.07356,-0.10471 0.112,-0.15586 0.03879,-0.0516 0.0797,-0.10152 0.121156,-0.15097 0.04113,-0.0489 0.08358,-0.0967 0.126777,-0.14375 0.04509,-0.0494 0.09294,-0.0961 0.141154,-0.14234 0.04783,-0.0457 0.09689,-0.09 0.146317,-0.13398 0.04913,-0.0434 0.09898,-0.086 0.148845,-0.12853 0.04935,-0.0415 0.09849,-0.0832 0.146629,-0.1261 0.04679,-0.0421 0.09246,-0.0854 0.137069,-0.12978 0.04439,-0.0444 0.0875,-0.0901 0.130203,-0.1361 0.04142,-0.0447 0.08173,-0.0905 0.12154,-0.13663 0.03661,-0.0426 0.07217,-0.0861 0.106982,-0.13017 0.03126,-0.0399 0.0618,-0.0804 0.09186,-0.12123 0.0267,-0.0366 0.05307,-0.0735 0.07849,-0.11108 0.01813,-0.0287 0.03512,-0.0581 0.0517,-0.0877 0.01593,-0.029 0.03115,-0.0585 0.04617,-0.088 0.01428,-0.0278 0.02789,-0.056 0.04175,-0.0841 0.01319,-0.0268 0.02688,-0.0534 0.04078,-0.0799 0.01172,-0.0226 0.02434,-0.0448 0.03686,-0.067 0.0049,-0.0086 0.009,-0.01776 0.01282,-0.0269 0.0035,-0.0082 0.006,-0.01685 0.0084,-0.02533 0.0077,-0.02945 0.01851,-0.05779 0.0308,-0.08556 0.0099,-0.02027 0.0049,-0.01062 0.01465,-0.02897 0.172706,-0.323913 0.630789,-0.07966 0.45808,0.244242 v 0 c -1.45e-4,7e-5 -0.0015,0.003 -4.33e-4,2.2e-4 -0.0015,0.005 -0.0031,0.01 -0.0046,0.0148 -0.0084,0.0284 -0.01776,0.0566 -0.02932,0.0838 -0.01154,0.027 -0.02394,0.0536 -0.03848,0.079 -0.0099,0.0176 -0.01996,0.0352 -0.02932,0.0531 -0.0119,0.0226 -0.02355,0.0455 -0.0349,0.0684 -0.01483,0.0299 -0.02924,0.0599 -0.04448,0.0895 -0.01813,0.0356 -0.03652,0.0712 -0.05589,0.10621 -0.02382,0.0425 -0.04825,0.0848 -0.07503,0.12553 -0.02924,0.0431 -0.05937,0.0855 -0.0901,0.12748 -0.03357,0.0456 -0.06763,0.0908 -0.102587,0.13531 -0.03945,0.0499 -0.07966,0.0991 -0.121138,0.14732 -0.04393,0.0509 -0.08841,0.10138 -0.134139,0.15071 -0.04749,0.0511 -0.09545,0.10188 -0.144816,0.15123 -0.05137,0.051 -0.103832,0.10085 -0.15769,0.14917 -0.05089,0.0453 -0.102715,0.0895 -0.154906,0.13334 -0.04723,0.0403 -0.09444,0.0806 -0.140988,0.12168 -0.04452,0.0396 -0.08873,0.0795 -0.131814,0.12059 -0.04031,0.0386 -0.08039,0.0775 -0.11808,0.11878 -0.03798,0.0413 -0.07525,0.0833 -0.111413,0.12625 -0.03558,0.0424 -0.07074,0.0852 -0.104052,0.12943 -0.03344,0.0444 -0.06603,0.0895 -0.09737,0.1354 -0.03135,0.0461 -0.06221,0.0927 -0.09116,0.14037 -0.02868,0.0474 -0.05653,0.0953 -0.08211,0.14445 -0.02524,0.0488 -0.04858,0.0986 -0.07017,0.14912 -0.02305,0.0538 -0.04534,0.10802 -0.06708,0.16243 -0.02146,0.0538 -0.04289,0.10762 -0.06354,0.16174 -0.01538,0.0408 -0.03243,0.0814 -0.04172,0.12421 -0.01044,0.0442 -0.02035,0.0885 -0.02888,0.13311 -0.0081,0.0438 -0.01483,0.0878 -0.02067,0.132 -0.0055,0.0436 -0.01026,0.0873 -0.01319,0.1311 -0.0027,0.0413 -0.0049,0.0827 -0.004,0.12414 5.82e-4,0.0407 0.0027,0.0814 0.006,0.12196 0.0035,0.043 0.0073,0.086 0.0119,0.12889 0.0044,0.041 0.0088,0.0821 0.01392,0.12309 0.0048,0.0382 0.0099,0.0763 0.01428,0.11448 0.0046,0.0369 0.0092,0.0738 0.01319,0.11081 0.0037,0.035 0.0077,0.0701 0.01025,0.10526 0.0026,0.0345 0.0046,0.0692 0.0049,0.10383 1.08e-4,0.0336 -4.03e-4,0.0673 -0.0042,0.10077 -0.0049,0.0423 -0.01282,0.0844 -0.02924,0.12398 -0.02769,0.0612 -0.06536,0.11495 -0.123262,0.1515 -0.06582,0.0368 -0.135769,0.0565 -0.211625,0.0442 -0.05197,-0.0106 -0.101855,-0.0273 -0.145677,-0.0583 -0.03393,-0.0239 -0.0658,-0.0506 -0.09327,-0.0819 -0.02483,-0.0285 -0.04822,-0.0582 -0.06909,-0.0897 -0.02276,-0.0344 -0.0445,-0.0695 -0.06364,-0.10608 -0.02069,-0.0403 -0.0402,-0.0811 -0.05684,-0.12323 -0.02241,-0.0566 -0.04358,-0.11399 -0.05367,-0.17428 -0.0077,-0.0561 -0.01373,-0.1126 -0.01355,-0.16935 5.82e-4,-0.0592 0.0044,-0.11834 0.01337,-0.17692 0.0095,-0.0592 0.02115,-0.11797 0.03783,-0.17556 0.01758,-0.0601 0.03734,-0.11951 0.06146,-0.17732 0.02538,-0.06 0.05261,-0.11913 0.08329,-0.17659 0.03225,-0.0599 0.06598,-0.11902 0.102478,-0.17644 0.03818,-0.0604 0.07728,-0.12028 0.11861,-0.17861 0.04384,-0.0615 0.08927,-0.12185 0.136008,-0.18122 0.03747,-0.0479 0.07561,-0.0954 0.110095,-0.14556 0.02176,-0.0365 0.04241,-0.0727 0.0541,-0.11393 0.01502,-0.0457 0.02893,-0.0919 0.03917,-0.13897 0.01062,-0.0474 0.01958,-0.0953 0.02633,-0.14344 0.007,-0.0496 0.01319,-0.0993 0.01648,-0.14923 0.0048,-0.0659 0.0088,-0.132 0.01992,-0.19721 0.01502,-0.0715 0.03575,-0.14143 0.06159,-0.20982 0.02512,-0.0659 0.05247,-0.13102 0.08449,-0.19397 0.03406,-0.0662 0.07056,-0.13108 0.111524,-0.19326 0.04175,-0.0631 0.08576,-0.12448 0.132839,-0.18368 0.04593,-0.0585 0.09233,-0.11658 0.140348,-0.17337 0.04626,-0.0544 0.09365,-0.10777 0.141043,-0.16115 0.04205,-0.0475 0.08387,-0.0952 0.124947,-0.14362 0.03816,-0.0453 0.07583,-0.091 0.112238,-0.1378 0.02855,-0.0371 0.05627,-0.0747 0.07948,-0.11548 0.02425,-0.0401 0.04791,-0.0806 0.07006,-0.12186 0.02212,-0.0415 0.04368,-0.0834 0.06473,-0.12546 0.02221,-0.0446 0.04423,-0.0894 0.06743,-0.13355 0.02472,-0.0467 0.05032,-0.0928 0.07889,-0.13727 0.0278,-0.0437 0.05655,-0.0869 0.08746,-0.128498 0.03093,-0.04155 0.06245,-0.0827 0.09638,-0.121889 0.03402,-0.03932 0.0686,-0.07821 0.105865,-0.114527 0.03327,-0.03263 0.06706,-0.06473 0.10158,-0.09607 0.02972,-0.0271 0.05952,-0.0541 0.08971,-0.08063 0.02154,-0.01936 0.04214,-0.0397 0.06294,-0.05984 0.01903,-0.01872 0.03818,-0.03727 0.05644,-0.05673 0.01392,-0.01465 0.02751,-0.02978 0.04084,-0.04505 0.01227,-0.0141 0.02432,-0.02813 0.03633,-0.04234 0.0099,-0.01209 0.01987,-0.02403 0.02981,-0.03604 0.01264,-0.0152 0.02529,-0.03022 0.03915,-0.04422 0.257128,-0.261978 0.627621,0.101653 0.370494,0.363633 z"
       inkscape:connector-curvature="0" />
    <path
       style="fill:#000000;stroke-width:0.4845202"
       id="path4094"
       d="m 8.9757359,105.17004 c -0.00166,-0.007 2.161e-4,-9.6e-4 2.424e-4,-0.001 0.0024,0.007 0.00564,0.0141 0.0087,0.0211 0.005,0.0115 0.01053,0.0227 0.01606,0.034 0.0061,0.0123 0.012856,0.0242 0.019536,0.0362 0.00747,0.0141 0.012507,0.0197 0.023739,0.0351 0.016811,0.023 0.034266,0.0455 0.05192,0.0679 0.020948,0.0263 0.0438,0.051 0.066682,0.0756 0.033629,0.0357 0.068244,0.0705 0.1026072,0.10552 0.038519,0.0391 0.077246,0.0779 0.1158636,0.11691 0.041375,0.0415 0.082154,0.0836 0.1231191,0.12557 0.042103,0.0433 0.083253,0.0875 0.1246482,0.13145 0.039288,0.0422 0.079066,0.0838 0.1192753,0.12511 0.039577,0.0409 0.080425,0.0805 0.1216193,0.11978 0.041866,0.0399 0.084615,0.0789 0.1281698,0.11696 0.045357,0.0397 0.093101,0.0765 0.1409562,0.11308 0.05184,0.0391 0.104145,0.0777 0.15757,0.11464 0.05763,0.0393 0.115862,0.0777 0.174473,0.11552 0.0612,0.0396 0.12277,0.0786 0.184437,0.11753 0.06281,0.0395 0.126011,0.0784 0.189306,0.11705 0.06443,0.0392 0.129064,0.078 0.193844,0.1166 0.06508,0.0388 0.130922,0.0763 0.196998,0.11341 0.0672,0.0377 0.135108,0.0742 0.20326,0.11013 0.06899,0.0364 0.138709,0.0714 0.208653,0.10597 0.0711,0.0351 0.144572,0.0652 0.218101,0.0947 0.08086,0.0303 0.163239,0.0562 0.245748,0.0816 0.08476,0.0261 0.170201,0.0498 0.256321,0.0709 0.084,0.0198 0.168468,0.0376 0.252934,0.0553 0.0808,0.017 0.161776,0.0331 0.242715,0.0494 0.07564,0.0152 0.15117,0.0308 0.226654,0.0467 0.0707,0.0148 0.14129,0.0305 0.211448,0.0478 0.06598,0.0169 0.131429,0.0358 0.196292,0.0566 0.05902,0.0191 0.117244,0.0406 0.175093,0.063 0.05368,0.0208 0.106561,0.0436 0.158944,0.0675 0.06192,0.0267 0.116532,0.0664 0.168564,0.10872 0.04707,0.0375 0.08505,0.0842 0.120817,0.13218 0.02746,0.0374 0.05237,0.0766 0.07569,0.11669 0.02257,0.0401 0.04226,0.0817 0.06041,0.12401 0.0154,0.037 0.02978,0.0744 0.04477,0.11152 0.01538,0.0366 0.03038,0.0734 0.04472,0.11043 0.01538,0.0397 0.02855,0.0803 0.04064,0.12114 0.01319,0.044 0.02177,0.089 0.02835,0.13437 0.0097,0.0577 0.0053,0.11574 -0.004,0.17308 -0.0086,0.0515 -0.02445,0.10088 -0.04388,0.14915 -0.02023,0.0449 -0.04613,0.0869 -0.07298,0.12812 -0.02157,0.033 -0.04542,0.0645 -0.06817,0.0967 -0.01946,0.0284 -0.03875,0.057 -0.0586,0.0851 -0.02159,0.0308 -0.04474,0.0604 -0.06865,0.0894 -0.02397,0.0293 -0.05026,0.0564 -0.07781,0.0822 -0.03934,0.0379 -0.08728,0.0632 -0.137606,0.0829 -0.03879,0.0147 -0.07964,0.0214 -0.120793,0.0247 -0.0422,0.004 -0.084,-0.002 -0.125062,-0.011 -0.04579,-0.011 -0.08778,-0.031 -0.127388,-0.056 -0.02903,-0.0192 -0.05537,-0.0419 -0.08119,-0.0652 -0.02144,-0.0196 -0.04223,-0.0397 -0.06309,-0.0599 -0.02365,-0.0231 -0.0474,-0.0461 -0.07152,-0.0689 -0.02955,-0.0276 -0.05923,-0.0551 -0.08927,-0.082 -0.03244,-0.0295 -0.06679,-0.057 -0.101642,-0.0835 -0.04389,-0.0324 -0.08871,-0.0637 -0.133751,-0.0947 -0.04769,-0.0326 -0.09607,-0.0642 -0.144695,-0.0954 -0.04806,-0.0309 -0.09685,-0.0606 -0.146028,-0.0896 -0.04888,-0.0288 -0.09847,-0.0564 -0.148305,-0.0835 -0.04802,-0.026 -0.09702,-0.0501 -0.146264,-0.0737 -0.04936,-0.0237 -0.09939,-0.046 -0.149749,-0.0675 -0.04888,-0.021 -0.09845,-0.0403 -0.148528,-0.0582 -0.05232,-0.0186 -0.105627,-0.0341 -0.15873,-0.0502 -0.05964,-0.0178 -0.11896,-0.0367 -0.178157,-0.056 -0.06014,-0.0196 -0.120019,-0.04 -0.179764,-0.0607 -0.05894,-0.0204 -0.117801,-0.0411 -0.176693,-0.0617 -0.06156,-0.0216 -0.122963,-0.0436 -0.183866,-0.0669 -0.06061,-0.0237 -0.120399,-0.0493 -0.179677,-0.0761 -0.05685,-0.0261 -0.112866,-0.0539 -0.168121,-0.0833 -0.05409,-0.0295 -0.106945,-0.0612 -0.15894,-0.0943 -0.0533,-0.0337 -0.104257,-0.0708 -0.153381,-0.11032 -0.04587,-0.0375 -0.08974,-0.0773 -0.133033,-0.11778 -0.04497,-0.0418 -0.08763,-0.0859 -0.128329,-0.13183 -0.03876,-0.0444 -0.07583,-0.0902 -0.112188,-0.13653 -0.03629,-0.0462 -0.07072,-0.0938 -0.104188,-0.14205 -0.03485,-0.0496 -0.06617,-0.10154 -0.096099,-0.15424 -0.028029,-0.0497 -0.054152,-0.10048 -0.079531,-0.15161 -0.025063,-0.0505 -0.048353,-0.10186 -0.070787,-0.15357 -0.02183,-0.0505 -0.04239,-0.1016 -0.062536,-0.15282 -0.020014,-0.0508 -0.03811,-0.10239 -0.055813,-0.15405 -0.016591,-0.049 -0.031657,-0.0985 -0.046552,-0.14811 -0.01357,-0.0464 -0.027414,-0.0927 -0.041766,-0.13881 -0.013734,-0.0453 -0.028881,-0.0902 -0.04432,-0.13492 -0.014778,-0.0438 -0.031609,-0.0868 -0.048992,-0.12957 -0.016976,-0.0421 -0.036056,-0.0833 -0.056003,-0.12401 -0.020065,-0.0418 -0.042505,-0.0823 -0.065585,-0.12244 -0.023971,-0.0416 -0.049486,-0.0823 -0.07557,-0.12258 -0.023821,-0.0384 -0.051354,-0.0741 -0.079691,-0.1092 -0.035847,-0.0428 -0.071498,-0.0857 -0.1061562,-0.12947 -0.035799,-0.0452 -0.069152,-0.0923 -0.1013088,-0.14013 -0.031441,-0.0472 -0.058293,-0.0972 -0.08384,-0.14774 -0.02806,-0.0528 -0.048369,-0.10871 -0.06422,-0.16623 -0.011592,-0.0426 -0.01758,-0.0865 -0.026703,-0.12963 -0.00308,-0.0141 -0.00672,-0.028 -0.01031,-0.0419 -0.091056,-0.35561 0.4118492,-0.48438 0.5029041,-0.12878 v 0 c 0.00553,0.0216 0.011061,0.0433 0.015676,0.0651 0.00681,0.0332 0.012251,0.0666 0.01953,0.0996 0.00619,0.0239 0.014357,0.0465 0.026727,0.0682 0.015785,0.0315 0.032135,0.0628 0.051418,0.0923 0.024455,0.0366 0.04992,0.0725 0.077193,0.10706 0.033701,0.0426 0.068643,0.0842 0.1033672,0.12597 0.039553,0.0492 0.077697,0.0995 0.1113349,0.15295 0.031009,0.048 0.061338,0.0964 0.08983,0.14597 0.028802,0.0502 0.056688,0.10092 0.081839,0.15307 0.025114,0.0515 0.049158,0.1035 0.07058,0.15665 0.02082,0.0513 0.04094,0.103 0.05872,0.15549 0.01718,0.0498 0.03397,0.0997 0.0493,0.15012 0.01482,0.0477 0.02919,0.0956 0.0432,0.14352 0.013,0.0433 0.0261,0.0865 0.04053,0.12934 0.01516,0.0444 0.03065,0.0886 0.0478,0.13226 0.01796,0.0457 0.03628,0.0913 0.05574,0.13635 0.01885,0.0436 0.03845,0.0868 0.05954,0.12934 0.02108,0.0426 0.04281,0.0848 0.06607,0.12625 0.02215,0.0392 0.04524,0.0778 0.07118,0.11458 0.02761,0.0399 0.05603,0.0792 0.086,0.11738 0.0301,0.0384 0.06077,0.0764 0.0928,0.11321 0.02958,0.0336 0.06089,0.0656 0.09367,0.0962 0.03413,0.0319 0.06865,0.0634 0.104715,0.0932 0.03392,0.0276 0.06934,0.053 0.106263,0.0764 0.04043,0.0259 0.08173,0.0504 0.123714,0.0737 0.04543,0.0242 0.09163,0.047 0.138362,0.0686 0.05009,0.0227 0.100652,0.0444 0.151846,0.0645 0.05596,0.0216 0.112478,0.0416 0.16904,0.0615 0.05858,0.0205 0.117127,0.041 0.175751,0.0614 0.05648,0.0196 0.113088,0.0389 0.169943,0.0574 0.05592,0.0181 0.111945,0.0361 0.168291,0.0529 0.06128,0.0186 0.122758,0.0367 0.18308,0.0583 0.0598,0.0215 0.119033,0.0444 0.177419,0.0695 0.05722,0.0245 0.114093,0.0498 0.170181,0.0768 0.05728,0.0275 0.114263,0.0556 0.170107,0.0859 0.05515,0.03 0.11002,0.0606 0.164114,0.0925 0.0547,0.0323 0.108976,0.0654 0.162434,0.0997 0.05303,0.0341 0.105797,0.0685 0.157803,0.10415 0.05252,0.036 0.104774,0.0725 0.155804,0.11059 0.0458,0.0351 0.09091,0.0713 0.133616,0.11013 0.03268,0.0295 0.06506,0.0593 0.09721,0.0894 0.02577,0.0242 0.05124,0.0488 0.0765,0.0736 0.01678,0.0165 0.03348,0.0324 0.05064,0.0482 0.004,0.004 0.0176,0.0147 0.01731,0.0165 -0.01159,-0.007 -0.02336,-0.0128 -0.0365,-0.0146 -0.01042,-0.001 -0.02083,-0.002 -0.03137,-0.001 -0.0079,0.001 -0.01604,0.004 -0.02342,0.005 -0.01033,0.005 -0.04052,0.0244 -0.0344,0.0225 0.01088,-0.011 0.02118,-0.0209 0.03057,-0.0324 0.0154,-0.0185 0.03006,-0.0374 0.04393,-0.057 0.02007,-0.0284 0.03935,-0.0574 0.05918,-0.086 0.01902,-0.0268 0.03879,-0.0532 0.05718,-0.0804 0.01075,-0.0165 0.02119,-0.033 0.031,-0.0499 -0.003,0.0119 0.0083,-0.0234 0.0088,-0.031 0.0036,-0.0181 0.0039,0.0192 0.0016,-0.0137 -0.0025,-0.0202 -0.0065,-0.0401 -0.01221,-0.0597 -0.0079,-0.0272 -0.01668,-0.0542 -0.02691,-0.0807 -0.01337,-0.0347 -0.02765,-0.069 -0.04189,-0.10327 -0.01364,-0.0339 -0.02686,-0.0679 -0.04068,-0.10167 -0.01005,-0.0237 -0.02097,-0.047 -0.03331,-0.0696 -0.0126,-0.0228 -0.0274,-0.0444 -0.04234,-0.0657 -0.01029,-0.0139 -0.01964,-0.0289 -0.03248,-0.0396 -0.01764,-0.0147 -0.03454,-0.0301 -0.05579,-0.0385 -0.04312,-0.0198 -0.08675,-0.0385 -0.130952,-0.0557 -0.04828,-0.0188 -0.09688,-0.0367 -0.146143,-0.0528 -0.05365,-0.0174 -0.107871,-0.0328 -0.162433,-0.047 -0.06416,-0.0159 -0.128843,-0.0299 -0.193515,-0.0436 -0.07395,-0.0156 -0.147954,-0.0309 -0.222054,-0.0458 -0.08227,-0.0165 -0.164573,-0.0329 -0.246696,-0.0502 -0.09032,-0.0189 -0.180637,-0.0379 -0.270422,-0.0592 -0.0957,-0.0236 -0.190706,-0.0498 -0.284901,-0.0788 -0.09648,-0.0297 -0.192781,-0.0601 -0.287094,-0.0962 -0.08572,-0.0346 -0.171296,-0.0699 -0.254159,-0.11087 -0.07411,-0.0366 -0.14798,-0.0737 -0.221072,-0.11231 -0.07211,-0.0381 -0.143952,-0.0766 -0.215056,-0.11654 -0.06996,-0.0393 -0.139665,-0.079 -0.208576,-0.12009 -0.06649,-0.0396 -0.132834,-0.0795 -0.19897,-0.1197 -0.06532,-0.0399 -0.130541,-0.08 -0.195349,-0.1208 -0.06322,-0.0399 -0.126329,-0.0799 -0.189074,-0.12048 -0.06343,-0.0409 -0.126472,-0.0825 -0.188812,-0.12511 -0.059964,-0.0417 -0.1189399,-0.0848 -0.1771244,-0.12891 -0.056884,-0.0435 -0.113527,-0.0875 -0.1674099,-0.13472 -0.049074,-0.043 -0.097331,-0.0869 -0.1445229,-0.13191 -0.045827,-0.0437 -0.091261,-0.0878 -0.1353116,-0.13333 -0.042234,-0.0434 -0.084055,-0.0872 -0.1253312,-0.13145 -0.039211,-0.0416 -0.078184,-0.0835 -0.1180319,-0.12456 -0.040108,-0.0411 -0.080035,-0.0823 -0.1205462,-0.12295 -0.039202,-0.0396 -0.078521,-0.079 -0.1176162,-0.11868 -0.037656,-0.0384 -0.075576,-0.0765 -0.1123495,-0.11572 -0.032415,-0.0349 -0.064519,-0.0702 -0.094061,-0.10755 -0.021786,-0.0277 -0.043315,-0.0555 -0.064056,-0.084 -0.020569,-0.0283 -0.040995,-0.0569 -0.057492,-0.0879 -0.010878,-0.0195 -0.021673,-0.0391 -0.031576,-0.0592 -0.00831,-0.0169 -0.016481,-0.0337 -0.024061,-0.051 -0.00745,-0.0169 -0.014742,-0.0336 -0.020984,-0.0509 -0.00815,-0.0221 -0.015694,-0.0446 -0.020807,-0.0676 -0.080698,-0.3581 0.4257303,-0.47222 0.5064287,-0.11412 z"
       inkscape:connector-curvature="0" />
  </g>
</svg>
