<?xml version="1.0" encoding="UTF-8" standalone="no"?>
<!-- Created with Inkscape (http://www.inkscape.org/) -->

<svg
   xmlns:dc="http://purl.org/dc/elements/1.1/"
   xmlns:cc="http://creativecommons.org/ns#"
   xmlns:rdf="http://www.w3.org/1999/02/22-rdf-syntax-ns#"
   xmlns:svg="http://www.w3.org/2000/svg"
   xmlns="http://www.w3.org/2000/svg"
   xmlns:sodipodi="http://sodipodi.sourceforge.net/DTD/sodipodi-0.dtd"
   xmlns:inkscape="http://www.inkscape.org/namespaces/inkscape"
   id="svg6023"
   version="1.1"
   inkscape:version="0.91 r13725"
   width="102.62068"
   height="102.75638"
   viewBox="0 0 102.62068 102.75638"
   sodipodi:docname="iss.svg">
  <metadata
     id="metadata6029">
    <rdf:RDF>
      <cc:Work
         rdf:about="">
        <dc:format>image/svg+xml</dc:format>
        <dc:type
           rdf:resource="http://purl.org/dc/dcmitype/StillImage" />
        <dc:title></dc:title>
      </cc:Work>
    </rdf:RDF>
  </metadata>
  <defs
     id="defs6027" />
  <sodipodi:namedview
     pagecolor="#ffffff"
     bordercolor="#666666"
     borderopacity="1"
     objecttolerance="10"
     gridtolerance="10"
     guidetolerance="10"
     inkscape:pageopacity="0"
     inkscape:pageshadow="2"
     inkscape:window-width="1529"
     inkscape:window-height="831"
     id="namedview6025"
     showgrid="false"
     inkscape:zoom="0.39864865"
     inkscape:cx="-642.47158"
     inkscape:cy="-138.00305"
     inkscape:window-x="0"
     inkscape:window-y="0"
     inkscape:window-maximized="0"
     inkscape:current-layer="svg6023"
     fit-margin-top="0"
     fit-margin-left="0"
     fit-margin-right="0"
     fit-margin-bottom="0" />
  <path
     inkscape:connector-curvature="0"
     id="path6575"
     d="M 85.348633,102.20971 C 84.917816,101.89001 77.589415,94.637241 69.063274,86.092456 58.063431,75.068565 53.519812,70.387286 53.418734,69.973907 c -0.202969,-0.830056 0.355382,-1.750456 1.866891,-3.077491 0.694556,-0.609777 1.262808,-1.265293 1.262808,-1.456702 0,-0.332999 -2.017941,-2.414663 -2.340752,-2.414663 -0.08557,0 -1.746063,1.581604 -3.689977,3.51467 -4.27789,4.254002 -4.138989,4.204549 -6.205794,2.209215 -0.743702,-0.717995 -1.483631,-1.305447 -1.644242,-1.305447 -0.160631,0 -0.773565,0.487591 -1.362105,1.083535 -1.055862,1.069137 -1.066948,1.09298 -0.835186,1.795247 0.19114,0.579145 0.17919,0.816876 -0.06409,1.276314 -0.164421,0.310533 -4.758391,5.015674 -10.208777,10.455877 -9.091338,9.074316 -9.96484,9.891275 -10.57593,9.891275 -0.72089,0 -1.642737,-0.817805 -6.604804,-5.859441 -2.106993,-2.14078 -2.259428,-2.348981 -2.259428,-3.085997 0,-0.775549 0.186879,-0.977007 9.991693,-10.770944 6.838997,-6.831409 10.17064,-10.024613 10.558825,-10.120042 0.321517,-0.07905 0.792565,-0.0367 1.087755,0.0978 0.487475,0.222104 0.595348,0.163326 1.692325,-0.922206 0.644404,-0.637687 1.17165,-1.250371 1.17165,-1.361516 0,-0.111145 -0.580427,-0.791804 -1.289827,-1.512572 -1.219144,-1.238689 -1.399461,-1.574321 -1.344186,-2.502144 0.01287,-0.214297 1.50807,-1.882594 3.336945,-3.722952 1.822606,-1.834063 3.313826,-3.470262 3.313826,-3.636015 0,-0.37708 -1.822683,-2.194217 -2.200902,-2.194217 -0.153541,0 -0.931608,0.63264 -1.729034,1.405871 -1.683545,1.632433 -2.173109,1.75045 -3.420719,0.824581 C 31.494884,48.266237 24.171748,41.01347 15.652056,32.468686 4.9973748,21.782633 0.12139953,16.759757 0.03263142,16.378675 -0.04511119,16.04493 0.01897124,15.605724 0.19382601,15.274066 0.67099724,14.368929 8.5850659,6.6344347 9.1863546,6.4855823 9.482149,6.4123566 9.8888463,6.4048259 10.090126,6.4688481 10.291406,6.532871 17.708857,13.840302 26.573352,22.707588 45.43134,41.571514 43.738298,39.30605 41.042068,42.068378 l -1.648539,1.68895 1.244709,1.244703 1.244696,1.244716 4.169557,-4.14873 c 2.544238,-2.531552 4.377552,-4.200182 4.703149,-4.280728 0.719461,-0.177966 1.247162,0.126772 2.731356,1.577293 l 1.256564,1.228078 2.408732,-2.402443 c 1.324787,-1.321349 2.408713,-2.499102 2.408713,-2.617234 0,-0.118139 -0.316324,-0.52138 -0.702933,-0.896103 -0.743343,-0.72048 -0.926369,-1.617293 -0.494667,-2.423929 0.174591,-0.326224 0.05649,-0.55137 -0.730426,-1.392659 -0.516275,-0.551941 -1.029233,-1.003521 -1.139917,-1.003521 -0.110684,0 -0.910724,0.677828 -1.77786,1.506283 -2.577957,2.462969 -1.180187,3.40045 -13.999057,-9.389178 C 34.510031,15.811909 29.675173,10.830779 29.516432,10.465292 29.32672,10.028532 29.295506,9.6740972 29.419146,9.3606829 29.519263,9.1068617 31.624525,6.8883002 34.097529,4.4305441 39.055297,-0.49668797 39.025549,-0.47835143 40.401052,0.54417342 41.7743,1.5650261 61.943908,21.930317 62.161331,22.515577 c 0.310681,0.836211 -0.120578,1.625387 -1.775247,3.248626 -0.785175,0.770265 -1.427594,1.49668 -1.427594,1.614254 0,0.117577 0.452605,0.659569 1.005775,1.204428 l 1.005781,0.99065 6.073763,-6.05762 c 3.340576,-3.331692 6.318924,-6.149762 6.618558,-6.262376 0.377291,-0.141799 0.738322,-0.137284 1.174256,0.01469 0.614407,0.21418 0.668734,0.181061 2.266962,-1.382007 0.900599,-0.880796 1.898182,-1.796459 2.216849,-2.034809 1.135742,-0.849491 1.285101,-0.754334 5.671229,3.612826 2.235062,2.225402 4.117336,4.259669 4.182832,4.520589 0.177499,0.70724 -0.28085,1.39541 -2.181363,3.275005 l -1.718371,1.699462 0.126406,1.075387 0.126387,1.075392 -6.05436,6.066336 c -3.329894,3.336497 -6.054366,6.2102 -6.054366,6.386015 0,0.306217 1.836266,2.182183 2.135995,2.182183 0.07963,0 0.841328,-0.677828 1.692665,-1.506283 2.56771,-2.498775 1.15108,-3.45705 14.237409,9.630861 10.575793,10.577077 11.135783,11.173392 11.135783,11.857822 0,0.671477 -0.3078,1.029017 -4.50881,5.237466 -2.479851,2.484238 -4.705634,4.567303 -4.946201,4.629033 -0.240562,0.06174 -0.610347,0.05738 -0.821731,-0.0097 -0.50348,-0.159791 -22.379022,-22.067055 -22.581408,-22.614135 -0.250507,-0.6772 0.289432,-1.594052 1.827025,-3.102455 0.785175,-0.770266 1.427601,-1.496369 1.427601,-1.613566 0,-0.117197 -0.488565,-0.695574 -1.085674,-1.285274 -1.055945,-1.042836 -1.098424,-1.063271 -1.550971,-0.746282 -0.747782,0.523768 -1.49261,0.404669 -2.357857,-0.377029 -0.42793,-0.386609 -0.904153,-0.702932 -1.058257,-0.702932 -0.30381,0 -4.792499,4.408388 -4.792499,4.706761 0,0.09989 0.587452,0.790106 1.305447,1.53382 1.147287,1.188391 1.305445,1.446052 1.305445,2.126768 0,0.739257 -0.18302,0.957403 -4.016757,4.787543 -2.209221,2.207153 -4.016764,4.107308 -4.016764,4.222577 0,0.322894 2.082469,2.304664 2.421764,2.304664 0.165171,0 0.928117,-0.63264 1.695418,-1.405865 2.328436,-2.346413 0.251647,-3.963175 19.028018,14.813193 15.256466,15.25646 16.219063,16.260409 16.219063,16.915649 0,0.640133 -0.362471,1.059045 -4.473609,5.170189 -4.937081,4.937067 -4.907859,4.919007 -6.29129,3.892327 z m 3.735082,-6.547994 2.503988,-2.509996 -1.900506,-1.908441 c -1.045282,-1.049637 -1.994322,-1.908435 -2.109002,-1.908435 -0.217026,0 -4.920815,4.732416 -4.920815,4.950754 0,0.158972 3.650053,3.886119 3.80572,3.886119 0.06417,0 1.243448,-1.129497 2.620615,-2.510001 z M 82.457126,84.013215 C 80.526104,82.079829 78.8562,80.497964 78.74622,80.497964 c -0.268663,0 -4.925714,4.656301 -4.925714,4.9249 0,0.11632 1.584369,1.786506 3.52081,3.711521 l 3.52081,3.500035 2.552974,-2.55298 2.552974,-2.552974 -3.510948,-3.515251 z m -56.636858,-2.213263 5.915684,-5.928191 -2.456091,-2.456084 -2.456066,-2.456079 -6.073201,6.073195 -6.073208,6.073201 2.304517,2.311075 c 1.267489,1.271088 2.443596,2.311067 2.613589,2.311067 0.170006,0 2.971156,-2.667686 6.224776,-5.928184 z M 73.36605,79.84793 75.829551,77.390347 72.768877,74.324882 c -1.683385,-1.68601 -3.139984,-3.065471 -3.236886,-3.065471 -0.221867,0 -4.027043,3.721025 -4.582423,4.481083 l -0.412661,0.564736 2.976196,3.000135 c 1.636909,1.650077 3.069191,3.000142 3.182821,3.000142 0.113656,0 1.315214,-1.105911 2.670126,-2.457577 z m -7.931561,-12.855304 -2.459279,-2.45928 -2.560665,2.563394 -2.560666,2.563393 2.468119,2.447721 2.468118,2.447721 2.551825,-2.551834 2.551834,-2.551828 -2.459286,-2.459287 z m -30.030571,5.227628 c 0.583397,-0.576142 1.060703,-1.13959 1.060703,-1.252093 0,-0.263207 -4.447979,-4.729701 -4.710091,-4.729701 -0.26336,0 -2.319239,2.038511 -2.319239,2.299636 0,0.263207 4.447979,4.729701 4.710116,4.729701 0.108776,0 0.675119,-0.471395 1.258511,-1.047543 z m 62.717994,-8.498931 c 0,-0.0067 -0.353231,-0.357169 -0.784977,-0.778752 l -0.784977,-0.766507 -2.662671,2.641251 -2.662666,2.641243 0.780417,0.799233 0.780436,0.799232 2.667225,-2.661724 c 1.466961,-1.463951 2.667213,-2.667239 2.667213,-2.673976 z m -59.046391,2.215883 1.090893,-1.104611 -1.090893,-1.104612 c -0.599985,-0.607535 -1.187436,-1.104604 -1.305447,-1.104604 -0.118016,0 -0.705468,0.497069 -1.305453,1.104604 l -1.090886,1.104612 1.090886,1.104611 c 0.599985,0.607536 1.187437,1.104611 1.305453,1.104611 0.118011,0 0.705462,-0.497075 1.305447,-1.104611 z m 14.509524,-7.078497 c 3.94954,-3.948406 7.180988,-7.269059 7.180988,-7.37923 0,-0.338348 -9.31457,-9.542426 -9.656958,-9.542426 -0.270046,0 -13.920266,13.575188 -14.350968,14.272088 -0.08937,0.144607 1.683846,2.063244 4.649782,5.031114 2.636825,2.638554 4.83968,4.797369 4.895211,4.797369 0.05553,0 3.332405,-3.230515 7.281945,-7.178915 z M 49.41121,56.29089 c -3.404266,-1.260194 -4.439365,-5.758921 -1.907583,-8.290697 1.071174,-1.071174 2.13483,-1.516305 3.622176,-1.515857 2.939084,6.41e-4 5.008623,2.061323 5.014585,4.99253 0.0045,2.032087 -1.023527,3.697854 -2.870578,4.652997 -0.864408,0.447001 -2.860978,0.530326 -3.8586,0.161027 z m 1.01166,-5.516963 c 0.199933,-0.22092 0.262317,-0.401672 0.13862,-0.401672 -0.123698,0 -0.321645,0.180752 -0.439874,0.401672 -0.118234,0.220926 -0.180617,0.401678 -0.138619,0.401678 0.04201,0 0.23994,-0.180752 0.439873,-0.401678 z m 41.821636,12.404767 c 1.354734,-1.351486 2.463162,-2.550399 2.463162,-2.664247 0,-0.113841 -1.085008,-1.28918 -2.411147,-2.61186 l -2.411159,-2.404877 -2.657971,2.657964 -2.657952,2.657965 2.404877,2.411153 c 1.322681,1.326133 2.495349,2.411154 2.60593,2.411154 0.110601,0 1.309508,-1.105764 2.66426,-2.457252 z M 83.20679,54.140985 c 1.354734,-1.351493 2.463162,-2.547896 2.463162,-2.658676 0,-0.262752 -5.857963,-6.131005 -6.12026,-6.131005 -0.110299,0 -1.354234,1.151124 -2.764293,2.558058 l -2.563759,2.558053 3.060629,3.065413 c 1.683347,1.685972 3.150788,3.065407 3.260991,3.065407 0.110198,0 1.308777,-1.105764 2.66353,-2.45725 z M 63.379841,39.429517 c -0.601592,-0.609155 -1.188743,-1.10755 -1.304768,-1.10755 -0.116044,0 -1.246682,1.038654 -2.512563,2.308122 l -2.301564,2.308121 1.196575,1.209192 1.196569,1.209191 2.409756,-2.409769 2.409774,-2.409763 -1.093779,-1.107544 z m -27.570896,2.661244 2.463104,-2.457187 -2.256094,-2.262511 c -1.240841,-1.244376 -2.396846,-2.262504 -2.568901,-2.262504 -0.351527,0 -4.815114,4.52914 -4.815114,4.885841 0,0.282093 4.232984,4.553547 4.512528,4.553547 0.110761,0 1.309769,-1.105732 2.664477,-2.457186 z M 75.469686,34.56073 c 3.29047,-3.283752 5.982665,-6.045984 5.982665,-6.138291 0,-0.217237 -6.951347,-7.171707 -7.168494,-7.171707 -0.09054,0 -2.874593,2.711125 -6.186818,6.024723 l -6.022203,6.024722 3.611306,3.615502 c 1.986227,1.988533 3.653966,3.615509 3.706103,3.615509 0.05213,0 2.786971,-2.686706 6.077441,-5.970458 z m -0.946248,-3.634178 c -0.331385,-0.209923 -1.167372,-0.973811 -1.857752,-1.697538 -1.037431,-1.087532 -1.255238,-1.434773 -1.255238,-2.001166 0,-0.701397 0.515571,-1.361225 1.273554,-1.629898 0.612435,-0.21708 1.655629,0.436064 3.039502,1.903058 1.079365,1.144182 1.31041,1.508451 1.31041,2.066021 0,1.366978 -1.3471,2.096481 -2.510476,1.359523 z m -45.235643,4.831714 c 1.296187,-1.299574 2.356717,-2.450821 2.356717,-2.558328 0,-0.258544 -6.062602,-6.32574 -6.320961,-6.32574 -0.269399,0 -4.92597,4.656419 -4.92597,4.925812 0,0.261951 6.081232,6.321121 6.344151,6.321121 0.104151,0 1.249877,-1.063291 2.546063,-2.362865 z m -9.343651,-9.540182 2.458742,-2.455653 -3.360282,-3.364651 c -1.848152,-1.850556 -3.496852,-3.365481 -3.663771,-3.366502 -0.332949,-0.002 -4.822321,4.546697 -4.822321,4.886096 0,0.276787 6.670057,6.985954 6.816284,6.856263 0.06199,-0.05495 1.219067,-1.204943 2.571348,-2.555553 z m 35.29904,-0.549107 2.60529,-2.61109 -3.007346,-3.012377 c -1.65406,-1.656807 -3.144063,-3.011378 -3.311136,-3.010157 -0.300896,0.0022 -5.224304,4.843534 -5.224304,5.137212 0,0.238223 5.881081,6.107499 6.119779,6.107499 0.116825,0 1.384801,-1.174988 2.817717,-2.611087 z M 83.779544,23.824 c 1.591421,-1.466915 1.626087,-1.324071 -0.947272,-3.904732 -1.252426,-1.255992 -2.366157,-2.283622 -2.474932,-2.283622 -0.263354,0 -2.319233,2.038509 -2.319233,2.299634 0,0.238337 4.435324,4.729699 4.670686,4.729699 0.08712,0 0.568956,-0.378441 1.070751,-0.840979 z M 11.212369,17.682839 c 1.296189,-1.299574 2.356711,-2.453578 2.356711,-2.564453 0,-0.110874 -0.904391,-1.102595 -2.009763,-2.203824 l -2.0097868,-2.002233 -2.5592795,2.562561 -2.5593,2.562563 2.0276213,2.004125 c 1.1151937,1.102268 2.1107479,2.004125 2.2123718,2.004125 0.1016041,0 1.2452364,-1.063289 2.5414252,-2.362864 z m 33.534035,-2.203304 c 1.409925,-1.406784 2.563476,-2.648054 2.563476,-2.75838 0,-0.32781 -4.485559,-4.7259769 -4.816842,-4.7230003 -0.315773,0.00282 -5.22506,4.8315323 -5.22506,5.1392953 0,0.180864 4.636487,4.899873 4.814185,4.899873 0.0554,0 1.254335,-1.151005 2.664241,-2.557788 z M 40.682222,6.1376148 c 0,-0.086062 -0.312103,-0.4940623 -0.69355,-0.9066688 l -0.693538,-0.7501936 -2.72786,2.7113141 -2.727866,2.7113142 0.831273,0.7797513 0.831247,0.779752 2.59015,-2.5843971 c 1.424584,-1.421418 2.590144,-2.6548104 2.590144,-2.7408721 z"
     style="fill:#0f0f11" />
</svg>
