<?xml version="1.0" encoding="UTF-8" standalone="no"?>
<!-- Created with Inkscape (http://www.inkscape.org/) -->

<svg
   xmlns:dc="http://purl.org/dc/elements/1.1/"
   xmlns:cc="http://creativecommons.org/ns#"
   xmlns:rdf="http://www.w3.org/1999/02/22-rdf-syntax-ns#"
   xmlns:svg="http://www.w3.org/2000/svg"
   xmlns="http://www.w3.org/2000/svg"
   xmlns:sodipodi="http://sodipodi.sourceforge.net/DTD/sodipodi-0.dtd"
   xmlns:inkscape="http://www.inkscape.org/namespaces/inkscape"
   id="svg6023"
   version="1.1"
   inkscape:version="0.91 r13725"
   width="840"
   height="592"
   viewBox="0 0 840 592"
   sodipodi:docname="iss.svg">
  <metadata
     id="metadata6029">
    <rdf:RDF>
      <cc:Work
         rdf:about="">
        <dc:format>image/svg+xml</dc:format>
        <dc:type
           rdf:resource="http://purl.org/dc/dcmitype/StillImage" />
        <dc:title></dc:title>
      </cc:Work>
    </rdf:RDF>
  </metadata>
  <defs
     id="defs6027" />
  <sodipodi:namedview
     pagecolor="#ffffff"
     bordercolor="#666666"
     borderopacity="1"
     objecttolerance="10"
     gridtolerance="10"
     guidetolerance="10"
     inkscape:pageopacity="0"
     inkscape:pageshadow="2"
     inkscape:window-width="1529"
     inkscape:window-height="831"
     id="namedview6025"
     showgrid="false"
     inkscape:zoom="0.39864865"
     inkscape:cx="-563.32203"
     inkscape:cy="296"
     inkscape:window-x="0"
     inkscape:window-y="0"
     inkscape:window-maximized="0"
     inkscape:current-layer="svg6023" />
  <path
     inkscape:connector-curvature="0"
     id="path6575"
     d="m 212.41914,214.83828 c -0.67271,-0.49921 -12.11581,-11.82421 -25.42915,-25.16666 -17.17596,-17.21351 -24.2707,-24.5232 -24.42853,-25.16868 -0.31693,-1.29611 0.55492,-2.73329 2.9151,-4.80542 1.08453,-0.95215 1.97184,-1.97572 1.97184,-2.2746 0,-0.51997 -3.15096,-3.77043 -3.65502,-3.77043 -0.13362,0 -2.72643,2.46963 -5.7618,5.48806 -6.67981,6.64251 -6.46292,6.56529 -9.69018,3.44963 -1.16127,-1.12113 -2.31665,-2.03842 -2.56744,-2.03842 -0.25082,0 -1.2079,0.76136 -2.12689,1.69191 -1.6487,1.66943 -1.66601,1.70666 -1.30412,2.80323 0.29846,0.90432 0.2798,1.27553 -0.10007,1.99293 -0.25674,0.48489 -7.4301,7.83184 -15.94073,16.32657 -14.19588,14.1693 -15.55983,15.44496 -16.51403,15.44496 -1.12565,0 -2.56509,-1.27698 -10.313224,-9.14936 -3.290012,-3.34277 -3.528036,-3.66787 -3.528036,-4.8187 0,-1.211 0.291807,-1.52557 15.60176,-16.81854 10.67891,-10.66706 15.88118,-15.65316 16.48732,-15.80217 0.50204,-0.12344 1.23757,-0.0573 1.6985,0.15271 0.76118,0.34681 0.92962,0.25503 2.64252,-1.44 1.00622,-0.99573 1.8295,-1.95242 1.8295,-2.12597 0,-0.17355 -0.90632,-1.23638 -2.01403,-2.36184 -1.90366,-1.93418 -2.18522,-2.45826 -2.09891,-3.90703 0.0201,-0.33462 2.35481,-2.93962 5.21055,-5.81329 2.84595,-2.86384 5.17445,-5.41872 5.17445,-5.67754 0,-0.5888 -2.84607,-3.42621 -3.43665,-3.42621 -0.23975,0 -1.45468,0.98785 -2.69984,2.19523 -2.62881,2.549 -3.39325,2.73328 -5.34136,1.28756 C 128.32796,130.607 116.89308,119.282 103.58981,105.93955 86.952813,89.253567 79.339109,81.410481 79.2005,80.815432 c -0.121393,-0.521134 -0.02133,-1.206943 0.251701,-1.724818 0.74509,-1.413347 13.102695,-13.490551 14.041591,-13.72298 0.461875,-0.11434 1.096922,-0.126099 1.411215,-0.02613 0.314293,0.09997 11.896443,11.510327 25.738113,25.356355 29.44624,29.455513 26.8026,25.918053 22.59251,30.231353 l -2.57415,2.63725 1.94358,1.94357 1.94356,1.94359 6.51065,-6.47813 c 3.97276,-3.95295 6.83543,-6.55847 7.34384,-6.68424 1.12342,-0.27789 1.94741,0.19795 4.26494,2.4629 l 1.96209,1.91761 3.76117,-3.75135 c 2.06862,-2.06325 3.76114,-3.90228 3.76114,-4.08674 0,-0.18447 -0.49393,-0.81412 -1.09761,-1.39924 -1.16071,-1.12501 -1.4465,-2.52536 -0.77241,-3.7849 0.27262,-0.50939 0.0882,-0.86095 -1.14054,-2.1746 -0.80615,-0.86184 -1.60712,-1.56697 -1.77995,-1.56697 -0.17283,0 -1.42207,1.05841 -2.77608,2.35202 -4.02541,3.84586 -1.84283,5.30971 -21.85915,-14.660951 -9.69068,-9.668589 -17.24018,-17.446489 -17.48805,-18.017187 -0.29623,-0.68199 -0.34497,-1.23543 -0.15191,-1.724818 0.15633,-0.396335 3.44364,-3.860559 7.30517,-7.698279 7.74142,-7.69374 7.69497,-7.665108 9.84278,-6.068463 2.14429,1.594034 33.63859,33.393887 33.97809,34.307755 0.48512,1.305721 -0.18828,2.537997 -2.772,5.072642 -1.22603,1.202747 -2.22915,2.337025 -2.22915,2.520614 0,0.183593 0.70673,1.029898 1.57049,1.880682 l 1.5705,1.546875 9.48402,-9.458812 c 5.21622,-5.202348 9.86683,-9.602688 10.3347,-9.778532 0.58913,-0.221416 1.15287,-0.214366 1.83357,0.02293 0.95938,0.334436 1.04421,0.282722 3.5398,-2.157967 1.40626,-1.375338 2.96396,-2.805121 3.46155,-3.177299 1.77343,-1.326457 2.00665,-1.177872 8.85547,5.64133 3.48999,3.474906 6.42911,6.651359 6.53138,7.058779 0.27716,1.104335 -0.43854,2.178894 -3.40614,5.113831 l -2.68319,2.653664 0.19738,1.679188 0.19735,1.679193 -9.45372,9.47242 c -5.19954,5.20985 -9.45373,9.69706 -9.45373,9.97159 0,0.47815 2.86728,3.40742 3.3353,3.40742 0.12434,0 1.31371,-1.05841 2.64305,-2.35202 4.00941,-3.90177 1.79738,-5.39809 22.23133,15.03833 16.51381,16.51582 17.38823,17.44695 17.38823,18.51567 0,1.04849 -0.48063,1.60678 -7.04039,8.17816 -3.87222,3.87907 -7.34772,7.13172 -7.72336,7.22811 -0.37563,0.0964 -0.95304,0.0896 -1.28311,-0.0152 -0.78617,-0.24951 -34.94424,-34.45711 -35.26026,-35.31136 -0.39116,-1.05743 0.45194,-2.48907 2.85285,-4.8444 1.22603,-1.20275 2.22916,-2.33654 2.22916,-2.51954 0,-0.183 -0.76288,-1.08612 -1.69525,-2.00692 -1.64883,-1.62836 -1.71516,-1.66027 -2.4218,-1.1653 -1.16764,0.81785 -2.33067,0.63188 -3.68173,-0.58872 -0.6682,-0.60368 -1.41181,-1.09761 -1.65244,-1.09761 -0.47439,0 -7.48336,6.88358 -7.48336,7.34948 0,0.15597 0.91729,1.23373 2.03842,2.39502 1.79146,1.85564 2.03842,2.25797 2.03842,3.32089 0,1.15433 -0.28578,1.49496 -6.27206,7.47562 -3.44964,3.44641 -6.27207,6.41345 -6.27207,6.59344 0,0.50419 3.25172,3.59867 3.78152,3.59867 0.25791,0 1.44923,-0.98785 2.64735,-2.19522 3.63579,-3.66386 0.39294,-6.18839 29.71174,23.1304 23.82256,23.82255 25.32563,25.39019 25.32563,26.41333 0,0.99955 -0.56599,1.65367 -6.98542,8.07311 -7.70912,7.7091 -7.66349,7.68089 -9.82368,6.07777 z m 5.83223,-10.22452 3.90991,-3.91929 -2.96759,-2.97998 c -1.63218,-1.63898 -3.11408,-2.97997 -3.29315,-2.97997 -0.33888,0 -7.68372,7.38954 -7.68372,7.73047 0,0.24823 5.69946,6.06807 5.94253,6.06807 0.1002,0 1.94161,-1.76368 4.09202,-3.9193 z m -10.34724,-18.18882 c -3.01524,-3.01893 -5.62275,-5.48897 -5.79448,-5.48897 -0.41951,0 -7.69137,7.27069 -7.69137,7.6901 0,0.18163 2.47395,2.78958 5.49765,5.79544 l 5.49765,5.46521 3.9864,-3.98641 3.9864,-3.9864 -5.48225,-5.48897 z m -88.43693,-3.45595 9.23718,-9.25671 -3.83512,-3.83511 -3.83508,-3.8351 -9.48314,9.48313 -9.48315,9.48314 3.59844,3.60868 c 1.97915,1.98477 3.81561,3.60867 4.08105,3.60867 0.26546,0 4.63938,-4.16552 9.71982,-9.2567 z m 74.24146,-3.04803 3.84669,-3.83745 -4.77916,-4.78664 c -2.62856,-2.63266 -4.903,-4.78665 -5.05431,-4.78665 -0.34644,0 -6.28812,5.81028 -7.15533,6.99709 l -0.64436,0.88182 4.64725,4.68463 c 2.55599,2.57655 4.79246,4.68464 4.96989,4.68464 0.17747,0 2.05367,-1.72685 4.16933,-3.83744 z m -12.38492,-20.07321 -3.8401,-3.8401 -3.99841,4.00267 -3.99841,4.00267 3.8539,3.82205 3.8539,3.82205 3.98461,-3.98462 3.98462,-3.98461 -3.84011,-3.84011 z m -46.89193,8.1628 c 0.91096,-0.89963 1.65626,-1.77944 1.65626,-1.95511 0,-0.41099 -6.9454,-7.3853 -7.35468,-7.3853 -0.41123,0 -3.62143,3.18308 -3.62143,3.59082 0,0.41099 6.9454,7.3853 7.35472,7.3853 0.16985,0 1.05418,-0.73607 1.96513,-1.63571 z m 97.93246,-13.27085 c 0,-0.0105 -0.55156,-0.55771 -1.22572,-1.216 l -1.22572,-1.19688 -4.15769,4.12424 -4.15768,4.12423 1.2186,1.24798 1.21863,1.24798 4.1648,-4.15621 c 2.29062,-2.28592 4.16478,-4.16482 4.16478,-4.17534 z m -92.19935,3.46004 1.7034,-1.72482 -1.7034,-1.72482 c -0.93686,-0.94865 -1.85415,-1.72481 -2.03842,-1.72481 -0.18428,0 -1.10157,0.77616 -2.03843,1.72481 l -1.70339,1.72482 1.70339,1.72482 c 0.93686,0.94865 1.85415,1.72482 2.03843,1.72482 0.18427,0 1.10156,-0.77617 2.03842,-1.72482 z m 22.65623,-11.05288 c 6.1671,-6.16533 11.21292,-11.35044 11.21292,-11.52247 0,-0.52832 -14.54445,-14.90024 -15.07908,-14.90024 -0.42167,0 -21.73612,21.19729 -22.40865,22.28548 -0.13955,0.2258 2.62928,3.2217 7.26051,7.85595 4.11733,4.12003 7.55703,7.49096 7.64374,7.49096 0.0867,0 5.20346,-5.04436 11.37056,-11.20968 z m -6.51733,-4.00958 c -5.31567,-1.96776 -6.93195,-8.9924 -2.97864,-12.9457 1.67261,-1.67261 3.33348,-2.36767 5.65593,-2.36697 4.5893,0.001 7.82083,3.2187 7.83014,7.7957 0.007,3.17305 -1.59821,5.7741 -4.48233,7.26553 -1.34975,0.69798 -4.46734,0.82809 -6.0251,0.25144 z m 1.57968,-8.61459 c 0.31219,-0.34496 0.4096,-0.6272 0.21645,-0.6272 -0.19315,0 -0.50224,0.28224 -0.68685,0.6272 -0.18462,0.34497 -0.28203,0.62721 -0.21645,0.62721 0.0656,0 0.37466,-0.28224 0.68685,-0.62721 z m 65.30336,19.36971 c 2.11538,-2.11031 3.84616,-3.98238 3.84616,-4.16015 0,-0.17776 -1.69421,-2.01302 -3.76494,-4.07835 l -3.76496,-3.75515 -4.15035,4.15034 -4.15032,4.15034 3.75515,3.76495 c 2.06533,2.07072 3.89642,3.76495 4.06909,3.76495 0.1727,0 2.04476,-1.72662 4.16017,-3.83693 z m -14.11215,-14.11214 c 2.11538,-2.11032 3.84616,-3.97847 3.84616,-4.15145 0,-0.41028 -9.14705,-9.5734 -9.55662,-9.5734 -0.17223,0 -2.1146,1.79745 -4.31637,3.99434 l -4.00324,3.99433 4.77909,4.78656 c 2.6285,2.6326 4.91987,4.78655 5.09195,4.78655 0.17207,0 2.04362,-1.72662 4.15903,-3.83693 z M 178.11546,116.8087 c -0.93937,-0.95118 -1.85619,-1.72941 -2.03736,-1.72941 -0.1812,0 -1.94666,1.62183 -3.9233,3.60407 l -3.59383,3.60407 1.86842,1.88812 1.86841,1.88812 3.76277,-3.76279 3.7628,-3.76278 -1.70791,-1.7294 z m -43.05121,4.15546 3.84607,-3.83683 -3.52283,-3.53285 c -1.93754,-1.94306 -3.74261,-3.53284 -4.01127,-3.53284 -0.5489,0 -7.51867,7.07213 -7.51867,7.62911 0,0.44048 6.60969,7.11024 7.04619,7.11024 0.17295,0 2.04517,-1.72657 4.16051,-3.83683 z m 61.92918,-11.75794 c 5.13798,-5.12749 9.34177,-9.440641 9.34177,-9.584776 0,-0.339209 -10.85434,-11.198427 -11.19341,-11.198427 -0.14137,0 -4.4886,4.233349 -9.66055,9.407442 l -9.40351,9.407441 5.63896,5.64551 c 3.10144,3.10504 5.70557,5.64552 5.78698,5.64552 0.0814,0 4.35178,-4.19522 9.48976,-9.32271 z m -1.47754,-5.67467 c -0.51745,-0.32779 -1.82282,-1.52058 -2.90083,-2.65066 -1.61992,-1.698152 -1.96002,-2.24036 -1.96002,-3.124768 0,-1.095212 0.80505,-2.125515 1.98862,-2.545041 0.9563,-0.338964 2.58522,0.680902 4.7461,2.971573 1.6854,1.78661 2.04617,2.355406 2.04617,3.226036 0,2.1345 -2.10346,3.2736 -3.92004,2.12286 z m -70.63424,7.54459 c 2.02396,-2.02925 3.67995,-3.82689 3.67995,-3.99476 0,-0.40371 -9.46659,-9.877472 -9.87001,-9.877472 -0.42066,0 -7.69177,7.270872 -7.69177,7.691522 0,0.40903 9.49568,9.87026 9.90622,9.87026 0.16263,0 1.95165,-1.6603 3.97561,-3.68955 z m -14.58986,-14.896737 3.83926,-3.834436 -5.24699,-5.253811 c -2.88584,-2.889593 -5.46024,-5.255109 -5.72088,-5.256702 -0.51989,-0.0032 -7.529924,7.099545 -7.529924,7.629506 0,0.432196 10.415114,10.90838 10.643444,10.70587 0.0968,-0.0858 1.90354,-1.881485 4.01509,-3.990427 z m 55.1185,-0.857416 4.06809,-4.077146 -4.69589,-4.703745 c -2.58277,-2.58706 -4.90937,-4.702186 -5.17025,-4.700279 -0.46984,0.0035 -8.15761,7.563047 -8.15761,8.021617 0,0.37198 9.18315,9.536696 9.55587,9.536696 0.18242,0 2.16233,-1.834713 4.39979,-4.077143 z m 44.55876,-2.880882 c 2.48496,-2.290548 2.53909,-2.067501 -1.47914,-6.097133 -1.95563,-1.961197 -3.69469,-3.565814 -3.86454,-3.565814 -0.41122,0 -3.62142,3.183077 -3.62142,3.590817 0,0.372156 6.92564,7.385297 7.29315,7.385297 0.13604,0 0.88841,-0.590926 1.67195,-1.313167 z M 96.657359,82.851849 c 2.023964,-2.029251 3.679941,-3.831197 3.679941,-4.004325 0,-0.173127 -1.412182,-1.721672 -3.138191,-3.441212 l -3.138228,-3.126433 -3.996246,4.00137 -3.996278,4.001374 3.166076,3.129387 c 1.741345,1.721161 3.295876,3.129387 3.454559,3.129387 0.158652,0 1.944403,-1.660297 3.968367,-3.689548 z m 52.362491,-3.4404 c 2.20156,-2.196656 4.0028,-4.134865 4.0028,-4.307137 0,-0.511866 -7.00408,-7.379485 -7.52137,-7.374837 -0.49307,0.0044 -8.15879,7.544308 -8.15879,8.024871 0,0.282415 7.23975,7.651019 7.51722,7.651019 0.0865,0 1.95861,-1.797263 4.16014,-3.993916 z m -6.34611,-14.587157 c 0,-0.134383 -0.48734,-0.771465 -1.08296,-1.415739 l -1.08294,-1.171407 -4.25948,4.233644 -4.25949,4.233644 1.29801,1.217561 1.29797,1.217561 4.04445,-4.035466 c 2.22445,-2.219506 4.04444,-4.145415 4.04444,-4.279798 z"
     style="fill:#0f0f11" />
</svg>
