<?xml version="1.0" encoding="UTF-8" standalone="no"?>
<!-- Created with Inkscape (http://www.inkscape.org/) -->

<svg
   xmlns:dc="http://purl.org/dc/elements/1.1/"
   xmlns:cc="http://creativecommons.org/ns#"
   xmlns:rdf="http://www.w3.org/1999/02/22-rdf-syntax-ns#"
   xmlns:svg="http://www.w3.org/2000/svg"
   xmlns="http://www.w3.org/2000/svg"
   xmlns:sodipodi="http://sodipodi.sourceforge.net/DTD/sodipodi-0.dtd"
   xmlns:inkscape="http://www.inkscape.org/namespaces/inkscape"
   id="svg6023"
   version="1.1"
   inkscape:version="0.91 r13725"
   width="840"
   height="592"
   viewBox="0 0 840 592"
   sodipodi:docname="iss.svg">
  <metadata
     id="metadata6029">
    <rdf:RDF>
      <cc:Work
         rdf:about="">
        <dc:format>image/svg+xml</dc:format>
        <dc:type
           rdf:resource="http://purl.org/dc/dcmitype/StillImage" />
        <dc:title></dc:title>
      </cc:Work>
    </rdf:RDF>
  </metadata>
  <defs
     id="defs6027" />
  <sodipodi:namedview
     pagecolor="#ffffff"
     bordercolor="#666666"
     borderopacity="1"
     objecttolerance="10"
     gridtolerance="10"
     guidetolerance="10"
     inkscape:pageopacity="0"
     inkscape:pageshadow="2"
     inkscape:window-width="1290"
     inkscape:window-height="840"
     id="namedview6025"
     showgrid="false"
     inkscape:zoom="0.39864865"
     inkscape:cx="41.220339"
     inkscape:cy="296"
     inkscape:window-x="0"
     inkscape:window-y="0"
     inkscape:window-maximized="0"
     inkscape:current-layer="svg6023" />
  <path
     inkscape:connector-curvature="0"
     id="path6575"
     d="m 536.72212,453.78369 c -2.1451,-1.59186 -38.6342,-37.70436 -81.087,-80.25 -54.7697,-54.88943 -77.393,-78.19817 -77.8963,-80.25644 -1.0106,-4.13296 1.7695,-8.71574 9.2955,-15.32324 3.4583,-3.03616 6.2877,-6.30005 6.2877,-7.2531 0,-1.65805 -10.0476,-12.02294 -11.6549,-12.02294 -0.4261,0 -8.6939,7.875 -18.3729,17.5 -21.3002,21.18127 -20.6086,20.93504 -30.8995,11 -3.703,-3.575 -7.3872,-6.5 -8.1869,-6.5 -0.7998,0 -3.8517,2.42777 -6.7821,5.39505 -5.2573,5.32338 -5.3125,5.44211 -4.1585,8.93877 0.9517,2.88365 0.8922,4.06735 -0.3191,6.35495 -0.8187,1.54618 -23.6927,24.97373 -50.8309,52.06123 -45.267,45.18225 -49.6163,49.25 -52.659,49.25 -3.5894,0 -8.1794,-4.07195 -32.8862,-29.17495 -10.491,-10.65923 -11.25,-11.6959 -11.25,-15.36558 0,-3.86158 0.9305,-4.86465 49.75,-53.63001 34.0523,-34.01449 50.641,-49.91388 52.5738,-50.38906 1.6009,-0.3936 3.9463,-0.18273 5.4161,0.48695 2.4272,1.1059 2.9643,0.81323 8.4263,-4.59178 3.2086,-3.17513 5.8338,-6.22576 5.8338,-6.77917 0,-0.55341 -2.89,-3.9425 -6.4222,-7.5313 -6.0703,-6.16759 -6.9681,-7.83874 -6.6929,-12.4585 0.064,-1.06703 7.5089,-9.3737 16.6151,-18.5371 9.075,-9.13203 16.5,-17.27891 16.5,-18.10419 0,-1.87754 -9.0754,-10.92531 -10.9586,-10.92531 -0.7645,0 -4.6386,3.15 -8.6091,7 -8.3826,8.12813 -10.8202,8.71575 -17.0322,4.10572 -2.1451,-1.59186 -38.608,-37.70436 -81.0287,-80.25 -53.0511,-53.207311 -77.32924,-78.216891 -77.77123,-80.114351 -0.38709,-1.66176 -0.068,-3.84863 0.80261,-5.5 2.3759,-4.5068 41.78112,-43.017895 44.77502,-43.759049 1.4728,-0.3646 3.4978,-0.402099 4.5,-0.08333 1.0022,0.318769 37.9347,36.703469 82.0722,80.854889 93.8965,93.926061 85.4666,82.646001 72.0417,96.399991 l -8.2083,8.40951 6.1976,6.19757 6.1975,6.19758 20.7608,-20.65709 c 12.6681,-12.60491 21.7964,-20.91327 23.4176,-21.31429 3.5823,-0.88614 6.2098,0.63119 13.5998,7.85354 l 6.2566,6.11475 11.9934,-11.96209 c 6.5963,-6.57915 11.9933,-12.44335 11.9933,-13.03155 0,-0.58821 -1.575,-2.59602 -3.5,-4.4618 -3.7012,-3.58738 -4.6125,-8.05273 -2.463,-12.06907 0.8693,-1.62434 0.2814,-2.74536 -3.6369,-6.934251 -2.5706,-2.74818 -5.1247,-4.99668 -5.6758,-4.99668 -0.5511,0 -4.5346,3.375 -8.8522,7.500001 -12.836,12.26344 -5.8763,16.9313 -69.7032,-46.750001 -30.9011,-30.83064 -54.9745,-55.6323555 -55.7649,-57.4521685 -0.9446,-2.174695 -1.1,-3.93947 -0.4844,-5.5 0.4985,-1.263808 10.9809,-12.3103315 23.2943,-24.5478315 24.6854,-24.533357 24.5373,-24.442057 31.3861,-19.350767 6.8376,5.082965 107.2648,106.484507 108.3474,109.398597 1.5469,4.16361 -0.6004,8.09302 -8.8392,16.17535 -3.9095,3.83525 -7.1082,7.45217 -7.1082,8.03759 0,0.58543 2.2536,3.28408 5.0079,5.99701 l 5.0079,4.9326 30.2421,-30.16173 c 16.6332,-16.58895 31.4628,-30.6205 32.9547,-31.18122 1.8786,-0.70604 3.6762,-0.68356 5.8468,0.0731 3.0592,1.06643 3.3297,0.90153 11.2875,-6.8812 4.4842,-4.3856 9.4513,-8.94481 11.038,-10.13159 5.655,-4.2297305 6.3987,-3.75593 28.2378,17.98875 11.1287,11.08058 20.5008,21.20947 20.8269,22.50863 0.8838,3.52144 -1.3984,6.94793 -10.8613,16.30669 l -8.556,8.46185 0.6294,5.3545 0.6293,5.35451 -30.1455,30.205121 c -16.58,16.61285 -30.1455,30.92141 -30.1455,31.79684 0,1.52468 9.143,10.86537 10.6354,10.86537 0.3965,0 4.1891,-3.375 8.428,-7.5 12.785,-12.44173 5.7314,-17.21312 70.89,47.95337 52.6583,52.66471 55.4466,55.63383 55.4466,59.0417 0,3.34336 -1.5326,5.12362 -22.45,26.07806 -12.3475,12.36935 -23.43,22.74122 -24.6278,23.04859 -1.1978,0.30738 -3.039,0.28555 -4.0915,-0.0485 -2.5069,-0.79565 -111.4282,-109.87488 -112.4359,-112.59885 -1.2473,-3.37188 1.4411,-7.937 9.097,-15.44755 3.9095,-3.83525 7.1082,-7.45062 7.1082,-8.03416 0,-0.58354 -2.4326,-3.46334 -5.4057,-6.39956 -5.2577,-5.19242 -5.4692,-5.29415 -7.7225,-3.71584 -3.7233,2.60792 -7.4319,2.01491 -11.7401,-1.87726 -2.1307,-1.925 -4.5019,-3.5 -5.2692,-3.5 -1.5127,0 -23.8625,21.94997 -23.8625,23.43559 0,0.49736 2.925,3.93406 6.5,7.63712 5.7125,5.91715 6.5,7.20006 6.5,10.58944 0,3.68088 -0.9113,4.76705 -20,23.83785 -11,10.98969 -20,20.45084 -20,21.02478 0,1.60773 10.3689,11.47522 12.0583,11.47522 0.8224,0 4.6212,-3.15 8.4417,-7 11.5936,-11.68309 1.253,-19.73316 94.7431,73.75692 75.964,75.96397 80.7569,80.96277 80.7569,84.22528 0,3.18733 -1.8048,5.27315 -22.2747,25.74307 -24.5824,24.58236 -24.4369,24.49238 -31.3252,19.38045 z m 18.5975,-32.60334 12.4677,-12.49762 -9.4629,-9.50238 c -5.2046,-5.22631 -9.93,-9.50238 -10.501,-9.50238 -1.0806,0 -24.5014,23.56336 -24.5014,24.6505 0,0.79154 18.1741,19.3495 18.9492,19.3495 0.3195,0 6.1913,-5.62393 13.0484,-12.49762 z m -32.9947,-57.99947 c -9.6148,-9.6266 -17.9295,-17.50291 -18.4771,-17.50291 -1.3377,0 -24.5258,23.18434 -24.5258,24.52175 0,0.57916 7.8888,8.89523 17.5306,18.48016 l 17.5306,17.42714 12.7116,-12.71162 12.7116,-12.71161 -17.4815,-17.50291 z m -282.0026,-11.02016 29.455,-29.51726 -12.2292,-12.22916 -12.2291,-12.22916 -30.2393,30.23928 -30.2393,30.23928 11.4745,11.50714 c 6.311,6.32892 12.167,11.50713 13.0134,11.50713 0.8465,0 14.7938,-13.28276 30.994,-29.51725 z m 236.7369,-9.71938 12.2661,-12.23663 -15.2395,-15.26337 c -8.3818,-8.39485 -15.6344,-15.26337 -16.1169,-15.26337 -1.1047,0 -20.0512,18.52746 -22.8165,22.31189 l -2.0547,2.8119 14.8189,14.9381 c 8.1504,8.21596 15.2819,14.93811 15.8477,14.93811 0.5659,0 6.5486,-5.50648 13.2949,-12.23663 z m -39.4923,-64.00827 -12.2451,-12.2451 -12.7499,12.76348 -12.7499,12.76347 12.2891,12.18754 12.2891,12.18754 12.7059,-12.70592 12.7059,-12.70591 -12.2451,-12.2451 z m -149.5263,26.02906 c 2.9048,-2.86871 5.2814,-5.67417 5.2814,-6.23435 0,-1.31054 -22.1471,-23.54981 -23.4522,-23.54981 -1.3113,0 -11.5478,10.15001 -11.5478,11.45019 0,1.31054 22.1471,23.54981 23.4523,23.54981 0.5416,0 3.3615,-2.34713 6.2663,-5.21584 z m 312.2814,-42.31732 c 0,-0.0335 -1.7588,-1.7784 -3.9085,-3.87751 l -3.9085,-3.81656 -13.2578,13.15113 -13.2578,13.15112 3.8858,3.9795 3.8859,3.97949 13.2805,-13.25311 c 7.3042,-7.28921 13.2804,-13.28054 13.2804,-13.31406 z m -294,11.03316 5.4317,-5.5 -5.4317,-5.5 c -2.9874,-3.025 -5.9124,-5.5 -6.5,-5.5 -0.5876,0 -3.5126,2.475 -6.5,5.5 l -5.4317,5.5 5.4317,5.5 c 2.9874,3.025 5.9124,5.5 6.5,5.5 0.5876,0 3.5126,-2.475 6.5,-5.5 z m 72.2449,-35.24479 c 19.6653,-19.65964 35.7551,-36.19362 35.7551,-36.74219 0,-1.68466 -46.3785,-47.51302 -48.0833,-47.51302 -1.3446,0 -69.3109,67.59271 -71.4554,71.06267 -0.445,0.72 8.3841,10.27317 23.1519,25.05058 13.1291,13.13771 24.0974,23.88675 24.3739,23.88675 0.2764,0 16.5925,-16.08516 36.2578,-35.74479 z m -20.7821,-12.78551 c -16.9503,-6.27468 -22.1042,-28.67445 -9.4981,-41.28052 5.3335,-5.33351 10.6296,-7.54988 18.0353,-7.54765 14.6341,0.004 24.9386,10.26361 24.9683,24.85847 0.021,10.11807 -5.0963,18.41212 -14.293,23.16791 -4.304,2.2257 -14.2452,2.64057 -19.2125,0.80179 z m 5.0372,-27.4697 c 0.9955,-1.1 1.3061,-2 0.6902,-2 -0.6159,0 -1.6015,0.9 -2.1902,2 -0.5887,1.1 -0.8993,2 -0.6902,2 0.2092,0 1.1947,-0.9 2.1902,-2 z m 208.2356,61.76501 c 6.7454,-6.72925 12.2644,-12.69879 12.2644,-13.26564 0,-0.56685 -5.4024,-6.41902 -12.0054,-13.00482 l -12.0055,-11.97419 -13.2344,13.23436 -13.2343,13.23435 11.9742,12.00547 c 6.5858,6.603 12.4247,12.00546 12.9753,12.00546 0.5507,0 6.5202,-5.50575 13.2657,-12.23499 z m -45,-45 c 6.7454,-6.72925 12.2644,-12.6863 12.2644,-13.2379 0,-1.30826 -29.1676,-30.52711 -30.4736,-30.52711 -0.5492,0 -6.7429,5.73161 -13.7638,12.73692 l -12.7653,12.73692 15.2393,15.26308 c 8.3816,8.39469 15.6882,15.26308 16.2369,15.26308 0.5487,0 6.5166,-5.50575 13.2621,-12.23499 z m -98.7211,-73.25039 c -2.9954,-3.03304 -5.9189,-5.51462 -6.4966,-5.51462 -0.5778,0 -6.2074,5.1716 -12.5104,11.49245 l -11.4598,11.49246 5.9579,6.02071 5.9579,6.02072 11.9985,-11.99855 11.9986,-11.99855 -5.4461,-5.51462 z m -137.2792,13.25071 12.2641,-12.23468 -11.2334,-11.26532 c -6.1783,-6.19593 -11.9342,-11.26533 -12.7909,-11.26533 -1.7503,0 -23.9751,22.55121 -23.9751,24.32728 0,1.40457 21.0766,22.67272 22.4685,22.67272 0.5515,0 6.5215,-5.5056 13.2668,-12.23467 z m 197.4762,-37.49305 c 16.3837,-16.35025 29.7885,-30.103771 29.7885,-30.563381 0,-1.08165 -34.6117,-35.7089 -35.6929,-35.7089 -0.4508,0 -14.313,13.49906 -30.805,29.99791 l -29.9854,29.997921 17.9812,18.00208 c 9.8897,9.90115 18.1936,18.00209 18.4532,18.00209 0.2596,0 13.8767,-13.37747 30.2604,-29.72772 z m -4.7115,-18.095071 c -1.65,-1.04523 -5.8125,-4.84874 -9.25,-8.45226 -5.1655,-5.41497 -6.25,-7.14393 -6.25,-9.96408 0,-3.49235 2.5671,-6.77772 6.3412,-8.11548 3.0494,-1.08087 8.2436,2.17122 15.1341,9.47558 5.3743,5.69704 6.5247,7.51078 6.5247,10.28699 0,6.80637 -6.7074,10.438691 -12.5,6.76925 z m -225.2344,24.057771 c 6.4539,-6.47076 11.7344,-12.20298 11.7344,-12.73827 0,-1.28733 -30.1865,-31.496711 -31.4729,-31.496711 -1.3414,0 -24.5271,23.184941 -24.5271,24.526291 0,1.3043 30.2793,31.47371 31.5884,31.47371 0.5186,0 6.2233,-5.29426 12.6772,-11.76502 z m -46.5233,-47.501861 12.2424,-12.22703 -16.7313,-16.75305 c -9.2022,-9.21417 -17.4113,-16.75719 -18.2424,-16.76227 -1.6578,-0.01012 -24.011,22.63862 -24.011,24.32853 0,1.37816 33.2111,34.78403 33.9392,34.13825 0.3085,-0.27356 6.0699,-5.99956 12.8031,-12.72443 z m 175.7587,-2.73408 12.9721,-13.00097 -14.974,-14.99903 c -8.2358,-8.24947 -15.6547,-14.99406 -16.4866,-14.98798 -1.4982,0.01096 -26.0125,24.11661 -26.0125,25.57887 0,1.18615 29.2827,30.41007 30.4712,30.41007 0.5817,0 6.8951,-5.85043 14.0298,-13.00096 z m 142.0864,-9.18639 c 7.9239,-7.30397 8.0965,-6.59273 -4.7166,-19.44219 -6.236,-6.25375 -11.7814,-11.37046 -12.323,-11.37046 -1.3113,0 -11.5478,10.15001 -11.5478,11.45019 0,1.18671 22.0841,23.54981 23.256,23.54981 0.4338,0 2.8329,-1.88431 5.3314,-4.18735 z m -361.3218,-30.57767 c 6.4539,-6.47076 11.7344,-12.2167 11.7344,-12.76876 0,-0.55206 -4.5031,-5.48997 -10.0069,-10.9731405 l -10.007,-9.96938997 -12.743,12.75934047 -12.7431,12.75935 10.0958,9.97881 c 5.5527,5.48834 10.5097,9.97881 11.0157,9.97881 0.5059,0 6.2002,-5.29426 12.6541,-11.76502 z m 166.9705,-10.97055 c 7.0202,-7.00457 12.7639,-13.1850205 12.7639,-13.7343505 0,-1.63221 -22.3342,-23.5312765 -23.9837,-23.5164565 -1.5723,0.01413 -26.0163,24.0568565 -26.0163,25.589247 0,0.90055 23.0857,24.39713 23.9705,24.39713 0.2759,0 6.2455,-5.73101 13.2656,-12.73557 z m -20.2361,-46.514687 c 0,-0.428512 -1.554,-2.460005 -3.4533,-4.514428 l -3.4532,-3.735315 -13.5824,13.5 -13.5824,13.4999995 4.139,3.882489 4.1389,3.882489 12.8967,-12.8680605 c 7.0932,-7.077433 12.8967,-13.218661 12.8967,-13.647174 z"
     style="fill:#0f0f11" />
</svg>
