<?xml version="1.0" encoding="UTF-8" standalone="no"?>
<!-- Created with Inkscape (http://www.inkscape.org/) -->

<svg
   xmlns:dc="http://purl.org/dc/elements/1.1/"
   xmlns:cc="http://creativecommons.org/ns#"
   xmlns:rdf="http://www.w3.org/1999/02/22-rdf-syntax-ns#"
   xmlns:svg="http://www.w3.org/2000/svg"
   xmlns="http://www.w3.org/2000/svg"
   xmlns:sodipodi="http://sodipodi.sourceforge.net/DTD/sodipodi-0.dtd"
   xmlns:inkscape="http://www.inkscape.org/namespaces/inkscape"
   width="210mm"
   height="297mm"
   viewBox="0 0 744.09448819 1052.3622047"
   id="svg4338"
   version="1.1"
   inkscape:version="0.91 r13725"
   sodipodi:docname="Moon.svg">
  <defs
     id="defs4340" />
  <sodipodi:namedview
     id="base"
     pagecolor="#ffffff"
     bordercolor="#666666"
     borderopacity="1.0"
     inkscape:pageopacity="0.0"
     inkscape:pageshadow="2"
     inkscape:zoom="0.49497475"
     inkscape:cx="-73.499547"
     inkscape:cy="399.42982"
     inkscape:document-units="px"
     inkscape:current-layer="layer1"
     showgrid="false"
     inkscape:window-width="1680"
     inkscape:window-height="936"
     inkscape:window-x="0"
     inkscape:window-y="1"
     inkscape:window-maximized="1" />
  <metadata
     id="metadata4343">
    <rdf:RDF>
      <cc:Work
         rdf:about="">
        <dc:format>image/svg+xml</dc:format>
        <dc:type
           rdf:resource="http://purl.org/dc/dcmitype/StillImage" />
        <dc:title></dc:title>
      </cc:Work>
    </rdf:RDF>
  </metadata>
  <g
     inkscape:label="Ebene 1"
     inkscape:groupmode="layer"
     id="layer1">
    <path
       style="opacity:1;fill:#969696;fill-opacity:1;stroke:none;stroke-width:0.40000001;stroke-linecap:round;stroke-miterlimit:4;stroke-dasharray:none;stroke-dashoffset:0;stroke-opacity:1"
       id="path4886"
       d="m 669.7835,336.82599 c -0.54422,-0.92598 -1.16026,-1.80697 -1.78787,-2.67769 -1.0889,-1.46055 -2.22189,-2.88709 -3.35173,-4.31606 -1.47008,-1.88512 -3.00925,-3.71399 -4.5436,-5.54668 -1.89596,-2.31737 -3.89153,-4.54923 -5.87499,-6.79127 -2.51507,-2.83017 -5.16046,-5.53806 -7.79427,-8.25652 -3.24025,-3.25235 -6.58046,-6.40216 -9.91601,-9.55587 -3.69739,-3.49429 -7.5124,-6.85942 -11.32468,-10.22671 -4.09521,-3.62519 -8.30067,-7.12377 -12.55148,-10.56434 -4.55031,-3.66889 -9.18975,-7.22553 -13.88657,-10.70431 -4.88706,-3.64562 -9.88643,-7.13389 -14.91315,-10.58299 -5.09819,-3.48343 -10.27577,-6.84778 -15.45195,-10.21346 -5.07986,-3.28072 -10.18086,-6.52837 -15.31072,-9.73034 -5.04614,-3.14094 -10.13035,-6.22012 -15.24501,-9.24806 -5.08174,-2.9966 -10.29093,-5.76384 -15.58914,-8.35549 -5.37925,-2.62561 -10.9379,-4.84669 -16.52745,-6.9764 -5.72356,-2.14032 -11.53612,-4.04029 -17.39317,-5.77938 -5.93428,-1.80362 -11.95392,-3.30471 -17.99229,-4.71313 -6.08308,-1.45729 -12.21811,-2.67342 -18.37206,-3.78726 -6.13934,-1.16815 -12.31734,-2.10652 -18.49357,-3.05268 -6.14557,-0.88045 -12.30924,-1.63018 -18.48362,-2.27613 -6.11925,-0.61743 -12.24857,-1.11127 -18.38676,-1.4929 -6.09386,-0.42371 -12.19583,-0.69957 -18.30148,-0.87548 -5.9841,-0.22428 -11.97226,-0.29404 -17.95977,-0.35322 -5.82831,-0.0195 -11.6572,-0.0569 -17.48528,0.0156 -5.67108,0.0174 -11.33852,0.20257 -17.0046,0.42474 -5.60337,0.18113 -11.19523,0.59991 -16.78005,1.07663 -5.57576,0.481 -11.13294,1.14355 -16.68049,1.8761 -5.50416,0.73591 -10.98487,1.6237 -16.4579,2.55938 -5.4364,0.96159 -10.83079,2.13678 -16.22494,3.30719 -5.3361,1.13186 -10.62666,2.46867 -15.91212,3.8144 -5.19726,1.3025 -10.34054,2.80993 -15.4782,4.32764 -5.04581,1.46154 -10.01924,3.15709 -15.00905,4.79603 -4.87315,1.67036 -9.70725,3.45383 -14.52548,5.27578 -4.75303,1.81807 -9.44715,3.78664 -14.12137,5.79743 -4.66128,2.00498 -9.20691,4.26044 -13.73795,6.5402 -4.53588,2.30915 -8.96548,4.81735 -13.37427,7.3584 62.76059,-36.26863 36.94446,-21.66849 23.13545,-13.02885 -4.29892,2.71272 -8.48929,5.59076 -12.64121,8.52184 -4.14658,2.97544 -8.22106,6.04959 -12.23478,9.20151 -3.96605,3.15037 -7.84752,6.40474 -11.70269,9.68919 -3.82637,3.2663 -7.53205,6.67004 -11.22228,10.08827 -3.63149,3.36384 -7.18101,6.81456 -10.72456,10.27043 -3.48765,3.4214 -6.91304,6.90532 -10.29291,10.433 -3.32288,3.50175 -6.57646,7.06883 -9.79631,10.66532 -3.162315,3.53639 -6.245345,7.14158 -9.314079,10.75902 -3.003682,3.55502 -5.949965,7.1575 -8.862654,10.78726 -2.89724,3.59896 -5.687074,7.28189 -8.444744,10.98826 -2.749586,3.69238 -5.396152,7.4589 -7.987113,11.26371 -2.577234,3.75842 -4.998404,7.61985 -7.420168,11.4792 -2.380456,3.79573 -4.649122,7.65922 -6.902517,11.53113 -2.183958,3.79315 -4.287974,7.63111 -6.355154,11.48885 -2.010621,3.77343 -3.91952,7.59952 -5.802015,11.43805 -1.849986,3.77216 -3.563275,7.60829 -5.195521,11.47895 -1.615802,3.83887 -3.074342,7.73986 -4.485145,11.65773 -1.387129,3.85479 -2.616276,7.763 -3.788645,11.68756 -1.145036,3.87174 -2.172241,7.77723 -3.153312,11.69333 -0.957768,3.83144 -1.790026,7.69215 -2.59141,11.55877 -0.795483,3.79344 -1.493982,7.60584 -2.180128,11.42022 -0.660158,3.7061 -1.269948,7.42114 -1.845484,11.14126 -0.557222,3.62026 -1.070544,7.24703 -1.58474,10.87359 -0.495509,3.54767 -0.947827,7.10102 -1.365929,10.65858 -0.419881,3.51043 -0.772201,7.02829 -1.089791,10.54928 -0.307361,3.51385 -0.568463,7.03159 -0.79989,10.5512 -0.218313,3.53625 -0.379117,7.07576 -0.523524,10.61571 -0.136309,3.56195 -0.198844,7.1263 -0.225232,10.6906 -0.01886,3.54625 0.06161,7.09235 0.184337,10.63625 0.124894,3.51541 0.368377,7.02461 0.636236,10.53151 0.277623,3.48355 0.681418,6.95394 1.134715,10.41835 0.463498,3.42903 1.052839,6.83913 1.704592,10.23685 0.660477,3.37312 1.441743,6.71966 2.286221,10.05086 0.824309,3.30569 1.778026,6.5762 2.751788,9.84023 0.954637,3.19652 1.984767,6.36874 3.087005,9.5172 1.073357,3.09477 2.192448,6.17365 3.35264,9.23688 1.113299,2.98344 2.279366,5.94643 3.508687,8.8839 1.196317,2.92447 2.466922,5.81867 3.803863,8.68146 1.341066,2.89748 2.823855,5.72573 4.349551,8.52932 1.564162,2.87309 3.266046,5.66665 4.95868,8.46485 1.722965,2.80823 3.536168,5.55892 5.34712,8.31063 1.809726,2.74272 3.704615,5.42793 5.619277,8.09803 1.888998,2.66611 3.856022,5.27647 5.854164,7.86148 1.9857,2.57014 4.046823,5.08102 6.124777,7.57678 2.087955,2.50544 4.26595,4.93225 6.468002,7.33717 2.276715,2.45226 4.646092,4.81446 7.048144,7.14308 2.440312,2.39677 4.945157,4.72794 7.481727,7.02234 2.508807,2.28857 5.081791,4.50558 7.648397,6.72877 2.517157,2.20324 5.060132,4.37684 7.610802,6.54113 2.47234,2.0889 4.95247,4.16869 7.45678,6.21922 2.44622,2.00511 4.89001,4.01294 7.31842,6.03965 2.37084,1.95956 4.79424,3.85273 7.21561,5.74888 2.3979,1.90409 4.84023,3.74988 7.28114,5.59801 2.43567,1.80274 4.8484,3.63616 7.29847,5.41942 2.46709,1.78388 4.95529,3.53773 7.44959,5.28326 2.54723,1.73949 5.07659,3.50341 7.64973,5.20472 2.58185,1.71222 5.17898,3.40051 7.77959,5.08414 2.59744,1.65212 5.21271,3.27584 7.82666,4.90169 2.6221,1.62679 5.2799,3.19455 7.92842,4.77763 2.62774,1.58169 5.26365,3.14991 7.92904,4.66745 2.61967,1.53112 5.28497,2.98126 7.93902,4.45133 2.65045,1.44632 5.29631,2.90066 7.95055,4.34009 2.65416,1.40181 5.3174,2.78596 7.99428,4.14388 2.65432,1.33952 5.32243,2.65121 7.99398,3.95599 2.62478,1.27963 5.26411,2.52907 7.91325,3.75743 2.63738,1.21465 5.2826,2.41243 7.94668,3.56749 2.63874,1.16024 5.32369,2.21228 8.00095,3.27975 2.64766,1.0508 5.32757,2.02025 8.01102,2.97571 2.65958,0.98636 5.35283,1.87528 8.0534,2.74151 2.671,0.88926 5.36888,1.69095 8.0743,2.46774 2.68088,0.80198 5.38582,1.51592 8.09672,2.20802 2.68863,0.67641 5.39785,1.26918 8.11037,1.84236 2.74213,0.55449 5.4942,1.06559 8.2555,1.51566 2.76251,0.48203 5.54013,0.85468 8.31667,1.24017 2.73406,0.37943 5.46933,0.74988 8.20444,1.12161 2.6581,0.30907 5.31628,0.61751 7.97493,0.92179 2.60187,0.29351 5.20296,0.59384 7.80547,0.88164 2.52668,0.27766 5.06081,0.48509 7.59218,0.71611 2.51057,0.22339 5.02111,0.44718 7.53242,0.66215 2.50705,0.16128 5.01402,0.32376 7.52117,0.48354 2.54098,0.0739 5.08027,0.19051 7.62017,0.29804 2.51688,0.0516 5.03363,0.10973 7.55038,0.16771 2.47382,0.0441 4.94694,0.13924 7.42128,0.13883 2.45263,-0.0241 4.90706,0.0688 7.35786,-0.0395 2.48158,-0.0103 4.96052,-0.10599 7.44022,-0.19126 2.50986,-0.0414 5.01138,-0.22524 7.51766,-0.34548 2.52233,-0.0986 5.03966,-0.27408 7.55772,-0.44603 2.5083,-0.16093 5.01675,-0.29986 7.51641,-0.56651 2.51703,-0.1999 5.03403,-0.40041 7.55161,-0.59327 2.52209,-0.19142 5.03436,-0.48259 7.55281,-0.71501 2.52484,-0.1741 5.02985,-0.54098 7.54626,-0.7945 2.50445,-0.26703 5.01038,-0.51963 7.51609,-0.77447 2.47672,-0.31897 4.95472,-0.61752 7.43521,-0.90596 2.43644,-0.28498 4.87426,-0.55763 7.31139,-0.83663 2.38594,-0.33462 4.77238,-0.655 7.16203,-0.96248 2.35271,-0.2976 4.70532,-0.59641 7.05909,-0.88559 2.30922,-0.30896 4.61114,-0.66541 6.91859,-0.99203 2.27396,-0.33176 4.54201,-0.70399 6.81262,-1.05855 2.29836,-0.39279 4.59791,-0.78305 6.9007,-1.15632 2.29309,-0.48834 4.61235,-0.83603 6.91017,-1.30018 2.27109,-0.50647 4.56436,-0.91003 6.84932,-1.34992 2.22528,-0.50163 4.45887,-0.96433 6.69201,-1.43135 2.15957,-0.49492 4.32002,-0.98919 6.4818,-1.47881 2.09803,-0.4566 4.16911,-1.0177 6.25498,-1.52478 2.02971,-0.55184 4.09052,-1.01792 6.08971,-1.67422 2.08154,-0.49858 4.09439,-1.22709 6.14237,-1.84088 2.0868,-0.6537 4.14878,-1.38329 6.23048,-2.05676 2.08631,-0.77746 4.1846,-1.5201 6.26458,-2.31593 2.08477,-0.82186 4.17807,-1.61381 6.2428,-2.48642 2.10014,-0.85029 4.17407,-1.75922 6.26533,-2.63056 2.03851,-0.95406 4.16009,-1.73063 6.18344,-2.71489 2.03424,-0.91857 4.08355,-1.81186 6.07385,-2.82315 2.0449,-0.97606 4.08593,-1.97068 6.06712,-3.07368 2.06254,-1.01868 4.03338,-2.21125 6.07617,-3.26383 13.3391,-7.569 31.55902,-18.14434 -30.47181,17.61638 120.87652,-71.09349 -23.43413,14.98098 5.96353,-3.47444 2.0387,-1.17246 4.02039,-2.44219 5.99966,-3.7118 2.13026,-1.39448 4.22205,-2.84491 6.28647,-4.33473 2.18787,-1.56163 4.2898,-3.2382 6.44425,-4.84425 2.14358,-1.65325 4.25808,-3.34314 6.367,-5.04033 2.12256,-1.67551 4.19839,-3.40862 6.29965,-5.11031 2.06066,-1.72342 4.11468,-3.45471 6.16874,-5.18601 2.04958,-1.76708 4.10987,-3.52163 6.13247,-5.32013 2.08568,-1.8556 4.15353,-3.72949 6.17693,-5.65317 2.11578,-2.0045 4.17978,-4.06355 6.2243,-6.14045 2.11174,-2.12305 4.17254,-4.29762 6.20703,-6.49473 2.05407,-2.19995 4.05054,-4.453 6.06017,-6.69346 1.97402,-2.1964 3.91509,-4.42285 5.82352,-6.67647 1.9234,-2.22524 3.7904,-4.49759 5.66124,-6.7668 1.88283,-2.31835 3.74551,-4.65308 5.55379,-7.03017 1.85521,-2.37259 3.65244,-4.78996 5.411,-7.23485 1.76042,-2.45675 3.52672,-4.9097 5.26241,-7.38408 1.74425,-2.47496 3.41651,-4.99904 5.09357,-7.51966 1.6829,-2.57027 3.33892,-5.15818 4.95612,-7.77029 1.61258,-2.61071 3.15331,-5.2643 4.69547,-7.91686 1.53851,-2.68554 3.02272,-5.40198 4.47615,-8.13438 1.45457,-2.77361 2.86306,-5.57104 4.24392,-8.38199 1.36184,-2.75101 2.69647,-5.51537 4.02593,-8.28214 1.28834,-2.69296 2.57008,-5.38917 3.82849,-8.09626 1.24398,-2.64234 2.45421,-5.30041 3.65149,-7.96419 1.17437,-2.6277 2.34253,-5.25825 3.47332,-7.90505 1.14219,-2.63917 2.23559,-5.29913 3.31388,-7.96495 1.07806,-2.6473 2.11415,-5.31118 3.14669,-7.97646 1.02291,-2.65455 2.02269,-5.31792 2.99708,-7.99065 1.00189,-2.68723 1.9067,-5.40854 2.76601,-8.14422 0.89133,-2.77823 1.68283,-5.5867 2.43905,-8.40422 0.74945,-2.84249 1.46016,-5.69528 2.14541,-8.55391 0.6637,-2.83254 1.30938,-5.66939 1.92181,-8.51347 0.58942,-2.7924 1.14879,-5.59098 1.71168,-8.3888 0.54865,-2.75595 1.08502,-5.51409 1.57918,-8.28036 0.48471,-2.72991 0.9474,-5.46366 1.40285,-8.19859 0.44663,-2.70206 0.86309,-5.40851 1.26042,-8.1182 0.39905,-2.67542 0.74645,-5.35793 1.11289,-8.03788 0.38041,-2.62311 0.68913,-5.25567 0.99874,-7.88782 0.31633,-2.56698 0.58597,-5.13901 0.83697,-7.71307 0.26236,-2.54283 0.46936,-5.09041 0.66244,-7.63925 0.19888,-2.56935 0.33922,-5.14203 0.43829,-7.71697 0.0905,-2.61431 0.12813,-5.23034 0.13731,-7.8461 0.004,-2.59407 -0.0142,-5.18786 -0.0655,-7.7814 -0.0548,-2.53647 -0.11343,-5.07285 -0.173,-7.60921 -0.0419,-2.48207 -0.14413,-4.96252 -0.24408,-7.44277 -0.094,-2.41458 -0.19365,-4.82869 -0.32817,-7.24136 -0.1208,-2.38165 -0.30436,-4.75946 -0.48958,-7.13679 -0.19556,-2.39608 -0.44033,-4.78758 -0.70468,-7.17692 -0.26867,-2.4354 -0.61401,-4.86105 -0.98103,-7.28326 -0.36784,-2.44875 -0.75568,-4.89423 -1.16723,-7.33599 -0.38622,-2.39361 -0.83785,-4.77518 -1.29181,-7.15656 -0.42403,-2.36052 -0.8976,-4.71155 -1.38114,-7.06046 -0.49605,-2.33521 -0.98302,-4.6724 -1.50708,-7.00153 -0.51082,-2.3081 -1.06846,-4.60547 -1.6466,-6.89754 -0.5877,-2.302 -1.22157,-4.59148 -1.87969,-6.87418 -0.66206,-2.31677 -1.37779,-4.61668 -2.12628,-6.90675 -0.74833,-2.3137 -1.54591,-4.61093 -2.33688,-6.91027 -0.80488,-2.24193 -1.6033,-4.48608 -2.44399,-6.71489 -0.81164,-2.19088 -1.68384,-4.35839 -2.5298,-6.53606 -0.82336,-2.12096 -1.73048,-4.20738 -2.61712,-6.30217 -0.90151,-2.05683 -1.84558,-4.09444 -2.78677,-6.13328 -0.94805,-2.00446 -1.95164,-3.98164 -2.93228,-5.97013 -0.95305,-1.9435 -1.98375,-3.8473 -3.01131,-5.75196 -1.02037,-1.8849 -2.0652,-3.75531 -3.14472,-5.60686 -1.05471,-1.84291 -2.19242,-3.63581 -3.29952,-5.44714 -1.11783,-1.76217 -2.28658,-3.49095 -3.45692,-5.21843 -1.16665,-1.74856 -2.4053,-3.4468 -3.61906,-5.16245 -1.25476,-1.71098 -2.55573,-3.38638 -3.8659,-5.05493 -1.23332,-1.55809 -2.59954,-3.00012 -3.98623,-4.42042 0,0 36.28999,-22.20468 36.28999,-22.20468 l 0,0 c 1.5145,1.52062 2.97349,3.09528 4.29643,4.78792 1.35853,1.72015 2.69431,3.45834 3.98092,5.23319 1.23675,1.736 2.48478,3.46435 3.66387,5.24052 1.21057,1.78108 2.41398,3.56731 3.55867,5.39177 1.12521,1.83722 2.27601,3.6592 3.34696,5.52906 1.09884,1.89332 2.16653,3.80338 3.20964,5.7281 1.05182,1.95091 2.1092,3.89974 3.0833,5.89112 0.99609,2.02268 2.01807,4.03232 2.98607,6.06882 0.95603,2.08161 1.9242,4.15735 2.84909,6.25314 0.9008,2.13513 1.83454,4.2563 2.6761,6.41605 0.84767,2.19236 1.73103,4.37069 2.54608,6.5755 0.85125,2.26914 1.67526,4.54754 2.50116,6.82605 0.79332,2.31904 1.60401,4.63209 2.36193,6.96296 0.76852,2.33725 1.52634,4.67711 2.20482,7.04252 0.66423,2.31652 1.34757,4.62785 1.93205,6.96655 0.62495,2.32506 1.17801,4.66968 1.71342,7.01675 0.53659,2.34861 1.03658,4.70486 1.53754,7.06131 0.5088,2.3719 0.98692,4.75088 1.42065,7.13756 0.4519,2.40913 0.93882,4.81169 1.32439,7.23281 0.41754,2.46159 0.83197,4.92342 1.19574,7.39369 0.38399,2.46741 0.76992,4.93511 1.05617,7.41612 0.2994,2.42673 0.55357,4.85918 0.7717,7.29455 0.22161,2.41093 0.39388,4.82695 0.5445,7.24323 0.14064,2.43516 0.2789,4.87014 0.35408,7.30844 0.0991,2.50279 0.21667,5.00523 0.27485,7.50935 0.0557,2.54024 0.11271,5.08044 0.16934,7.62066 0.0567,2.62052 0.11189,5.24077 0.0997,7.86214 0.01,2.66008 -0.0147,5.31963 -0.0675,7.97926 -0.0837,2.6222 -0.17175,5.24341 -0.35992,7.86059 -0.18463,2.57683 -0.35918,5.15494 -0.62035,7.72543 -0.24771,2.60058 -0.48259,5.2027 -0.80196,7.79575 -0.31277,2.65699 -0.60918,5.3163 -0.96479,7.96796 -0.37646,2.68696 -0.72761,5.37668 -1.10796,8.06298 -0.38759,2.72838 -0.76942,5.45798 -1.23537,8.17432 -0.41929,2.76115 -0.90843,5.51119 -1.37577,8.2645 -0.4857,2.79247 -0.97534,5.58403 -1.54803,8.36036 -0.54361,2.81634 -1.11811,5.62665 -1.69197,8.43696 -0.58789,2.8769 -1.225,5.74285 -1.88491,8.60411 -0.66049,2.89499 -1.36926,5.7783 -2.09726,8.6569 -0.73626,2.87369 -1.49224,5.74225 -2.34758,8.5833 -0.86873,2.77781 -1.69264,5.57147 -2.68272,8.30962 -0.96805,2.69462 -1.93845,5.38849 -2.96397,8.06196 -1.01778,2.68885 -2.05131,5.37211 -3.11914,8.0415 -1.0753,2.6902 -2.15472,5.37873 -3.27233,8.05172 -1.14317,2.65873 -2.2622,5.32771 -3.44965,7.96725 -1.19404,2.68352 -2.39388,5.36453 -3.62545,8.03108 -1.27521,2.71152 -2.52764,5.43373 -3.82053,8.13695 -1.32886,2.78092 -2.6644,5.55858 -4.01417,8.32943 -1.39826,2.8249 -2.76509,5.6653 -4.20727,8.4683 -1.41982,2.7842 -2.89347,5.5396 -4.40722,8.27395 -1.50166,2.70359 -3.06221,5.37492 -4.645,8.0317 -1.58822,2.66028 -3.2241,5.2886 -4.89853,7.89547 -1.64528,2.56525 -3.33802,5.10009 -5.04207,7.62642 -1.71756,2.50343 -3.47583,4.97691 -5.22973,7.45466 -1.77772,2.45879 -3.51641,4.94617 -5.35406,7.36133 -1.84889,2.36028 -3.60875,4.79105 -5.51686,7.10519 -1.82477,2.32848 -3.70991,4.6096 -5.61229,6.87505 -1.93026,2.25842 -3.83008,4.54274 -5.79103,6.77498 -2.00851,2.25639 -4.04067,4.49139 -6.03054,6.7644 -2.04731,2.20809 -4.08563,4.42403 -6.15103,6.61551 -2.05671,2.08058 -4.09425,4.1799 -6.16812,6.24371 -2.0128,1.94909 -3.99627,3.93358 -6.11735,5.76562 -1.99838,1.83605 -3.99919,3.67537 -6.09606,5.39826 -2.01021,1.79544 -4.08647,3.51391 -6.14391,5.25455 -2.04851,1.77647 -4.16878,3.46999 -6.2644,5.1905 -2.11771,1.7003 -4.22908,3.4041 -6.34482,5.10629 -2.0938,1.69557 -4.28433,3.26819 -6.39377,4.94562 -2.04218,1.53115 -4.08001,3.07062 -6.19777,4.49688 -1.93577,1.3583 -3.92614,2.62932 -5.90501,3.92304 -24.55643,13.83254 -79.05873,46.14483 -5.94256,3.525 -14.1091,8.13499 -28.14909,16.58933 -42.5009,24.37018 -2.00908,1.12737 -4.08021,2.14158 -6.11817,3.21561 -2.05354,0.99057 -4.0916,2.01077 -6.1654,2.95871 -2.04952,0.90642 -4.08346,1.84747 -6.13971,2.73894 -2.09501,0.84603 -4.13929,1.81194 -6.23984,2.64551 -2.09224,0.88264 -4.19344,1.74272 -6.30265,2.58427 -2.10196,0.80653 -4.20198,1.61801 -6.31717,2.38924 -2.11259,0.75518 -4.22357,1.51928 -6.36309,2.19486 -2.08546,0.69698 -4.17808,1.36994 -6.28722,1.99112 -2.0534,0.6433 -4.13508,1.18091 -6.20219,1.77696 -2.06487,0.50072 -4.10943,1.08194 -6.18406,1.54383 -2.09317,0.51208 -4.18741,1.01421 -6.29538,1.46373 -2.16967,0.48835 -4.33539,0.99366 -6.51783,1.42196 -2.24059,0.46935 -4.47522,0.96818 -6.72879,1.37246 -2.28657,0.43978 -4.56844,0.90397 -6.85742,1.32969 -2.32373,0.40178 -4.63493,0.87251 -6.96712,1.22388 -2.30851,0.38426 -4.61137,0.80081 -6.92837,1.13119 -2.2795,0.35269 -4.55884,0.70594 -6.84548,1.00995 -2.31725,0.3272 -4.62958,0.68441 -6.95712,0.93423 -2.3479,0.29765 -4.69667,0.58829 -7.04291,0.89891 -2.39856,0.31341 -4.7917,0.66892 -7.19945,0.90862 -2.43284,0.27643 -4.86548,0.55434 -7.29695,0.84261 -2.48947,0.29426 -4.97405,0.6314 -7.4715,0.85461 -2.49912,0.25717 -4.99781,0.5185 -7.49486,0.79519 -2.52365,0.29742 -5.05606,0.50394 -7.58543,0.74563 -2.5292,0.24418 -5.05777,0.49098 -7.59355,0.6602 -2.51063,0.20061 -5.02164,0.39726 -7.53009,0.62389 -2.52381,0.17176 -5.04927,0.31921 -7.57324,0.48923 -2.52952,0.15332 -5.06079,0.26874 -7.59177,0.39564 -2.52132,0.13182 -5.04384,0.21174 -7.56763,0.28392 -2.49395,0.0714 -4.98848,0.10012 -7.4831,0.14069 -2.47582,-0.0278 -4.952,-0.0158 -7.42766,-0.0613 -2.48146,-0.0634 -4.96318,-0.11605 -7.4447,-0.17739 -2.53175,-0.0601 -5.06423,-0.11369 -7.59391,-0.23587 -2.56034,-0.10858 -5.12267,-0.18674 -7.67888,-0.37303 -2.52669,-0.16634 -5.05451,-0.32491 -7.57595,-0.56009 -2.51611,-0.22247 -5.03208,-0.44654 -7.54715,-0.68051 -2.54636,-0.23908 -5.09252,-0.4804 -7.63163,-0.78896 -2.60391,-0.29578 -5.20719,-0.59708 -7.81052,-0.89801 -2.6747,-0.31421 -5.3511,-0.61846 -8.01778,-0.99614 -2.73682,-0.37441 -5.47279,-0.75502 -8.20827,-1.13911 -2.80626,-0.39788 -5.60112,-0.87416 -8.39416,-1.3553 -2.79452,-0.51501 -5.58881,-1.03461 -8.36123,-1.6601 -2.74775,-0.61388 -5.48916,-1.25876 -8.20824,-1.99031 -2.73362,-0.73134 -5.45561,-1.50399 -8.16713,-2.31366 -2.72822,-0.81837 -5.44352,-1.67787 -8.14621,-2.57722 -2.72199,-0.90867 -5.42974,-1.85775 -8.12287,-2.84899 -2.71325,-0.99257 -5.4198,-2.00453 -8.09342,-3.1003 -2.70804,-1.09302 -5.41138,-2.19871 -8.07478,-3.39752 -2.67725,-1.19286 -5.34649,-2.40358 -8.00022,-3.64803 -2.66291,-1.2524 -5.31532,-2.52726 -7.95546,-3.82703 -2.68387,-1.32214 -5.36308,-2.65385 -8.02681,-4.01623 -2.69752,-1.38634 -5.38456,-2.79359 -8.05339,-4.23444 -2.66235,-1.448 -5.31334,-2.91672 -7.97125,-4.37283 -2.66751,-1.48314 -5.33362,-2.96869 -7.96827,-4.50985 -2.67008,-1.55076 -5.31774,-3.13958 -7.96562,-4.72788 -2.66942,-1.59397 -5.33601,-3.19289 -7.97144,-4.84275 -2.63218,-1.64044 -5.26559,-3.27921 -7.86847,-4.966 -2.61423,-1.69518 -5.21444,-3.41149 -7.8106,-5.1342 -2.58264,-1.74131 -5.14355,-3.51449 -7.70622,-5.28496 -2.51296,-1.76768 -5.02021,-3.54358 -7.49966,-5.35814 -2.45289,-1.81381 -4.894866,-3.64247 -7.332845,-5.47624 -2.456219,-1.86389 -4.894836,-3.75017 -7.317276,-5.65781 -2.448972,-1.92317 -4.883678,-3.86419 -7.275175,-5.85873 -2.426389,-2.01577 -4.864957,-4.0166 -7.298903,-6.0232 -2.51056,-2.07685 -5.00506,-4.17311 -7.485897,-6.28537 -2.551223,-2.18079 -5.097237,-4.3677 -7.622135,-6.57898 -2.588327,-2.2475 -5.174752,-4.49807 -7.698713,-6.81805 -2.555903,-2.34161 -5.087687,-4.71027 -7.55838,-7.14195 -2.450693,-2.39552 -4.867379,-4.82657 -7.187285,-7.34984 -2.240665,-2.45833 -4.45114,-4.94377 -6.575011,-7.50441 -2.107137,-2.53852 -4.19159,-5.09676 -6.202401,-7.71259 -2.021861,-2.62957 -4.018144,-5.28005 -5.92969,-7.99128 -1.942593,-2.71672 -3.866112,-5.44793 -5.698963,-8.24035 -1.847192,-2.79476 -3.6803476,-5.59911 -5.4353651,-8.45308 -1.7231728,-2.8536 -3.4570798,-5.7017 -5.0566486,-8.62741 -1.56900446,-2.87491 -3.1010005,-5.77202 -4.4793241,-8.74422 -1.3793747,-2.90846 -2.6716684,-5.85875 -3.894323,-8.83646 -1.256198,-2.97875 -2.4491017,-5.98375 -3.5736397,-9.01481 -1.1808095,-3.0927 -2.3094415,-6.20554 -3.3953515,-9.33281 -1.138309,-3.21006 -2.196958,-6.44634 -3.183504,-9.70632 -0.981338,-3.31539 -1.987227,-6.6251 -2.818271,-9.98252 -0.888915,-3.40223 -1.706421,-6.82176 -2.403284,-10.26907 -0.695461,-3.47159 -1.313682,-6.95815 -1.819648,-10.46279 -0.489383,-3.52902 -0.927502,-7.06438 -1.235719,-10.61436 -0.313373,-3.56119 -0.551803,-7.12911 -0.720437,-10.70016 -0.146862,-3.6018 -0.244694,-7.2051 -0.268513,-10.81006 0.0292,-3.60241 0.04229,-7.20507 0.163413,-10.80613 0.130021,-3.56672 0.280693,-7.13268 0.477587,-10.69641 0.19672,-3.55389 0.466375,-7.1031 0.752867,-10.65072 0.295166,-3.55841 0.622534,-7.1146 1.036816,-10.66133 0.410713,-3.58548 0.833024,-7.1694 1.330476,-10.74413 0.490881,-3.64847 1.030301,-7.29047 1.567451,-10.93235 0.565567,-3.75482 1.168262,-7.50359 1.807576,-11.24663 0.689641,-3.84567 1.362205,-7.69488 2.143998,-11.52323 0.801721,-3.91148 1.589608,-7.82637 2.527021,-11.70839 0.962988,-3.97279 1.976637,-7.93257 3.077004,-11.86982 1.1613094,-3.98488 2.3349279,-7.96802 3.701193,-11.88869 1.372779,-3.98604 2.805273,-7.9538 4.4012015,-11.85662 1.5803623,-3.95603 3.2623266,-7.87004 5.0905997,-11.71852 1.8603409,-3.88692 3.7655113,-7.75281 5.7505731,-11.57772 2.0372997,-3.90873 4.1350127,-7.7853 6.3067737,-11.62115 2.209198,-3.93402 4.503803,-7.8204 6.849866,-11.67431 2.398866,-3.91138 4.839863,-7.79859 7.356692,-11.63517 2.586339,-3.84489 5.176964,-7.68741 7.923795,-11.4207 2.737536,-3.75289 5.50488,-7.48595 8.384045,-11.13177 2.892266,-3.67157 5.822004,-7.31366 8.826596,-10.89417 3.043132,-3.66421 6.127671,-7.2946 9.279622,-10.86582 3.194738,-3.64854 6.453023,-7.24017 9.747996,-10.79847 3.352449,-3.58266 6.76084,-7.11248 10.244634,-10.56795 3.513973,-3.51026 7.092367,-6.95556 10.681328,-10.38896 3.692177,-3.44683 7.385598,-6.89344 11.167698,-10.24197 3.8353,-3.33371 7.70769,-6.62549 11.65179,-9.83016 3.9694,-3.24049 8.03061,-6.36008 12.152,-9.40492 4.11571,-3.0124 8.29325,-5.93776 12.55467,-8.7411 15.95357,-10.36277 32.79271,-19.32784 49.19608,-28.9113 4.45219,-2.4946 8.93377,-4.93941 13.5237,-7.17368 4.57391,-2.23837 9.19125,-4.38974 13.89581,-6.34148 4.71141,-1.96455 9.43701,-3.89761 14.23331,-5.64752 4.85024,-1.77808 9.70112,-3.55834 14.62099,-5.13725 5.00434,-1.6368 10.0181,-3.24639 15.08608,-4.67735 5.16548,-1.48285 10.34226,-2.92782 15.56594,-4.19409 5.31214,-1.31178 10.63299,-2.58943 15.99283,-3.69406 5.42567,-1.15245 10.86292,-2.25662 16.33793,-3.15181 5.50338,-0.90361 11.02022,-1.72727 16.55425,-2.4213 5.58712,-0.6802 11.18339,-1.28945 16.79607,-1.71895 5.6229,-0.42228 11.25162,-0.76284 16.88869,-0.92664 5.68559,-0.18904 11.37326,-0.30046 17.06215,-0.31658 5.84001,-0.0151 11.68017,-0.01 17.51986,0.0594 6.00146,0.0808 12.00215,0.20997 18.00006,0.43701 6.13072,0.23224 12.25687,0.56421 18.37709,0.99364 6.17071,0.4386 12.33483,0.96992 18.48493,1.64122 6.20867,0.70507 12.41094,1.47734 18.587,2.43032 6.20444,0.95876 12.39769,1.98746 18.56555,3.16126 6.19485,1.17836 12.36665,2.47186 18.49538,3.95969 6.09157,1.48019 12.15914,3.06298 18.14721,4.9237 5.91199,1.84612 11.79921,3.78147 17.5735,6.02721 5.67453,2.21746 11.30026,4.56667 16.75196,7.2944 5.3534,2.69211 10.62315,5.5463 15.76811,8.62042 5.12867,3.05971 10.23073,6.16397 15.2918,9.33447 5.13864,3.22771 10.25125,6.49656 15.34018,9.80212 5.1958,3.39294 10.38935,6.79012 15.50366,10.30542 5.06032,3.48856 10.08838,7.02313 15.01203,10.7033 4.73436,3.52999 9.42433,7.12037 14.0148,10.83634 4.28799,3.48908 8.54208,7.02153 12.68085,10.68737 3.8546,3.39296 7.69322,6.80467 11.43373,10.32381 3.39165,3.18545 6.78123,6.37441 10.06875,9.668 2.704,2.74579 5.39636,5.50366 7.97331,8.37021 2.03405,2.25737 4.05362,4.52746 6.00426,6.85777 1.56922,1.85342 3.13578,3.70919 4.64353,5.61338 1.18669,1.46906 2.37498,2.93737 3.51364,4.44425 0.74151,1.01044 1.49109,2.0218 2.09481,3.12299 0,0 -37.05996,21.29414 -37.05996,21.29414 z"
       inkscape:connector-curvature="0" />
    <path
       style="opacity:1;fill:#a3a3a3;fill-opacity:1;stroke:none;stroke-width:0.40000001;stroke-linecap:round;stroke-miterlimit:4;stroke-dasharray:none;stroke-dashoffset:0;stroke-opacity:1"
       id="path4888"
       d="m 208.0289,336.11917 c -0.46016,0.34336 -0.90689,0.68937 -1.2595,1.14231 -0.53716,0.1702 -0.89991,0.63872 -1.30743,1.00421 -0.48023,0.39428 -1.01805,0.72396 -1.47851,1.15508 -0.52935,0.50911 -1.20532,0.84295 -1.75747,1.30981 -0.57512,0.52722 -1.15851,1.03774 -1.80678,1.47893 -0.61927,0.55662 -1.27014,1.08334 -1.83728,1.69725 -0.72117,0.45402 -1.2473,1.15853 -1.87446,1.73203 -0.66772,0.62654 -1.2803,1.29402 -1.88026,1.9828 -0.62143,0.76042 -1.24445,1.51489 -1.79007,2.33206 -0.64086,0.86851 -1.16022,1.81991 -1.70142,2.75205 -0.5666,0.99397 -1.06628,2.02317 -1.59532,3.03691 -0.52989,1.05699 -0.96524,2.16041 -1.39389,3.26188 -0.50062,1.05535 -0.81929,2.17649 -1.17814,3.28382 -0.41609,1.08355 -0.71125,2.20203 -1.05308,3.30915 -0.30456,1.16077 -0.54669,2.335 -0.73688,3.51942 -0.24031,1.2049 -0.36738,2.42668 -0.51115,3.64603 -0.114,1.24518 -0.15309,2.49298 -0.22563,3.74061 -0.004,1.26664 -0.008,2.53074 0.0401,3.79631 0.0221,1.2454 0.10873,2.48552 0.19968,3.72729 0.0969,1.20723 0.21209,2.41764 0.38435,3.61701 0.1561,1.20105 0.35889,2.39499 0.6162,3.57839 0.24412,1.21996 0.54092,2.42869 0.85963,3.63114 0.30864,1.20273 0.67824,2.38909 1.08717,3.56122 0.39743,1.19115 0.85791,2.35956 1.34905,3.51478 0.49971,1.18854 1.07599,2.34172 1.66687,3.48683 0.59134,1.15126 1.21141,2.28773 1.84693,3.41514 0.61644,1.11873 1.35673,2.15519 2.1513,3.1523 0.84575,1.07876 1.79146,2.07286 2.75452,3.04629 1.02699,1.0343 2.13847,1.9767 3.23391,2.93609 1.13896,0.98658 2.33124,1.90941 3.536,2.81378 1.23439,0.94509 2.51896,1.82004 3.79513,2.70649 1.2677,0.87943 2.5862,1.68268 3.93758,2.4264 1.36301,0.74689 2.76544,1.41422 4.17293,2.07244 1.39922,0.66392 2.83135,1.25343 4.25826,1.85468 1.3739,0.55484 2.78449,1.0067 4.18633,1.48365 1.39254,0.42255 2.79053,0.82097 4.20539,1.16614 1.36743,0.35833 2.75227,0.64555 4.13834,0.92207 1.35515,0.24599 2.71282,0.44975 4.07787,0.62649 1.35446,0.20624 2.7218,0.29233 4.08475,0.42678 1.32814,0.13548 2.66436,0.15493 3.99822,0.17332 1.27923,0.0467 2.55412,-0.0862 3.83011,-0.1554 1.23873,-0.15081 2.48474,-0.27495 3.71014,-0.51542 1.21364,-0.17926 2.38754,-0.51836 3.57613,-0.81859 1.16357,-0.26432 2.27343,-0.7087 3.40529,-1.07914 1.08699,-0.4024 2.2016,-0.76131 3.25642,-1.24561 1.03057,-0.46274 2.11536,-0.86031 3.05095,-1.50002 15.32061,-8.88108 -48.09436,27.62177 -33.17118,19.09335 0.98668,-0.60355 2.02867,-1.12925 2.96759,-1.80468 0.94718,-0.63467 1.86967,-1.30839 2.76004,-2.02073 0.89222,-0.70672 1.80306,-1.39897 2.6319,-2.18111 0.86671,-0.76382 1.70613,-1.55232 2.50006,-2.39074 0.85086,-0.80192 1.61577,-1.69351 2.37741,-2.58036 0.76289,-0.88504 1.5529,-1.75481 2.26395,-2.68193 0.72238,-0.91616 1.42168,-1.84872 2.13459,-2.77145 0.71162,-0.88263 1.27524,-1.86713 1.9343,-2.78716 0.61366,-0.94041 1.14173,-1.93026 1.78398,-2.85237 0.53116,-0.96356 1.10406,-1.89942 1.57857,-2.89229 0.47827,-0.91827 0.94934,-1.84148 1.40489,-2.77099 0.37055,-0.95587 0.80637,-1.87937 1.14608,-2.84623 0.35702,-0.93252 0.63519,-1.88749 0.93979,-2.83718 0.27009,-0.9628 0.49255,-1.93002 0.67767,-2.91259 0.22259,-0.95468 0.40693,-1.92338 0.52417,-2.89667 0.17158,-0.98353 0.23905,-1.9788 0.34111,-2.96994 0.0765,-1.00323 0.1411,-2.00742 0.15773,-3.01349 0.006,-1.00876 0.0268,-2.01711 -0.004,-3.02551 -0.0245,-1.00612 -0.0781,-2.00934 -0.16179,-3.01215 -0.0733,-1.02603 -0.17674,-2.04799 -0.30002,-3.06907 -0.11214,-1.02127 -0.26068,-2.03667 -0.42268,-3.051 -0.15668,-1.03345 -0.3425,-2.06126 -0.54206,-3.08715 -0.20317,-1.01882 -0.43177,-2.03368 -0.69238,-3.03943 -0.27063,-1.04948 -0.61124,-2.07841 -0.95491,-3.1056 -0.33463,-1.02565 -0.72261,-2.03276 -1.1218,-3.03469 -0.41177,-1.02569 -0.85738,-2.03557 -1.32038,-3.0389 -0.45206,-0.96199 -0.92519,-1.91658 -1.43906,-2.84727 -0.53558,-0.96586 -1.06898,-1.93255 -1.61927,-2.89015 -0.5325,-0.9211 -1.124,-1.80423 -1.73988,-2.67105 -0.62666,-0.87192 -1.26084,-1.7416 -1.96451,-2.55338 -0.69273,-0.86593 -1.44255,-1.68097 -2.18065,-2.50755 -0.70775,-0.7893 -1.48005,-1.51909 -2.23304,-2.26514 -0.78469,-0.68405 -1.52168,-1.42031 -2.30479,-2.10618 -0.77403,-0.61863 -1.55808,-1.22244 -2.34229,-1.82764 -0.81076,-0.60067 -1.63725,-1.1798 -2.45249,-1.77533 -0.78936,-0.56062 -1.59589,-1.10485 -2.45207,-1.55954 -0.8364,-0.51048 -1.67161,-1.015 -2.55422,-1.44121 -0.89145,-0.47477 -1.7668,-0.9901 -2.68551,-1.41226 -0.91277,-0.33078 -1.7787,-0.77632 -2.69707,-1.09704 -0.92217,-0.33885 -1.84976,-0.65952 -2.77243,-0.99768 -0.95997,-0.28342 -1.89984,-0.6139 -2.84326,-0.94849 -0.92126,-0.32025 -1.86279,-0.55708 -2.80311,-0.81203 -0.94848,-0.19751 -1.88036,-0.46201 -2.8169,-0.71726 -0.94466,-0.14817 -1.88786,-0.3178 -2.83086,-0.50383 -0.95775,-0.15972 -1.92762,-0.24708 -2.89117,-0.37978 -0.99723,-0.0685 -1.98208,-0.24248 -2.97692,-0.35813 -1.0044,-0.005 -1.99715,-0.0764 -2.99801,-0.15947 -1.00634,0.0136 -2.00547,0.0328 -3.01027,-0.009 -1.01898,0.057 -2.03025,0.12324 -3.04999,0.12731 -1.00814,0.002 -2.02757,0.0541 -3.02089,0.23412 -1.03287,-0.0618 -2.02876,0.24675 -3.04523,0.33037 -1.0136,0.0275 -1.97035,0.29042 -2.96606,0.43359 -0.99899,0.0165 -1.91951,0.41042 -2.88263,0.58197 -0.91436,0.26398 -1.84487,0.47502 -2.75656,0.75808 -0.89972,0.38802 -1.87351,0.55768 -2.76399,0.97877 -0.96918,0.27551 -1.86226,0.68834 -2.81272,1.01123 -0.90155,0.49037 -1.86867,0.78528 -2.77638,1.26852 -0.95078,0.38816 -1.88776,0.8086 -2.77268,1.32967 -0.97582,0.35859 -1.88544,0.82663 -2.79124,1.32848 -0.896,0.44237 -1.69854,1.05732 -2.57492,1.53025 0,0 33.23972,-26.88287 33.23972,-26.88287 l 0,0 c 0.86522,-0.51882 1.8337,-0.87446 2.73052,-1.33292 0.94683,-0.41399 1.91782,-0.77172 2.81637,-1.29174 0.96928,-0.37328 1.926,-0.77754 2.87797,-1.19437 0.99433,-0.34152 1.94516,-0.77629 2.9633,-1.03921 0.94743,-0.34634 1.89549,-0.64254 2.85817,-0.95282 0.9936,-0.21248 1.95275,-0.5668 2.9531,-0.73626 0.96759,-0.19696 1.90909,-0.47632 2.89546,-0.57965 0.9891,-0.21887 2.02133,-0.17853 3.01452,-0.40029 1.0153,-0.14903 2.03167,-0.17431 3.04894,-0.32187 1.03549,-0.14861 2.08845,-0.0657 3.12489,-0.22279 1.05741,0.008 2.11525,-0.0139 3.17252,-0.0275 1.0553,-0.0395 2.11099,-0.0551 3.16559,0.0323 1.04822,0.01 2.09621,0.0399 3.13677,0.18622 1.04601,0.0736 2.0926,0.11821 3.12239,0.33595 1.00702,0.1399 2.01913,0.22035 3.01826,0.40859 1.01506,0.15099 2.02347,0.32342 3.02087,0.56677 1.0102,0.20085 2.01877,0.40309 2.99493,0.73499 0.95909,0.25257 1.92751,0.46529 2.86581,0.78929 0.98517,0.30362 1.9531,0.65934 2.92688,0.99706 0.96654,0.32843 1.94221,0.62704 2.88749,1.01527 0.96325,0.35673 1.9259,0.71453 2.86336,1.13597 0.96574,0.45441 1.95628,0.86379 2.88594,1.38939 0.90939,0.50813 1.83296,0.99032 2.74464,1.49397 0.89346,0.53187 1.77571,1.08262 2.6666,1.61886 0.89527,0.60193 1.78475,1.21208 2.64631,1.86178 0.84721,0.61629 1.70405,1.21926 2.51726,1.88075 0.8638,0.671 1.70283,1.37723 2.51501,2.10955 0.80828,0.75487 1.62354,1.503 2.41109,2.27949 0.8065,0.80861 1.61287,1.61851 2.35933,2.48383 0.76831,0.86371 1.52563,1.73638 2.25409,2.63425 0.74588,0.9264 1.4633,1.87534 2.14344,2.85125 0.68115,0.97936 1.34035,1.97331 1.9373,3.00687 0.55903,0.97432 1.10703,1.95452 1.64789,2.93904 0.57263,1.02229 1.09161,2.07598 1.59936,3.13144 0.48649,1.05816 0.97544,2.11355 1.41002,3.19452 0.45515,1.08095 0.8713,2.17967 1.25693,3.28715 0.36898,1.10472 0.76022,2.20155 1.08217,3.32152 0.30642,1.09208 0.57161,2.19269 0.83158,3.29675 0.2156,1.06984 0.44658,2.13708 0.612,3.2161 0.17598,1.06322 0.37847,2.12245 0.49822,3.19389 0.13577,1.06661 0.30147,2.12994 0.37573,3.20311 0.0974,1.06209 0.22345,2.12219 0.2533,3.189 0.0538,1.0672 0.11937,2.13236 0.094,3.20175 0.006,1.08153 0.0231,2.16145 -0.0434,3.24193 -0.0346,1.07625 -0.129,2.14964 -0.21736,3.22347 -0.15092,1.04836 -0.22783,2.10792 -0.39211,3.156 -0.22051,1.02115 -0.33491,2.06072 -0.60315,3.06999 -0.19428,1.06631 -0.46619,2.12434 -0.79073,3.15771 -0.32928,1.03515 -0.59197,2.08568 -1.04192,3.07934 -0.34994,1.06425 -0.78886,2.08147 -1.25944,3.09869 -0.53174,1.00325 -0.93484,2.06512 -1.51318,3.04597 -0.47057,1.06527 -1.14264,2.01473 -1.70705,3.03029 -0.54994,1.04175 -1.2447,2.00123 -1.83057,3.02208 -0.6424,1.00975 -1.33297,1.99195 -2.06607,2.93849 -0.73008,0.95669 -1.41071,1.95097 -2.17613,2.8832 -0.77389,0.92003 -1.54713,1.84218 -2.2897,2.78608 -0.81363,0.86395 -1.56623,1.77523 -2.40567,2.61621 -0.85073,0.80409 -1.6335,1.68046 -2.52471,2.4417 -0.88681,0.75732 -1.75308,1.53574 -2.6623,2.26666 -0.95478,0.7024 -1.82965,1.51922 -2.85826,2.12659 -12.88995,8.42057 -26.05341,16.61231 -40.07428,22.9691 -1.11133,0.35787 -2.18119,0.83808 -3.29735,1.18621 -1.1411,0.33772 -2.25976,0.7483 -3.41648,1.03382 -1.18852,0.33501 -2.39576,0.57908 -3.60876,0.8074 -1.25849,0.23587 -2.52066,0.3987 -3.79503,0.52048 -1.31336,0.091 -2.62539,0.22538 -3.94411,0.19752 -1.34093,0.0269 -2.67889,-0.0275 -4.01711,-0.11379 -1.38935,-0.0901 -2.77426,-0.23393 -4.15642,-0.39962 -1.40379,-0.15563 -2.80044,-0.35084 -4.1933,-0.58573 -1.41877,-0.24269 -2.83147,-0.53305 -4.23383,-0.85688 -1.42728,-0.33648 -2.84861,-0.69351 -4.25726,-1.10213 -1.46953,-0.43785 -2.93633,-0.8879 -4.37572,-1.41757 -1.46755,-0.52641 -2.92193,-1.09 -4.344,-1.73053 -1.46856,-0.63971 -2.92579,-1.30514 -4.36042,-2.01811 -1.47817,-0.73612 -2.94478,-1.49697 -4.35834,-2.35231 -1.40135,-0.86284 -2.78313,-1.75574 -4.12162,-2.71412 -1.3237,-0.92549 -2.62528,-1.88266 -3.90243,-2.8715 -1.25591,-0.98469 -2.50183,-1.98244 -3.68956,-3.04942 -1.17653,-1.03597 -2.33383,-2.09522 -3.41974,-3.22691 -1.04624,-1.10151 -2.07148,-2.22448 -2.99517,-3.43248 -0.90492,-1.17978 -1.75179,-2.40022 -2.48067,-3.69816 -0.66278,-1.17445 -1.31464,-2.35565 -1.92898,-3.55627 -0.62782,-1.22294 -1.25974,-2.44534 -1.79476,-3.71282 -0.56371,-1.24566 -1.06422,-2.51967 -1.51945,-3.80892 -0.4389,-1.26373 -0.88805,-2.52584 -1.23055,-3.82006 -0.35389,-1.26917 -0.69085,-2.54496 -0.96888,-3.83243 -0.27215,-1.27638 -0.5882,-2.54565 -0.75561,-3.84219 -0.18471,-1.29319 -0.36573,-2.58467 -0.52233,-3.88201 -0.0923,-1.28752 -0.23105,-2.56986 -0.26698,-3.86002 -0.0482,-1.31252 -0.15024,-2.62046 -0.10966,-3.93521 -0.0652,-1.3317 0.002,-2.66989 0.0917,-3.99894 0.0324,-1.33865 0.18672,-2.67143 0.33315,-4.00055 0.20492,-1.26604 0.34989,-2.5338 0.60268,-3.79198 0.21388,-1.23161 0.53657,-2.44536 0.887,-3.64388 0.38768,-1.15653 0.75526,-2.31421 1.08649,-3.48815 0.44602,-1.14837 0.87882,-2.30162 1.30011,-3.45887 0.43229,-1.11974 0.9568,-2.20205 1.47972,-3.28181 0.49396,-1.03128 1.04748,-2.03096 1.5555,-3.05497 0.53694,-0.8962 1.00737,-1.83116 1.63328,-2.67161 0.54118,-0.80767 1.08587,-1.61381 1.71244,-2.35926 0.55642,-0.70128 1.26834,-1.27247 1.74302,-2.03495 0.6611,-0.51473 1.20275,-1.1642 1.81957,-1.72548 0.51438,-0.60471 1.12179,-1.11905 1.75964,-1.58144 0.56495,-0.49723 1.05005,-1.05506 1.67664,-1.48634 0.52731,-0.34209 0.95226,-0.81687 1.46191,-1.16495 0.46825,-0.30758 0.99149,-0.56997 1.27063,-1.08748 0.52515,-0.23401 0.94962,-0.59141 1.3682,-0.99857 0,0 39.66534,-15.95291 39.66534,-15.95291 z"
       inkscape:connector-curvature="0" />
    <path
       style="opacity:1;fill:#969696;fill-opacity:1;stroke:none;stroke-width:0.40000001;stroke-linecap:round;stroke-miterlimit:4;stroke-dasharray:none;stroke-dashoffset:0;stroke-opacity:1"
       id="path4890"
       d="m 516.45116,406.90768 c -0.3445,0.33772 -0.43865,0.72225 -0.59412,1.1553 -0.28595,0.30593 -0.39919,0.76509 -0.68016,1.11924 -0.12107,0.52585 -0.46391,0.94552 -0.71982,1.39497 -0.22603,0.61508 -0.62234,1.1337 -0.93231,1.70192 -0.44129,0.59546 -0.82914,1.22997 -1.25116,1.84484 -0.50024,0.5925 -0.92869,1.2342 -1.40597,1.84688 -0.51337,0.69284 -1.04165,1.37076 -1.55559,2.06318 -0.62563,0.81306 -1.1503,1.69585 -1.65232,2.58858 -0.5405,0.92585 -1.02456,1.88238 -1.53862,2.82274 -0.52427,0.9746 -1.00515,1.97076 -1.48417,2.96804 -0.50166,0.99443 -0.89923,2.03744 -1.31604,3.06936 -0.29315,1.10993 -0.73007,2.17818 -1.01695,3.28782 -0.30334,1.05928 -0.55508,2.12378 -0.78445,3.20131 -0.21311,0.99311 -0.46595,1.98825 -0.58898,2.99673 -0.16487,0.94982 -0.20566,1.91187 -0.30083,2.87014 -0.0104,0.95435 0.0104,1.90253 0.12676,2.84988 0.11064,0.98362 0.32247,1.9539 0.58375,2.90756 0.26818,1.02681 0.60755,2.03135 0.95987,3.03151 0.35594,1.02247 0.73995,2.03503 1.13374,3.04344 0.42104,1.06087 0.79762,2.13833 1.21948,3.19885 0.42865,1.09698 0.87452,2.18711 1.3314,3.27261 0.50623,1.15936 1.02169,2.31589 1.58052,3.45096 0.62234,1.26327 1.25976,2.51895 1.88188,3.78233 0.63671,1.28499 1.25422,2.57937 1.85743,3.88039 0.60467,1.28447 1.18569,2.57988 1.76202,3.87725 0.57395,1.30185 1.13684,2.6086 1.68382,3.92201 0.5796,1.35122 1.04232,2.74688 1.48438,4.14772 0.4167,1.38683 0.7819,2.78806 1.12073,4.19568 0.33075,1.3306 0.59623,2.67576 0.86193,4.02045 0.22948,1.28821 0.45477,2.57779 0.60445,3.87798 0.1427,1.2529 0.21591,2.5108 0.28202,3.76946 0.0683,1.36974 0.003,2.73839 -0.0595,4.10669 -0.0944,1.39965 -0.2458,2.79475 -0.38068,4.19092 -0.13627,1.39907 -0.27105,2.79828 -0.40067,4.19799 -0.13509,1.44877 -0.26526,2.89803 -0.38438,4.3482 -0.12555,1.46317 -0.24402,2.92691 -0.36165,4.39073 -0.12149,1.45782 -0.22357,2.91724 -0.34804,4.3748 -0.0885,1.4518 -0.16591,2.90498 -0.20711,4.35895 -0.0403,1.40026 -0.0354,2.80016 -0.008,4.20048 0.0212,1.30686 0.0909,2.61332 0.17982,3.91724 0.0921,1.21653 0.29626,2.41812 0.55473,3.60909 0.27012,1.17663 0.637,2.32635 1.05601,3.45742 0.41628,1.11048 0.93642,2.17723 1.50307,3.21764 0.57718,1.02288 1.22917,2.00079 1.94362,2.93234 0.69742,0.93955 1.48751,1.79748 2.28657,2.64956 0.76945,0.8137 1.61228,1.55789 2.48756,2.25637 0.8884,0.56657 1.76164,1.14719 2.75801,1.50481 1.08082,0.40263 2.11823,0.95314 3.23792,1.23779 1.09623,0.4491 2.2379,0.74543 3.36203,1.09994 1.06445,0.29431 2.14821,0.65476 3.25288,0.74883 1.05739,0.18445 2.15315,0.32521 3.22984,0.27103 1.12837,0.0918 2.2515,0.0578 3.38498,0.0983 1.07317,-0.0491 2.1456,-0.15978 3.21625,-0.2129 1.01058,-0.0933 2.07688,-0.11046 3.04805,-0.42533 0.95646,-0.21531 1.99315,-0.28416 2.89125,-0.69094 0.93417,-0.26328 1.85873,-0.58736 2.74307,-0.9929 0.88629,-0.37882 1.81022,-0.76858 2.61004,-1.31485 0.87863,-0.49287 1.79661,-0.94212 2.64128,-1.49576 14.7585,-9.05714 -48.0867,28.85924 -33.07277,19.02769 0.89652,-0.53835 1.82612,-1.07623 2.65001,-1.72636 0.87885,-0.55497 1.66234,-1.24954 2.50616,-1.85613 0.7615,-0.69209 1.57113,-1.35939 2.22006,-2.16345 0.75472,-0.7441 1.32595,-1.62299 1.91545,-2.49376 0.55561,-0.90204 1.16508,-1.76978 1.73691,-2.66111 0.52179,-0.92136 0.96183,-1.89035 1.5072,-2.79772 0.50727,-0.91399 0.89543,-1.89411 1.30851,-2.85485 0.41256,-0.91356 0.84428,-1.83513 1.15249,-2.79027 0.33157,-0.97888 0.62054,-1.96205 0.85356,-2.9694 0.25725,-1.03013 0.48264,-2.06751 0.72462,-3.10122 0.23728,-1.06631 0.4817,-2.13178 0.68639,-3.20497 0.19963,-1.11079 0.5136,-2.19414 0.78475,-3.28854 0.32105,-1.13605 0.64907,-2.271 1.08937,-3.3677 0.42993,-1.17198 0.91196,-2.327 1.46621,-3.4467 0.54999,-1.13639 1.17126,-2.23206 1.78296,-3.3346 0.60766,-1.07464 1.28523,-2.10566 1.93055,-3.15788 0.7321,-1.00728 1.40373,-2.05948 2.08558,-3.10192 0.76878,-1.02498 1.53326,-2.05544 2.28131,-3.09763 0.78622,-1.00123 1.6207,-1.96314 2.39552,-2.97365 0.8098,-0.99015 1.6422,-1.96277 2.44287,-2.95997 0.8287,-0.98298 1.65315,-1.96674 2.48956,-2.94373 0.83222,-0.94702 1.71248,-1.85418 2.5226,-2.82 0.83225,-0.91332 1.61919,-1.86506 2.40145,-2.82101 0.75265,-0.93606 1.48509,-1.88551 2.27389,-2.79265 0.65681,-0.97277 1.31066,-1.94971 2.01269,-2.89093 0.56303,-0.97094 1.23021,-1.87934 1.77868,-2.85777 0.55848,-0.91076 1.00121,-1.88009 1.48668,-2.83298 0.43236,-0.98327 0.7995,-1.98164 1.1454,-2.99814 0.40342,-0.94393 0.64389,-1.9434 0.91999,-2.92944 0.33557,-0.92981 0.4967,-1.90599 0.78057,-2.85124 0.25351,-0.98389 0.30604,-1.9981 0.4789,-2.99455 0.11148,-1.02557 0.11793,-2.05452 0.18851,-3.08228 -0.007,-1.01413 -0.0352,-2.02812 -0.11232,-3.03951 -0.0447,-0.92982 -0.21405,-1.8416 -0.38666,-2.75385 -0.19729,-0.90764 -0.48344,-1.78872 -0.81132,-2.65638 -0.3397,-0.85333 -0.75501,-1.67464 -1.20511,-2.47446 -0.47746,-0.85645 -0.99412,-1.69136 -1.5226,-2.5172 -0.52739,-0.81179 -1.10795,-1.58548 -1.67725,-2.36759 -0.59106,-0.74894 -1.16591,-1.51161 -1.79965,-2.22548 -0.62542,-0.76508 -1.29522,-1.49167 -1.95746,-2.22462 -0.68756,-0.71679 -1.36573,-1.43914 -2.07969,-2.13097 -0.74167,-0.7226 -1.53132,-1.39276 -2.29721,-2.0892 -0.77795,-0.68235 -1.60226,-1.30726 -2.40591,-1.95799 -0.83615,-0.65217 -1.71381,-1.24674 -2.57135,-1.86941 -0.87302,-0.59964 -1.73694,-1.22605 -2.67098,-1.72897 -0.87698,-0.56357 -1.82435,-0.97647 -2.75741,-1.43202 -0.91318,-0.47723 -1.86415,-0.85438 -2.81403,-1.24809 -0.93679,-0.3985 -1.91448,-0.65461 -2.87281,-1.00169 -0.95452,-0.23726 -1.91854,-0.43346 -2.8771,-0.65305 -0.98759,-0.19769 -1.9877,-0.34753 -2.98359,-0.50839 -1.01506,-0.0803 -2.02566,-0.20619 -3.03563,-0.33366 -1.01357,-0.14855 -2.02873,-0.2276 -3.05029,-0.27797 -1.03277,-0.0564 -2.06453,-0.12948 -3.09651,-0.19841 -1.06912,-0.0682 -2.13823,-0.13621 -3.20751,-0.20184 -1.08586,-0.0684 -2.17209,-0.13053 -3.25819,-0.19493 -1.10113,-0.0367 -2.19203,-0.13929 -3.28442,-0.27149 -1.0992,-0.0964 -2.18797,-0.23615 -3.27665,-0.41023 -1.0931,-0.15764 -2.18838,-0.29889 -3.28399,-0.43774 -1.10891,-0.14882 -2.22127,-0.2696 -3.33154,-0.40728 -1.15025,-0.15981 -2.2941,-0.37068 -3.44289,-0.54742 -1.15914,-0.18201 -2.32976,-0.29842 -3.47628,-0.55057 -1.13235,-0.23083 -2.26967,-0.43451 -3.40682,-0.63983 -1.11409,-0.28789 -2.23821,-0.53597 -3.36398,-0.77337 -1.12056,-0.32073 -2.25596,-0.58769 -3.38743,-0.86699 -1.15313,-0.2318 -2.27593,-0.5753 -3.40973,-0.88273 -1.12899,-0.32445 -2.2801,-0.57246 -3.39834,-0.93198 -1.12073,-0.36397 -2.2661,-0.65006 -3.3722,-1.05703 -1.07528,-0.3868 -2.16205,-0.7423 -3.25504,-1.07567 -1.1162,-0.3589 -2.2057,-0.79591 -3.31807,-1.16829 -1.1196,-0.35559 -2.20058,-0.81661 -3.29533,-1.24062 -1.05955,-0.40271 -2.12709,-0.78452 -3.19125,-1.17509 -1.08486,-0.43531 -2.1719,-0.8657 -3.25887,-1.29615 0,0 35.4932,-23.8016 35.4932,-23.8016 l 0,0 c 1.06322,0.41845 2.12732,0.83622 3.20526,1.21533 1.07555,0.39855 2.14983,0.80028 3.21825,1.21761 1.06578,0.40189 2.14348,0.76451 3.22078,1.1338 1.07826,0.38848 2.1632,0.75441 3.26104,1.08338 1.08185,0.36419 2.16172,0.73578 3.25322,1.07006 1.09882,0.29317 2.1802,0.64824 3.28198,0.93118 1.12874,0.26607 2.24057,0.59931 3.3648,0.88388 1.11946,0.29057 2.25101,0.52626 3.37015,0.81887 1.10326,0.27196 2.20415,0.56222 3.32175,0.76921 1.08742,0.24389 2.17543,0.49859 3.27957,0.65472 1.12273,0.20637 2.2431,0.42748 3.37283,0.59331 1.15215,0.12897 2.29515,0.32901 3.44148,0.50077 1.12044,0.17207 2.24123,0.33318 3.36988,0.43928 1.11821,0.1355 2.23441,0.28657 3.35125,0.43281 1.09466,0.14642 2.18825,0.30122 3.28481,0.4331 1.05865,0.10319 2.12123,0.17024 3.1802,0.27468 1.06949,0.0615 2.1417,0.0799 3.21024,0.16849 1.08897,0.0666 2.17782,0.13502 3.26652,0.20602 1.07532,0.0705 2.15056,0.14249 3.22541,0.21982 1.04804,0.0753 2.09678,0.14636 3.14183,0.25683 1.05117,0.12855 2.09725,0.3002 3.14998,0.41979 1.05683,0.13664 2.11824,0.26269 3.15631,0.5101 1.05184,0.20597 2.10026,0.42162 3.13124,0.71661 1.06056,0.26861 2.10862,0.6388 3.1299,1.02584 1.03714,0.36307 2.04601,0.77946 3.03938,1.24941 0.9978,0.45753 1.97581,0.95073 2.9492,1.45912 1.00832,0.53281 1.98849,1.10844 2.94618,1.7295 0.95239,0.65216 1.9119,1.29411 2.83722,1.98469 0.91933,0.65729 1.81613,1.34666 2.69361,2.05877 0.87086,0.69502 1.71844,1.4199 2.54139,2.17103 0.81316,0.73426 1.6293,1.46577 2.39585,2.24949 0.75651,0.76345 1.48351,1.55536 2.21588,2.34174 0.68121,0.76273 1.35717,1.52983 2.0105,2.31673 0.67735,0.81778 1.33234,1.65466 1.96796,2.50523 0.62561,0.85418 1.2401,1.71612 1.81595,2.60501 0.56333,0.89103 1.12024,1.78772 1.63175,2.70964 0.55631,0.98047 1.06266,1.98753 1.51637,3.01962 0.40096,1.02305 0.80842,2.0476 1.0636,3.11864 0.31641,1.08328 0.54041,2.19742 0.68236,3.31627 0.12644,1.10678 0.24083,2.21686 0.25855,3.33164 0.0956,1.13486 0.0497,2.28345 -0.0179,3.41869 0.009,1.13063 -0.15796,2.26793 -0.27709,3.39058 -0.0922,1.09544 -0.38838,2.16278 -0.59602,3.23855 -0.29259,1.04374 -0.59119,2.08431 -0.82181,3.1433 -0.36187,1.06193 -0.6595,2.13677 -1.06151,3.18297 -0.34173,1.12342 -0.82225,2.19606 -1.29498,3.26447 -0.52508,1.05364 -0.99863,2.13456 -1.66885,3.11053 -0.54999,1.07951 -1.24351,2.07843 -1.94056,3.06729 -0.59756,1.11809 -1.38716,2.0847 -2.14845,3.09255 -0.77078,0.99916 -1.54989,1.98951 -2.336,2.97679 -0.84426,0.95502 -1.63435,1.95621 -2.48885,2.90347 -0.8725,0.92465 -1.69775,1.87902 -2.54032,2.82941 -0.84784,0.94825 -1.6596,1.93267 -2.45771,2.9234 -0.84789,0.93903 -1.59518,1.96379 -2.41599,2.92552 -0.85012,0.92409 -1.61234,1.93027 -2.34157,2.94785 -0.79619,0.92127 -1.51557,1.9132 -2.14494,2.95526 -0.73592,0.93482 -1.36837,1.94018 -2.03519,2.92341 -0.67026,1.00461 -1.30816,2.03478 -1.89133,3.09332 -0.56445,1.00868 -1.16089,1.99659 -1.638,3.04921 -0.40922,1.01173 -0.92583,1.98153 -1.24135,3.02965 -0.36654,0.98238 -0.61526,2.0006 -0.9236,3.00112 -0.27755,1.05112 -0.45619,2.12672 -0.69015,3.18813 -0.22008,1.05402 -0.46148,2.10382 -0.69773,3.15422 -0.25727,1.06994 -0.42354,2.15411 -0.73898,3.20819 -0.30429,1.07546 -0.55837,2.16211 -0.95758,3.21067 -0.42235,1.00456 -0.8801,1.99751 -1.2291,3.02957 -0.39026,1.01981 -0.94624,1.97511 -1.43923,2.94802 -0.45408,1.04163 -0.99051,2.01674 -1.59806,2.97707 -0.57864,0.96889 -1.14893,1.93904 -1.73647,2.90337 -0.68495,0.87761 -1.23125,1.85505 -2.00935,2.66135 -0.67886,0.86943 -1.51903,1.57786 -2.30898,2.33928 -0.87086,0.64113 -1.6675,1.39114 -2.53655,2.03515 -13.0013,8.31828 -26.37302,16.10849 -40.03265,23.31277 -0.93973,0.42114 -1.83161,0.93403 -2.79757,1.29932 -0.97647,0.29568 -1.91372,0.70069 -2.9119,0.93305 -0.99989,0.23561 -1.98693,0.48784 -3.00051,0.65903 -1.04587,0.0636 -2.07485,0.30529 -3.12134,0.38011 -1.09168,-0.0104 -2.17863,0.12004 -3.27195,0.11516 -1.13487,0.0538 -2.29246,-0.0232 -3.42523,-0.0841 -1.17124,-0.0437 -2.33028,-0.12189 -3.49508,-0.25308 -1.18856,-0.22701 -2.38334,-0.40524 -3.55162,-0.73024 -1.15694,-0.37348 -2.33673,-0.66607 -3.48073,-1.08301 -1.1715,-0.37287 -2.30374,-0.86686 -3.46747,-1.26537 -1.17245,-0.54269 -2.38103,-1.01013 -3.50947,-1.64479 -1.14946,-0.71003 -2.29141,-1.44626 -3.30143,-2.34932 -0.9631,-0.85601 -1.90087,-1.74236 -2.76003,-2.70405 -0.88612,-0.97254 -1.73147,-1.98046 -2.51443,-3.03864 -0.80796,-1.11019 -1.57521,-2.24995 -2.24629,-3.44918 -0.66373,-1.21119 -1.27468,-2.45168 -1.7917,-3.73326 -0.49486,-1.28272 -0.96432,-2.57575 -1.30235,-3.9104 -0.36662,-1.35802 -0.66422,-2.73743 -0.83026,-4.13545 -0.18459,-1.40206 -0.24765,-2.81217 -0.33072,-4.22325 -0.0354,-1.45129 -0.0954,-2.90249 -0.0625,-4.35435 0.0105,-1.50758 0.0549,-3.01312 0.12746,-4.5192 0.0528,-1.4868 0.20474,-2.96782 0.30846,-4.4517 0.11624,-1.46911 0.23396,-2.93808 0.35307,-4.40697 0.12531,-1.45736 0.23771,-2.91582 0.36686,-4.37287 0.12607,-1.40636 0.25193,-2.81277 0.38841,-4.21817 0.13288,-1.3733 0.25731,-2.74757 0.41393,-4.11843 0.14114,-1.23508 0.20772,-2.48025 0.23557,-3.72234 0.0174,-1.16388 -0.0406,-2.32918 -0.13727,-3.48885 -0.0885,-1.20027 -0.212,-2.39261 -0.4365,-3.57681 -0.19868,-1.27958 -0.46524,-2.54971 -0.74168,-3.81434 -0.30696,-1.32985 -0.61541,-2.65889 -0.9957,-3.97028 -0.36185,-1.27677 -0.77498,-2.54075 -1.27426,-3.77088 -0.52966,-1.28394 -1.07763,-2.56024 -1.63461,-3.83254 -0.56398,-1.27769 -1.13351,-2.55306 -1.72605,-3.81781 -0.58633,-1.27138 -1.18756,-2.53585 -1.80739,-3.79126 -0.61615,-1.25437 -1.25083,-2.49936 -1.8721,-3.75117 -0.61431,-1.20871 -1.166,-2.44849 -1.72618,-3.68304 -0.4744,-1.11405 -0.94825,-2.22856 -1.38894,-3.35652 -0.41477,-1.05408 -0.83355,-2.1056 -1.2099,-3.17461 -0.43739,-1.05845 -0.83475,-2.13403 -1.22759,-3.20955 -0.38378,-1.09312 -0.78728,-2.1778 -1.10579,-3.29269 -0.30983,-1.12419 -0.64378,-2.24259 -0.84787,-3.39344 -0.17113,-1.10224 -0.38902,-2.2006 -0.37514,-3.32161 -0.10225,-1.12205 -0.0392,-2.25778 0.0507,-3.37733 0.12931,-1.11853 0.19438,-2.24259 0.41881,-3.35159 0.2405,-1.12354 0.41825,-2.25436 0.71388,-3.36397 0.2962,-1.15741 0.51094,-2.33558 0.93655,-3.45997 0.27357,-1.20692 0.69492,-2.36133 1.10062,-3.52942 0.43164,-1.068 0.89265,-2.12479 1.38635,-3.16553 0.46334,-0.99802 0.98005,-1.97179 1.47843,-2.95239 0.50961,-0.95975 0.99342,-1.93249 1.50539,-2.89094 0.44737,-0.77658 0.9062,-1.5481 1.44862,-2.26255 0.44827,-0.65239 0.96481,-1.24023 1.372,-1.91854 0.46272,-0.54745 0.93557,-1.08724 1.30483,-1.69558 0.38596,-0.41759 0.68968,-0.92366 1.0709,-1.34449 0.17672,-0.44009 0.46984,-0.85848 0.79822,-1.20863 0.16573,-0.46977 0.48774,-0.81073 0.59991,-1.27868 0.29569,-0.35881 0.49094,-0.70221 0.6344,-1.19443 0,0 39.06215,-17.39719 39.06215,-17.39719 z"
       inkscape:connector-curvature="0" />
    <path
       style="opacity:1;fill:#969696;fill-opacity:1;stroke:none;stroke-width:0.5;stroke-linecap:round;stroke-miterlimit:4;stroke-dasharray:none;stroke-dashoffset:0;stroke-opacity:1;stroke-linejoin:round"
       id="path4892"
       d="m 179.00365,582.88471 c 0.0493,0.35473 0.0704,0.73724 0.0858,1.07761 0.0437,0.36499 0.13794,0.72131 0.19713,1.0821 0.12371,0.46262 0.25275,0.92393 0.37317,1.38686 0.13782,0.50374 0.33305,0.98551 0.523,1.47113 0.24964,0.63469 0.50956,1.26495 0.77849,1.89164 0.28155,0.68363 0.61742,1.34275 0.94954,2.00267 0.36529,0.75541 0.75319,1.49947 1.15257,2.23733 0.42965,0.81979 0.87689,1.62961 1.32994,2.43656 0.45804,0.81529 0.92228,1.62918 1.43148,2.4138 0.53345,0.87998 1.10966,1.73281 1.65981,2.60219 0.56921,0.84323 1.13643,1.68698 1.73109,2.51252 0.61533,0.84971 1.21564,1.71034 1.83482,2.55726 0.62078,0.86476 1.2592,1.71632 1.90178,2.56501 0.64861,0.87467 1.31205,1.74021 2.02414,2.56458 0.74211,0.92268 1.51606,1.81801 2.30241,2.70321 0.80045,0.92481 1.62028,1.83448 2.45867,2.72523 0.85353,0.91696 1.72278,1.8177 2.58715,2.72438 0.88602,0.91936 1.78407,1.82657 2.66695,2.74907 0.90822,0.92845 1.82681,1.84692 2.72601,2.7842 0.92979,0.95116 1.88274,1.87817 2.82611,2.81554 0.9855,0.99531 1.97532,1.98629 2.98695,2.95537 1.06806,1.05424 2.18086,2.06236 3.26437,3.10076 1.15878,1.05227 2.29289,2.13067 3.44549,3.18958 1.18516,1.10467 2.36972,2.21011 3.51815,3.3532 1.14919,1.10638 2.26656,2.24596 3.372,3.39591 1.08973,1.14323 2.17297,2.29286 3.22213,3.47362 1.04278,1.13898 2.05375,2.30705 3.05395,3.48346 0.99389,1.1848 1.96561,2.38756 2.92114,3.60349 0.94079,1.22415 1.86891,2.45814 2.77815,3.70599 0.8978,1.23872 1.76787,2.49629 2.63751,3.75475 0.86474,1.24178 1.68884,2.51135 2.50997,3.78222 0.78723,1.24595 1.5887,2.48241 2.3589,3.73904 0.73992,1.21301 1.41901,2.46109 2.09781,3.70883 0.61514,1.18677 1.20364,2.38669 1.75945,3.60233 0.52299,1.15228 0.99926,2.32495 1.44467,3.50916 0.43483,1.12377 0.78794,2.27538 1.13914,3.42715 0.34624,1.12768 0.60276,2.27994 0.85797,3.43081 0.21301,1.06368 0.40087,2.13209 0.54887,3.20674 0.12559,1.03627 0.24878,2.08418 0.27661,3.12873 0.0368,0.95125 0.0702,1.89701 0.0359,2.8481 -0.0321,0.90538 -0.0118,1.8251 -0.12341,2.72439 -0.11666,0.79654 -0.17313,1.58971 -0.33946,2.37668 -0.11426,0.84461 -0.33372,1.66603 -0.48247,2.5026 -0.33287,0.73381 -0.4593,1.54429 -0.87967,2.23547 -0.40182,0.77492 -0.76696,1.58626 -1.35297,2.2407 -0.505,0.70649 -1.23379,1.15193 -1.80196,1.78481 -12.11131,9.06582 -25.78075,16.08383 -39.39261,22.60129 -0.82282,0.2448 -1.66904,0.64069 -2.53105,0.74351 -0.83949,0.21578 -1.69382,0.25273 -2.53828,0.4562 -0.85972,-0.0177 -1.69442,0.14557 -2.54104,0.28788 -0.83733,0.16077 -1.70063,0.0316 -2.5404,0.13545 -0.84871,0.0319 -1.68523,-0.0113 -2.54061,0.0249 -0.85468,0.009 -1.68971,-0.13188 -2.5449,-0.13608 -0.84052,-0.17887 -1.70517,-0.17361 -2.54199,-0.35108 -0.83964,-0.11679 -1.65897,-0.41951 -2.4968,-0.53962 -0.83496,-0.24588 -1.6453,-0.61234 -2.48702,-0.83637 -0.85911,-0.37719 -1.71943,-0.76657 -2.52638,-1.24768 -0.80457,-0.46428 -1.59292,-0.94842 -2.35549,-1.47926 -0.75946,-0.51719 -1.46244,-1.11261 -2.20753,-1.64904 -0.73046,-0.61167 -1.45543,-1.2189 -2.14611,-1.87612 -0.72009,-0.61263 -1.3888,-1.28337 -2.09886,-1.90915 -0.72872,-0.68427 -1.50949,-1.30371 -2.26852,-1.95261 -0.80956,-0.695 -1.66726,-1.32972 -2.47369,-2.0279 -0.88399,-0.59971 -1.71182,-1.2785 -2.59225,-1.88251 -0.9329,-0.68217 -1.85682,-1.37653 -2.81716,-2.02002 -0.96489,-0.72321 -1.97529,-1.37544 -2.95021,-2.08492 -0.98179,-0.70659 -1.99248,-1.37012 -2.97901,-2.07076 -1.02802,-0.70309 -2.04712,-1.42041 -3.05773,-2.14833 -1.01934,-0.76728 -2.0818,-1.47176 -3.08648,-2.25906 -1.06899,-0.72263 -2.07993,-1.5248 -3.1073,-2.3042 -1.06934,-0.81067 -2.11219,-1.65457 -3.1543,-2.50082 -1.05784,-0.85798 -2.06805,-1.77149 -3.10283,-2.65642 -1.00919,-0.91118 -2.01707,-1.82429 -2.98009,-2.78441 -0.97629,-0.96497 -1.91728,-1.96296 -2.84042,-2.9786 -0.97421,-1.08185 -1.86789,-2.22884 -2.72682,-3.40291 -0.85721,-1.19045 -1.65902,-2.41877 -2.44982,-3.65384 -0.79306,-1.26051 -1.56211,-2.5357 -2.30665,-3.82542 -0.75133,-1.28533 -1.43177,-2.60985 -2.11149,-3.93384 -0.66446,-1.27265 -1.27921,-2.57011 -1.91029,-3.85942 -0.65098,-1.30734 -1.2508,-2.63713 -1.81254,-3.98487 -0.54005,-1.30836 -1.07109,-2.62042 -1.60344,-3.93192 -0.54287,-1.28574 -0.9853,-2.60996 -1.45034,-3.92492 -0.46993,-1.25827 -0.84897,-2.54672 -1.24074,-3.83059 -0.39758,-1.22589 -0.70819,-2.47646 -1.03763,-3.72158 -0.30917,-1.23372 -0.60022,-2.47542 -0.82443,-3.72777 -0.24304,-1.21349 -0.37548,-2.44359 -0.48848,-3.67457 -0.12901,-1.22296 -0.17354,-2.4536 -0.18597,-3.6828 -0.0329,-1.21017 0.0151,-2.42193 0.068,-3.6311 0.0937,-1.20596 0.12789,-2.41991 0.28225,-3.62024 0.1141,-1.20225 0.25072,-2.39868 0.42667,-3.59323 0.13883,-1.23083 0.38972,-2.44316 0.58825,-3.66541 0.25038,-1.1805 0.51687,-2.35317 0.80564,-3.52511 0.2587,-1.2132 0.6237,-2.39858 0.93619,-3.59877 0.39477,-1.16523 0.74657,-2.34422 1.11966,-3.51647 0.4416,-1.21928 0.94664,-2.42231 1.50258,-3.59486 0.56131,-1.19578 1.2167,-2.34468 1.88304,-3.48457 0.65673,-1.13998 1.32467,-2.28843 2.06577,-3.37683 0.74199,-1.06698 1.4055,-2.18399 2.20076,-3.21283 0.74971,-1.01658 1.5074,-2.01215 2.3268,-2.97433 0.80324,-0.88015 1.48307,-1.86441 2.31854,-2.71421 0.78141,-0.82588 1.57222,-1.63926 2.36185,-2.45618 0.13116,-0.12794 0.26231,-0.25588 0.39346,-0.38382 0,0 39.54869,-16.20497 39.54869,-16.20497 l 0,0 c -0.13543,0.11903 -0.27087,0.23806 -0.4063,0.35709 -0.84801,0.72054 -1.67525,1.47076 -2.43976,2.28094 -0.80159,0.8321 -1.7337,1.53693 -2.42452,2.47753 -0.80929,0.92864 -1.6847,1.78525 -2.4208,2.77194 -0.76971,0.99218 -1.64604,1.899 -2.30361,2.97722 -0.71649,1.04801 -1.46264,2.07735 -2.17639,3.12816 -0.65499,1.08997 -1.32407,2.17089 -1.98041,3.25918 -0.59469,1.05229 -1.15016,2.11043 -1.67823,3.19726 -0.51406,1.05444 -0.89831,2.1605 -1.22517,3.28667 -0.4404,1.07776 -0.68747,2.20987 -1.07293,3.30697 -0.28282,1.15136 -0.61596,2.28372 -0.8448,3.44602 -0.33028,1.10482 -0.45666,2.24557 -0.73438,3.36311 -0.16058,1.15777 -0.39706,2.30188 -0.49048,3.46835 -0.10507,1.14689 -0.30524,2.28449 -0.36739,3.43679 -0.0911,1.11988 -0.13379,2.23977 -0.20589,3.36068 0.009,1.1256 -0.0125,2.24645 0.0237,3.37124 0.10247,1.1202 0.1609,2.24119 0.31749,3.35584 0.20197,1.14308 0.4031,2.28365 0.65376,3.41825 0.31678,1.19641 0.60104,2.40133 0.95561,3.58689 0.37255,1.22576 0.71811,2.46082 1.14661,3.66835 0.44293,1.25567 0.85391,2.52374 1.35264,3.75844 0.52442,1.2986 1.04752,2.59776 1.57952,3.89328 0.5304,1.26949 1.05884,2.5384 1.68701,3.76423 0.61844,1.26615 1.22135,2.53991 1.86837,3.79179 0.64413,1.26037 1.28704,2.52252 1.99976,3.74599 0.71453,1.23174 1.44895,2.45185 2.21186,3.65432 0.74254,1.15527 1.49851,2.30258 2.31175,3.40977 0.77965,1.04525 1.6067,2.05405 2.49663,3.00801 0.87874,0.94582 1.78255,1.86852 2.71163,2.76502 0.93643,0.87783 1.88122,1.74731 2.85565,2.58303 0.98686,0.86588 1.99815,1.70354 3.02043,2.52719 1.0157,0.81133 2.04709,1.60217 3.08587,2.38357 1.02814,0.77125 2.06538,1.52899 3.1013,2.28966 1.01128,0.71866 2.01775,1.44319 3.02783,2.16341 1.01487,0.70672 2.02442,1.42104 3.04451,2.12025 1.00813,0.69059 2.00762,1.39279 3.00184,2.10316 0.97952,0.68059 1.95768,1.36163 2.92966,2.05316 0.95482,0.69191 1.90699,1.38711 2.86165,2.07923 0.92101,0.69911 1.87228,1.36057 2.74873,2.11657 0.84388,0.66722 1.66563,1.36093 2.49115,2.05067 0.80545,0.66646 1.56931,1.38079 2.35354,2.07185 0.70049,0.64501 1.39575,1.29508 2.11429,1.91984 0.62047,0.53367 1.27358,1.03514 1.92946,1.5232 0.64812,0.4993 1.33497,0.95202 2.0336,1.37612 0.68876,0.38755 1.36904,0.78727 2.10229,1.08852 0.71003,0.25457 1.39803,0.55323 2.14768,0.67836 0.71066,0.24311 1.4898,0.38055 2.2295,0.46398 0.74602,0.17788 1.54979,0.18367 2.30712,0.26277 0.7785,-0.004 1.54779,0.16781 2.32955,0.0603 0.80519,0.0403 1.58999,0.009 2.39262,-0.0734 0.81897,-0.019 1.61075,-0.0553 2.41754,-0.18983 0.79609,-0.0326 1.5624,-0.26696 2.34474,-0.40087 0.80469,-0.12108 1.62122,-0.17657 2.37105,-0.51129 0.79016,-0.16904 1.53443,-0.48481 2.27363,-0.79855 0.69618,-0.43962 1.51878,-0.65497 2.18363,-1.15276 14.77896,-7.21261 -48.71773,26.91794 -33.86831,19.60049 0.74063,-0.21704 1.39121,-0.76412 2.05559,-1.1468 0.60531,-0.43993 1.26617,-0.6547 1.76692,-1.24119 0.38081,-0.5409 0.98407,-0.88137 1.18292,-1.55878 0.47145,-0.46807 0.61528,-1.12963 0.8453,-1.73983 0.15177,-0.71776 0.40927,-1.38222 0.46979,-2.12282 0.12373,-0.76425 0.30922,-1.51612 0.34208,-2.30136 0.0218,-0.88322 0.14364,-1.75579 0.0801,-2.64094 -0.0217,-0.91501 -0.0232,-1.82938 -0.0707,-2.74531 -0.11631,-0.99271 -0.22528,-1.98499 -0.41448,-2.96746 -0.16432,-1.02636 -0.41527,-2.03519 -0.64241,-3.04855 -0.32253,-1.07422 -0.62328,-2.1557 -1.01334,-3.20769 -0.3941,-1.0939 -0.81707,-2.17626 -1.28535,-3.24091 -0.50742,-1.12717 -1.0451,-2.23913 -1.60147,-3.34294 -0.64083,-1.18439 -1.27714,-2.372 -1.98179,-3.52021 -0.74928,-1.22767 -1.52725,-2.43711 -2.29771,-3.65156 -0.79923,-1.23581 -1.60473,-2.46791 -2.44626,-3.6755 -0.8415,-1.22673 -1.69891,-2.44212 -2.57212,-3.64654 -0.88573,-1.20062 -1.77494,-2.39898 -2.69786,-3.57144 -0.92909,-1.16638 -1.86434,-2.32788 -2.83485,-3.4603 -0.9867,-1.14235 -1.97647,-2.28201 -2.99636,-3.39505 -1.02991,-1.12734 -2.07337,-2.24246 -3.13751,-3.33762 -1.09243,-1.11348 -2.18715,-2.22461 -3.31197,-3.30562 -1.1394,-1.09584 -2.29173,-2.1782 -3.45673,-3.24681 -1.15731,-1.07578 -2.31669,-2.14932 -3.47077,-3.22856 -1.11049,-1.03322 -2.21168,-2.07654 -3.29921,-3.1339 -1.01464,-0.98672 -2.00921,-1.99393 -3.01711,-2.98753 -0.97273,-0.94975 -1.92303,-1.92214 -2.87691,-2.89074 -0.91835,-0.93004 -1.83169,-1.86502 -2.7429,-2.80203 -0.89117,-0.92136 -1.79449,-1.83097 -2.67567,-2.76197 -0.88083,-0.92057 -1.75791,-1.84462 -2.62301,-2.78006 -0.84771,-0.9295 -1.69542,-1.859 -2.51557,-2.81306 -0.80195,-0.91671 -1.58485,-1.84922 -2.36247,-2.7866 -0.73677,-0.89877 -1.45019,-1.81667 -2.14258,-2.75009 -0.65729,-0.87194 -1.30723,-1.74912 -1.94643,-2.63443 -0.61907,-0.85905 -1.23225,-1.72229 -1.84967,-2.58251 -0.63316,-0.89126 -1.24354,-1.79819 -1.84833,-2.70889 -0.55315,-0.86151 -1.11992,-1.7143 -1.65589,-2.58676 -0.54741,-0.85885 -1.06398,-1.73749 -1.56104,-2.62642 -0.46331,-0.82086 -0.92135,-1.64428 -1.36232,-2.47743 -0.42853,-0.77596 -0.83711,-1.56317 -1.22974,-2.35783 -0.37599,-0.74357 -0.76099,-1.48351 -1.09653,-2.24615 -0.26997,-0.64719 -0.5693,-1.28197 -0.81839,-1.93804 -0.24952,-0.58362 -0.49388,-1.17027 -0.69918,-1.77051 -0.17613,-0.50364 -0.32776,-1.01196 -0.46038,-1.52897 -0.15083,-0.45981 -0.26316,-0.9232 -0.37563,-1.39373 -0.15096,-0.47114 -0.17113,-0.96772 -0.23452,-1.45786 0,0 37.93695,-19.75229 37.93695,-19.75229 z"
       inkscape:connector-curvature="0" />
  </g>
</svg>
